<svg width="16" height="10" viewBox="0 0 16 10" fill="none" xmlns="http://www.w3.org/2000/svg">
<path d="M1.51606 5.90668V0.906717C1.51606 0.560605 1.24718 0.280029 0.915517 0.280029C0.583827 0.280029 0.314941 0.560605 0.314941 0.906717V9.09337C0.314941 9.43948 0.583827 9.72006 0.915517 9.72006C1.24718 9.72006 1.51606 9.43948 1.51606 9.09337V7.91932L13.8174 7.88915V9.0632C13.8174 9.40931 14.0862 9.68988 14.4179 9.68988C14.7496 9.68988 15.0184 9.40931 15.0184 9.0632V7.88915V6.24988V5.87651L1.51606 5.90668Z" fill="#949FA1"/>
<path d="M15.0184 5.36978H5.88873V3.00978C5.88873 2.32494 6.42077 1.76978 7.07707 1.76978H12.6194C13.9444 1.76978 15.0184 2.89054 15.0184 4.2731V5.36978Z" fill="#949FA1"/>
<path d="M3.75176 5.09988C4.5615 5.09988 5.21793 4.41491 5.21793 3.56996C5.21793 2.72501 4.5615 2.04004 3.75176 2.04004C2.94201 2.04004 2.28558 2.72501 2.28558 3.56996C2.28558 4.41491 2.94201 5.09988 3.75176 5.09988Z" fill="#949FA1"/>
</svg>
