<svg width="24" height="24" viewBox="0 0 24 24" fill="none" xmlns="http://www.w3.org/2000/svg">
<g clip-path="url(#clip0_25_1282)">
<rect width="24" height="24" rx="5" fill="#45A74A"/>
<path d="M12 24C18.6274 24 24 18.6274 24 12C24 5.37258 18.6274 0 12 0C5.37258 0 0 5.37258 0 12C0 18.6274 5.37258 24 12 24Z" fill="#45A74A"/>
<path d="M5.69998 5.69999L14.4 4.49999C14.5 4.39999 14.7 4.59999 14.7 4.79999V4.89999V19.2C14.7 19.4 14.6 19.5 14.4 19.5C14.4 19.5 14.4 19.5 14.3 19.5L5.69998 18.3C5.39998 18.2 5.09998 18 5.09998 17.6V6.39999C5.09998 6.09999 5.39998 5.69999 5.69998 5.69999ZM15.4 5.79999H18.2C18.6 5.79999 18.9 6.09999 18.9 6.49999V17.5C18.9 17.9 18.6 18.2 18.2 18.2H15.4V5.79999ZM10.8 12L12.7 9.19999H11L9.89998 10.8L8.79998 9.29999H7.19998L9.09998 12L7.19998 14.8H8.89998L9.99998 13.2L11.1 14.8H12.8L10.8 12Z" fill="white"/>
</g>
<defs>
<clipPath id="clip0_25_1282">
<rect width="24" height="24" rx="5" fill="white"/>
</clipPath>
</defs>
</svg>
