<svg width="24" height="24" viewBox="0 0 24 24" fill="none" xmlns="http://www.w3.org/2000/svg">
<g clip-path="url(#clip0_25_1285)">
<rect width="24" height="24" rx="5" fill="#2190B9"/>
<path fill-rule="evenodd" clip-rule="evenodd" d="M12 23.9737C18.5964 23.9737 23.9766 18.5993 23.9766 12.0029C23.9766 5.40642 18.5964 0.0262451 12 0.0262451C5.40356 0.0262451 0.0234375 5.40637 0.0234375 12.0028C0.0234375 18.5992 5.40356 23.9737 12 23.9737Z" fill="#2190B9"/>
<path d="M7.99444 14.4542V13.4287H8.93653C9.60314 13.4287 10.1457 12.8862 10.1457 12.2196C10.1457 11.5523 9.60319 11.0095 8.93653 11.0095H7.59098C7.36823 11.0095 7.18753 11.1902 7.18753 11.4129V14.4542C7.18753 14.6769 7.36823 14.8574 7.59098 14.8574C7.81369 14.8573 7.99444 14.6769 7.99444 14.4542ZM7.99444 11.8161H8.93653C9.1583 11.8161 9.33905 11.9971 9.33905 12.2196C9.33905 12.4378 9.15478 12.6221 8.93653 12.6221H7.99444V11.8161ZM19.002 8.37332V15.6274C19.002 18.1821 16.9235 20.2603 14.3685 20.2603H9.63061C7.07625 20.2603 4.99809 18.1821 4.99809 15.6274C4.99809 15.4047 5.17852 15.2243 5.40127 15.2243C5.62402 15.2243 5.80472 15.4047 5.80472 15.6274C5.80472 17.7373 7.52109 19.4536 9.63061 19.4536H14.3685C16.4787 19.4536 18.1953 17.7373 18.1953 15.6274V8.76674H16.4786C15.0927 8.76674 13.965 7.63907 13.965 6.25345V4.54645H9.63056C7.52105 4.54645 5.80467 6.26315 5.80467 8.37327V14.1767C5.80467 14.3995 5.62397 14.5802 5.40122 14.5802C5.17847 14.5802 4.99805 14.3995 4.99805 14.1767V8.37332C4.99805 5.81831 7.0762 3.73987 9.63056 3.73987H14.3685C14.4755 3.73987 14.578 3.78224 14.6536 3.85785L18.8839 8.08818C18.9596 8.16384 19.002 8.26663 19.002 8.37332ZM15.189 11.8161V12.505H16.4282C16.651 12.505 16.8317 12.6854 16.8317 12.9081C16.8317 13.1309 16.651 13.3116 16.4282 13.3116H15.189V14.4541C15.189 14.6769 15.0083 14.8573 14.7856 14.8573C14.5628 14.8573 14.3821 14.6769 14.3821 14.4541V11.4129C14.3821 11.1901 14.5628 11.0094 14.7856 11.0094H16.4282C16.651 11.0094 16.8317 11.1901 16.8317 11.4129C16.8317 11.6356 16.651 11.8161 16.4282 11.8161H15.189V11.8161ZM12.2008 14.8573C13.0204 14.8573 13.687 14.1904 13.687 13.3701V12.4966C13.687 11.6767 13.0204 11.0094 12.2008 11.0094H11.1178C10.895 11.0094 10.7146 11.1901 10.7146 11.4129V14.4541C10.7146 14.6769 10.895 14.8573 11.1178 14.8573H12.2008ZM11.5213 11.8161H12.2008C12.5755 11.8161 12.8804 12.1216 12.8804 12.4966V13.3702C12.8804 13.7455 12.5755 14.0507 12.2008 14.0507H11.5213V11.8161Z" fill="white"/>
</g>
<defs>
<clipPath id="clip0_25_1285">
<rect width="24" height="24" rx="5" fill="white"/>
</clipPath>
</defs>
</svg>
