<svg width="200" height="149" viewBox="0 0 200 149" fill="none" xmlns="http://www.w3.org/2000/svg">
<path d="M177.853 40.0731L175.301 52.4315L173.659 50.8302L170.864 52.8228L168.729 50.1718L163.938 53.6545L159.846 46.8089L155.28 49.483L153.47 46.9862L147.672 50.2529L145.927 46.5188L149.991 26.8358L171.779 31.3342L177.853 40.0731Z" fill="#EBEBEB"/>
<path d="M171.779 31.3345L177.853 40.0723L170.297 38.5123L171.779 31.3345Z" fill="#DBDBDB"/>
<path d="M174.758 54.9017L171.015 73.0337L141.67 66.9764L145.385 48.9889L147.129 52.7228L152.927 49.4561L154.737 51.9532L159.304 49.279L163.395 56.1244L168.186 52.6417L170.321 55.2926L173.117 53.3004L174.758 54.9017Z" fill="#EBEBEB"/>
<path d="M132.756 52.7768L102.849 54.6275L100.473 16.2366L122.679 14.8624L130.833 21.7011L132.756 52.7768Z" fill="#EBEBEB"/>
<path d="M122.679 14.8624L130.833 21.7011L123.132 22.1776L122.679 14.8624Z" fill="#DBDBDB"/>
<path d="M114.388 40.6926L114.273 39.8267C113.971 38.0318 114.463 36.0246 116.022 33.9243C117.428 32.0673 118.191 30.7158 118.107 29.211C118.012 27.5051 116.877 26.4278 114.768 26.5123C113.564 26.5798 112.249 27.056 111.448 27.7384L110.527 25.676C111.586 24.8115 113.463 24.1696 115.235 24.0702C119.082 23.8547 120.954 26.1323 121.096 28.6739C121.224 30.9486 120.044 32.6584 118.546 34.655C117.172 36.4766 116.719 37.9785 116.915 39.6785L116.997 40.5462L114.388 40.6926ZM113.915 45.4163C113.845 44.1787 114.633 43.2622 115.803 43.1966C116.974 43.131 117.825 43.9558 117.895 45.1934C117.96 46.3641 117.242 47.3102 116.004 47.3795C114.834 47.4451 113.98 46.587 113.915 45.4163Z" fill="#DBDBDB"/>
<path d="M39.5951 34.1637L36.5855 32.799L36.1682 33.7206C36.0455 33.9915 35.7796 34.1645 35.4823 34.1776C35.318 34.1848 35.1538 34.2011 34.9903 34.2259C34.697 34.2707 34.4031 34.1525 34.2303 33.9115L33.6412 33.0891L30.954 35.0144L31.5431 35.8365C31.7159 36.0779 31.7332 36.3939 31.5967 36.6573C31.5204 36.804 31.4524 36.9544 31.3927 37.1078C31.2847 37.3851 31.0354 37.5811 30.7394 37.6101L29.7324 37.7088L30.057 40.9974L31.0674 40.8968C31.3636 40.8672 31.6439 41.0147 31.8047 41.2653C31.8484 41.3333 31.894 41.4005 31.9412 41.4667C31.9887 41.5328 32.0375 41.5976 32.0879 41.6608C32.2724 41.8925 32.322 42.2038 32.1999 42.4736L31.7796 43.4019L34.7892 44.7667L35.2084 43.8432C35.3314 43.5723 35.5978 43.3995 35.8951 43.3867C36.0588 43.3797 36.2223 43.3638 36.3852 43.3392C36.6783 43.295 36.9716 43.4128 37.1444 43.6539L37.7338 44.4766L40.421 42.5512L39.8316 41.7285C39.6591 41.4875 39.6415 41.1717 39.7778 40.9085C39.8535 40.7624 39.921 40.6125 39.9802 40.4597C40.0879 40.1824 40.337 39.9859 40.6332 39.9566L41.6423 39.8566L41.3178 36.568L40.3082 36.6677C40.013 36.6968 39.7335 36.5499 39.5732 36.3C39.5292 36.2317 39.4834 36.164 39.4356 36.0971C39.3882 36.0309 39.3394 35.9662 39.289 35.903C39.1034 35.6702 39.0538 35.3573 39.1767 35.0861L39.5951 34.1637ZM37.8879 37.2061C38.7586 38.4213 38.4794 40.1107 37.2644 40.9813C36.0492 41.852 34.3578 41.5744 33.4871 40.3592C32.6164 39.144 32.8962 37.4509 34.1114 36.5803C35.3263 35.7099 37.0172 35.9912 37.8879 37.2061Z" fill="#EBEBEB"/>
<path d="M175.569 77.7901L173.564 78.9472L173.918 79.5608C174.023 79.7413 174.013 79.9632 173.899 80.1378C173.836 80.2344 173.778 80.3343 173.726 80.4375C173.632 80.6229 173.444 80.7421 173.237 80.7421H172.528V83.0578H173.237C173.444 83.0578 173.632 83.177 173.726 83.3624C173.778 83.4656 173.836 83.5656 173.899 83.6621C174.013 83.8368 174.023 84.0586 173.918 84.2392L173.564 84.8528L175.569 86.0098L175.924 85.3933C176.028 85.2125 176.226 85.113 176.435 85.1237C176.491 85.1266 176.548 85.128 176.605 85.128C176.662 85.128 176.719 85.1266 176.776 85.1237C176.983 85.113 177.18 85.2117 177.284 85.3914L177.641 86.0096L179.646 84.8525L179.291 84.237C179.187 84.0565 179.197 83.8344 179.312 83.66C179.374 83.564 179.432 83.4642 179.484 83.3615C179.579 83.1765 179.766 83.0576 179.973 83.0576H180.682V80.7418H179.973C179.766 80.7418 179.579 80.6229 179.484 80.4378C179.432 80.3352 179.374 80.2354 179.312 80.1394C179.197 79.9648 179.187 79.7429 179.291 79.5621L179.646 78.9466L177.641 77.7896L177.286 78.4053C177.182 78.5853 176.984 78.6845 176.777 78.6738C176.72 78.6709 176.663 78.6695 176.605 78.6695C176.548 78.6695 176.491 78.6709 176.435 78.6738C176.226 78.6845 176.028 78.585 175.924 78.4045L175.569 77.7901ZM176.605 80.0037C177.653 80.0037 178.501 80.852 178.501 81.8992C178.501 82.9464 177.653 83.7965 176.605 83.7965C175.558 83.7965 174.708 82.9464 174.708 81.8992C174.708 80.852 175.558 80.0037 176.605 80.0037Z" fill="#EBEBEB"/>
<path d="M45.6811 24.3101L43.8421 25.7162L44.2728 26.2789C44.3995 26.4445 44.4181 26.6658 44.328 26.8536C44.2779 26.9573 44.2336 27.064 44.1949 27.1733C44.1256 27.369 43.9552 27.5114 43.7491 27.5384L43.0464 27.6298L43.3453 29.9264L44.048 29.8349C44.2541 29.808 44.4552 29.9021 44.5723 30.0736C44.6376 30.1693 44.7077 30.261 44.7827 30.3485C44.9181 30.5069 44.9565 30.7258 44.8765 30.9181L44.6043 31.5725L46.7419 32.461L47.0141 31.804C47.0941 31.6114 47.2779 31.4872 47.4859 31.4706C47.5424 31.4661 47.5989 31.4602 47.6555 31.453C47.712 31.4456 47.7683 31.437 47.8237 31.4266C48.028 31.3893 48.2365 31.4618 48.3627 31.6266L48.7965 32.1936L50.6357 30.7874L50.2045 30.2229C50.0779 30.0573 50.0595 29.8357 50.1501 29.648C50.2 29.5445 50.2443 29.4384 50.2829 29.3296C50.3525 29.1341 50.5227 28.992 50.7285 28.965L51.4315 28.8736L51.1325 26.577L50.4296 26.6685C50.2237 26.6954 50.0229 26.6016 49.9056 26.4301C49.8405 26.3349 49.7704 26.2437 49.6957 26.1565C49.56 25.9981 49.5211 25.7792 49.6011 25.5866L49.8736 24.9306L47.7357 24.0421L47.4629 24.6984C47.3832 24.8904 47.1997 25.0141 46.9925 25.0304C46.936 25.0349 46.8789 25.0408 46.8216 25.0482C46.7651 25.0557 46.7088 25.0642 46.6531 25.0744C46.4477 25.112 46.2384 25.0389 46.1115 24.873L45.6811 24.3101ZM46.9941 26.3714C48.0325 26.2362 48.9832 26.968 49.1184 28.0064C49.2536 29.0448 48.5221 29.9973 47.4837 30.1325C46.4453 30.2677 45.4925 29.5344 45.3573 28.496C45.2221 27.4576 45.9557 26.5066 46.9941 26.3714Z" fill="#EBEBEB"/>
<path d="M31.9517 84.4755C32.0568 81.895 32.0147 79.3097 31.8456 76.7329C31.4968 71.4179 30.6219 66.1443 29.4203 60.9585C28.744 58.0393 27.9109 55.1697 27.0432 52.303C27.0171 52.2163 26.8789 52.2409 26.9029 52.331C29.5867 62.4366 31.7885 72.8654 31.6371 83.3699C31.5947 86.3099 31.2544 89.1974 30.9752 92.1188C30.9677 92.1969 31.0963 92.2281 31.1141 92.1478C31.6677 89.6481 31.8477 87.0286 31.9517 84.4755Z" fill="#EBEBEB"/>
<path d="M26.9028 52.3313C26.9028 52.3313 22.8372 62.6508 23.7473 65.0764C24.6577 67.502 26.5342 68.0193 26.5342 68.0193C26.5342 68.0193 24.0468 71.5708 25.7849 74.9017C27.5233 78.2326 31.3854 78.0753 31.642 81.8521C31.642 81.8521 31.8572 66.0601 26.9028 52.3313Z" fill="#EBEBEB"/>
<path d="M31.2002 75.3313C31.2052 75.314 31.2039 75.2956 31.1959 75.2772C30.625 68.2604 29.3802 61.2654 27.2524 54.518C27.2463 54.498 27.2135 54.5044 27.2188 54.5252C28.0244 57.5438 28.7412 60.5788 29.3538 63.6302C28.8258 63.0865 28.1351 62.774 27.413 62.5481C27.3994 62.5438 27.3927 62.5633 27.4055 62.5689C28.1575 62.894 28.8778 63.2708 29.4092 63.9078C29.5279 64.506 29.6442 65.1044 29.7546 65.7036C28.846 64.6881 27.586 64.1844 26.3252 63.7054C26.3074 63.6988 26.298 63.726 26.3154 63.7332C27.6284 64.2678 28.9364 64.9566 29.826 66.0881C30.1362 67.8006 30.4076 69.5193 30.6426 71.243C29.9783 70.5492 29.1586 70.0828 28.2183 69.8537C28.19 69.8468 28.1743 69.8886 28.2028 69.8969C29.169 70.175 29.9999 70.7158 30.6615 71.4718C30.6663 71.4772 30.6714 71.4798 30.6767 71.4833C30.758 72.0897 30.8348 72.6969 30.9068 73.3049C30.3954 72.8686 29.83 72.5366 29.2076 72.2799C29.1911 72.2732 29.1823 72.2988 29.1983 72.3057C29.8306 72.5748 30.3994 72.9628 30.9002 73.4321C30.9074 73.4388 30.9146 73.438 30.9218 73.4406C30.9895 74.0185 31.057 74.5966 31.1154 75.1758C30.1834 74.0526 29.0308 73.2398 27.6671 72.7137C27.6404 72.7033 27.6268 72.7441 27.6524 72.7553C28.9783 73.3318 30.1471 74.2452 31.0508 75.3702C31.0756 75.4012 31.1079 75.4062 31.1364 75.3972C31.2244 76.2852 31.3031 77.1745 31.3682 78.0657C31.369 78.078 31.389 78.079 31.3884 78.0668C31.3375 77.1545 31.2738 76.2428 31.2002 75.3313Z" fill="white"/>
<path d="M27.9334 61.5222C27.2283 61.0376 26.3323 60.8307 25.4907 60.7606C25.4704 60.759 25.4688 60.7888 25.4886 60.7915C26.364 60.9216 27.0995 61.2384 27.9038 61.5803C27.9387 61.5955 27.9638 61.5432 27.9334 61.5222Z" fill="white"/>
<path d="M28.4271 72.4478C27.8693 72.1128 27.2327 71.9238 26.5935 71.8206C26.5711 71.8171 26.5693 71.8515 26.5911 71.8552C27.2402 71.9728 27.8151 72.2038 28.405 72.4912C28.4301 72.5038 28.4509 72.4622 28.4271 72.4478Z" fill="white"/>
<path d="M42.6399 65.2446C40.9444 66.4366 39.3172 67.8113 37.9343 69.3579C36.4601 71.0065 35.3849 72.8779 34.634 74.9547C33.0956 79.2094 32.2524 83.8185 32.1756 88.3403C32.1324 90.8753 32.358 93.3905 32.9004 95.8681C32.9201 95.9582 33.0548 95.9326 33.0412 95.8417C32.3783 91.4825 32.4025 87.0342 33.1148 82.6833C33.8137 78.4142 34.9105 73.7697 37.6241 70.3003C39.1017 68.4113 40.9441 66.9249 42.7655 65.3889C42.8607 65.3081 42.7383 65.1753 42.6399 65.2446Z" fill="#EBEBEB"/>
<path d="M32.7737 85.2665C32.7737 85.2665 34.17 82.9151 36.2038 80.8817C38.2377 78.8484 39.9507 77.4033 40.215 76.0585C40.4795 74.7137 38.1777 73.7233 38.1777 73.7233C38.1777 73.7233 40.9923 74.2287 41.7625 73.0473C42.5326 71.8663 42.9044 65.0247 42.9044 65.0247C42.9044 65.0247 37.7841 68.6804 35.3982 73.8049C33.0126 78.9295 32.7737 85.2665 32.7737 85.2665Z" fill="#EBEBEB"/>
<path d="M41.1326 66.7788C38.9782 68.8948 36.8099 71.1498 35.5411 73.9298C35.1062 74.8828 34.7361 75.8714 34.4102 76.8783C34.4094 76.8799 34.4094 76.8815 34.4086 76.8828C34.3433 77.085 34.2769 77.2868 34.2153 77.4903C34.2091 77.5004 34.2059 77.5116 34.2049 77.5236C33.5777 79.5999 33.1342 81.7468 32.7502 83.8442C32.7478 83.8578 32.7683 83.865 32.771 83.8508C32.9915 82.7834 33.235 81.7055 33.5067 80.6308C33.5163 80.6311 33.5267 80.6292 33.5374 80.6247C33.9729 80.4418 34.411 80.3271 34.8811 80.2836C34.9118 80.281 34.9094 80.2276 34.8782 80.2292C34.4246 80.2511 33.9803 80.3306 33.5491 80.4716C33.7971 79.5026 34.0667 78.5362 34.3699 77.5839C35.3585 77.3418 36.3902 77.2111 37.4067 77.1868C37.4171 77.1866 37.419 77.1708 37.4081 77.1703C36.3833 77.1226 35.4201 77.2108 34.4219 77.4239C34.4747 77.2604 34.5297 77.098 34.5843 76.9351C35.2518 76.7831 35.9222 76.6551 36.6051 76.5927C36.6174 76.5916 36.6163 76.5706 36.6041 76.5708C35.9353 76.589 35.2761 76.6591 34.6254 76.8114C34.9041 75.9871 35.2051 75.1743 35.539 74.3826C35.8153 73.7276 36.1438 73.1058 36.5057 72.5055C37.0531 72.3815 37.5838 72.2636 38.1449 72.2132C38.1603 72.2119 38.1587 72.1871 38.1435 72.186C37.6342 72.153 37.1038 72.1911 36.611 72.3375C36.8803 71.9026 37.1633 71.4764 37.4662 71.0636C38.6145 70.8092 39.7785 70.5732 40.9531 70.7938C40.9734 70.7975 40.9809 70.7634 40.9609 70.7583C39.8427 70.4642 38.7329 70.634 37.6203 70.854C37.7417 70.6924 37.8659 70.533 37.9913 70.3743C38.6961 70.1564 39.3971 70.0508 40.1366 70.0372C40.1518 70.037 40.1542 70.0151 40.1385 70.0135C39.4635 69.949 38.7905 70.0143 38.1382 70.1911C39.0875 69.0116 40.1361 67.9039 41.1726 66.8084C41.2211 66.7583 41.1838 66.7287 41.1326 66.7788Z" fill="white"/>
<path d="M41.0756 71.4423C40.7385 71.4063 40.3958 71.3687 40.0572 71.4068C40.0161 71.4114 40.0196 71.4783 40.0609 71.4794C40.398 71.4892 40.735 71.4642 41.0721 71.4823C41.098 71.4839 41.1012 71.445 41.0756 71.4423Z" fill="white"/>
<path d="M37.3899 78.0791C36.8518 78.0724 36.3144 78.2172 35.8118 78.3959C35.7992 78.4004 35.8062 78.4215 35.8192 78.4183C36.3403 78.2943 36.8675 78.2439 37.3939 78.157C37.4371 78.15 37.435 78.0796 37.3899 78.0791Z" fill="white"/>
<path d="M36.2856 75.7862C36.0672 75.7748 35.8309 75.8132 35.6157 75.8468C35.5936 75.8502 35.5949 75.8863 35.6178 75.8868C35.8354 75.8905 36.0749 75.8964 36.2893 75.8553C36.3272 75.8479 36.3256 75.7884 36.2856 75.7862Z" fill="white"/>
<path d="M17.7636 72.5049C19.4113 73.0777 21.0457 73.8142 22.5225 74.7462C24.0966 75.7396 25.3993 77.0057 26.487 78.5126C28.7153 81.6004 30.463 85.1356 31.5705 88.7772C32.1913 90.8188 32.5902 92.9062 32.7238 95.0366C32.7286 95.114 32.6137 95.1246 32.6038 95.0476C32.1326 91.3665 31.0849 87.7724 29.5028 84.4156C27.9505 81.1222 25.9894 77.6172 22.9913 75.4366C21.3588 74.2494 19.5244 73.4724 17.6953 72.6502C17.5996 72.6073 17.6678 72.4718 17.7636 72.5049Z" fill="#EBEBEB"/>
<path d="M30.3758 86.4278C30.3758 86.4278 28.7022 84.8475 26.5865 83.6721C24.4705 82.4966 22.7502 81.723 22.2254 80.6958C21.7006 79.6686 23.3345 78.335 23.3345 78.335C23.3345 78.335 21.1734 79.3945 20.2772 78.6166C19.3809 77.8387 17.4988 72.3881 17.4988 72.3881C17.4988 72.3881 22.4876 74.163 25.6025 77.7587C28.7177 81.3547 30.3758 86.4278 30.3758 86.4278Z" fill="#EBEBEB"/>
<path d="M30.1161 85.3035C27.6209 80.6201 24.2916 76.3833 19.7295 73.5867C19.7273 73.5854 19.7255 73.5886 19.7273 73.5897C20.9284 74.355 22.0351 75.2377 23.0665 76.2027C22.1431 76.1771 21.2031 76.3243 20.3844 76.7689C20.3663 76.7787 20.3793 76.8033 20.398 76.7969C21.3105 76.4881 22.1871 76.2854 23.1577 76.3305C23.1711 76.331 23.1796 76.3241 23.1889 76.3187C23.3508 76.4723 23.5105 76.6283 23.6687 76.7857C23.1887 76.8062 22.7031 76.8742 22.2353 76.9758C22.2228 76.9785 22.2263 76.9979 22.2391 76.9955C22.7452 76.8977 23.2393 76.8635 23.7529 76.8707C24.5889 77.7107 25.3679 78.6094 26.106 79.5425C25.7727 79.4939 25.4233 79.5222 25.1039 79.6153C25.0801 79.6222 25.0863 79.6563 25.1111 79.6531C25.4745 79.6073 25.8201 79.6131 26.1809 79.6385C26.3175 79.8123 26.4556 79.9851 26.5895 80.1611C25.5636 80.0993 24.5585 80.1979 23.5617 80.4555C23.5471 80.4593 23.5511 80.4819 23.5663 80.479C24.5945 80.2771 25.6313 80.2126 26.6761 80.2769C26.8033 80.4457 26.9239 80.6193 27.0487 80.7899C26.4367 80.7713 25.8431 80.8478 25.2463 80.9963C25.2236 81.0019 25.23 81.0377 25.2532 81.0323C25.8671 80.8926 26.4913 80.8571 27.1188 80.887C27.6556 81.6265 28.1697 82.3825 28.6639 83.1475C28.4023 83.0937 28.1276 83.123 27.8727 83.195C27.8591 83.199 27.8628 83.2182 27.8769 83.2166C28.1705 83.1822 28.4447 83.2201 28.7329 83.2571C29.1772 83.9489 29.6068 84.6475 30.0183 85.3502C30.0535 85.4099 30.1492 85.3657 30.1161 85.3035Z" fill="white"/>
<path d="M26.2349 81.4188C25.7472 81.3769 25.2514 81.4534 24.7856 81.5961C24.7722 81.6001 24.7754 81.6204 24.7898 81.6177C25.2696 81.5294 25.745 81.4961 26.2312 81.47C26.2629 81.4684 26.269 81.422 26.2349 81.4188Z" fill="white"/>
<path d="M21.8831 75.7112C21.6626 75.6862 21.4325 75.715 21.2146 75.7502C21.1887 75.7544 21.1967 75.7926 21.2223 75.7899C21.4421 75.7664 21.6589 75.7747 21.8789 75.768C21.9146 75.767 21.9205 75.7155 21.8831 75.7112Z" fill="white"/>
<path d="M36.8106 101.915H25.5496L27.1552 90.1529L27.5656 87.1372H34.7946L35.2048 90.1529L36.8106 101.915Z" fill="#DBDBDB"/>
<path d="M35.2049 90.1529H27.1553L27.5657 87.1372H34.7947L35.2049 90.1529Z" fill="#C7C7C7"/>
<path d="M35.8283 86.0911H26.5317V88.6452H35.8283V86.0911Z" fill="#DBDBDB"/>
<path d="M18.3904 101.915L38.6595 101.85L58.9285 101.826L99.4667 101.782L140.005 101.826L160.274 101.85L180.543 101.915L160.274 101.98L140.005 102.003L99.4667 102.048L58.9285 102.003L38.6595 101.979L18.3904 101.915Z" fill="#263238"/>
<path d="M99.9999 121.79C142.23 121.79 176.464 118.039 176.464 113.412C176.464 108.784 142.23 105.033 99.9999 105.033C57.7697 105.033 23.5354 108.784 23.5354 113.412C23.5354 118.039 57.7697 121.79 99.9999 121.79Z" fill="#EBEBEB"/>
<path d="M82.2004 112.023C81.5788 112.234 63.7617 112.296 63.0806 111.869C62.8214 111.709 62.6612 109.114 62.5561 105.974C62.5334 105.296 62.514 104.596 62.4985 103.884L61.0537 94.3813L72.9644 94.3051L74.0886 103.81L74.043 105.901C74.043 105.901 80.8753 108.928 81.5718 109.477C82.2652 110.025 82.8222 111.813 82.2004 112.023Z" fill="#EB9481"/>
<path d="M82.2004 112.023C81.5788 112.234 63.7617 112.296 63.0807 111.869C62.766 111.672 62.5943 107.883 62.4985 103.884L74.0887 103.81L74.0431 105.9C74.0431 105.9 80.8753 108.928 81.5719 109.476C82.2652 110.025 82.8223 111.813 82.2004 112.023Z" fill="white"/>
<path d="M82.2004 112.023C81.5788 112.234 63.7618 112.296 63.0807 111.869C62.8215 111.709 62.6612 109.114 62.5562 105.974L74.0431 105.901C74.0431 105.901 80.8754 108.928 81.5719 109.476C82.2652 110.025 82.8223 111.813 82.2004 112.023Z" fill="#A6A6A6"/>
<path d="M81.9426 111.311C78.9556 111.249 66.9026 111.277 63.9452 111.442C63.9212 111.443 63.9212 111.459 63.9452 111.461C66.9044 111.587 78.957 111.462 81.9428 111.36C82.0058 111.358 82.0055 111.313 81.9426 111.311Z" fill="#263238"/>
<path d="M80.4239 108.839C79.7156 108.813 79.0244 109.152 78.6396 109.575C78.27 109.982 77.9546 110.553 77.9778 111.172C77.9786 111.19 78.0114 111.19 78.0138 111.172C78.1802 110.002 79.2396 108.972 80.4239 108.877C80.4482 108.875 80.4482 108.84 80.4239 108.839Z" fill="#263238"/>
<path d="M75.2027 106.194C74.0073 106.181 72.6227 106.608 71.8833 107.588C71.8547 107.626 71.9089 107.666 71.9443 107.648C73.023 107.087 74.0489 106.669 75.2235 106.341C75.3067 106.318 75.2883 106.194 75.2027 106.194Z" fill="#263238"/>
<path d="M76.127 106.55C74.9315 106.538 73.547 106.965 72.8076 107.945C72.779 107.983 72.8334 108.023 72.8686 108.005C73.9473 107.444 74.9731 107.025 76.1478 106.697C76.2307 106.674 76.2126 106.551 76.127 106.55Z" fill="#263238"/>
<path d="M77.0509 106.907C75.8555 106.894 74.4709 107.321 73.7315 108.301C73.7027 108.339 73.7573 108.379 73.7925 108.361C74.8712 107.8 75.8971 107.382 77.072 107.054C77.1549 107.031 77.1365 106.907 77.0509 106.907Z" fill="#263238"/>
<path d="M77.975 107.263C76.7796 107.251 75.3953 107.678 74.6558 108.658C74.627 108.696 74.6814 108.736 74.7169 108.718C75.7955 108.157 76.8214 107.738 77.9961 107.41C78.079 107.387 78.0606 107.264 77.975 107.263Z" fill="#263238"/>
<path d="M64.6959 108.602C63.3548 108.611 63.3657 110.696 64.7092 110.687C66.0503 110.678 66.0393 108.594 64.6959 108.602Z" fill="#263238"/>
<path d="M76.4836 102.999C75.8767 102.499 75.1162 102.993 74.745 103.515C74.1436 104.361 73.7327 105.545 73.6695 106.576C73.6682 106.601 73.6874 106.611 73.7068 106.61C73.7327 106.695 73.834 106.767 73.922 106.706C74.7711 106.114 75.7522 105.587 76.3943 104.752C76.7692 104.264 77.0575 103.472 76.4836 102.999ZM75.0258 105.545C74.6154 105.846 74.1924 106.125 73.7932 106.442C74.0047 105.845 74.1892 105.243 74.4607 104.668C74.5903 104.394 74.7284 104.114 74.8946 103.86C75.153 103.464 76.3228 102.461 76.4463 103.761C76.5143 104.478 75.5151 105.186 75.0258 105.545Z" fill="#263238"/>
<path d="M70.701 107.029C71.7423 107.185 72.8151 106.885 73.837 106.723C73.9431 106.706 73.9666 106.584 73.9258 106.504C73.941 106.492 73.9479 106.471 73.9292 106.454C73.1692 105.755 72.0519 105.187 71.0322 104.994C70.4026 104.875 69.5127 105.047 69.4215 105.828C69.3356 106.567 70.093 106.938 70.701 107.029ZM69.9767 106.351C69.1642 105.328 70.7028 105.24 71.1634 105.347C71.4594 105.415 71.7527 105.52 72.0362 105.628C72.6303 105.854 73.181 106.16 73.7468 106.443C73.2399 106.492 72.7415 106.584 72.237 106.652C71.6356 106.732 70.4247 106.915 69.9767 106.351Z" fill="#263238"/>
<path d="M43.5515 50.4541C43.5515 50.4541 57.3835 73.9848 57.7539 75.6368C58.323 78.1754 61.3398 103.246 61.3398 103.246L75.732 102.987C75.732 102.987 73.2515 80.8826 70.9022 73.6002C69.2099 68.3546 57.003 50.9578 57.003 50.9578L43.5515 50.4541Z" fill="#37474F"/>
<path d="M74.4232 100.78C72.3563 100.765 65.032 100.683 62.2808 100.939C62.2598 100.941 62.2606 100.976 62.2814 100.979C63.2283 101.115 72.3579 100.903 74.424 100.837C74.463 100.836 74.4622 100.78 74.4232 100.78Z" fill="#263238"/>
<path d="M45.9125 52.6133C46.8189 54.0349 47.7751 55.4269 48.7018 56.8362C49.629 58.2461 50.5527 59.6581 51.4645 61.0778C53.2866 63.9154 55.0613 66.7826 56.8034 69.6677C57.6205 71.0208 58.3986 72.3864 58.9597 73.8624C59.5154 75.3242 59.8938 76.8453 60.1738 78.3786C60.4559 79.9234 60.6415 81.4829 60.817 83.0418C61.0037 84.7018 61.1877 86.3621 61.373 88.0224C61.7522 91.4194 62.1314 94.8165 62.5106 98.2133C62.557 98.6301 62.6026 99.0466 62.6445 99.464C62.6506 99.525 62.5413 99.5373 62.5335 99.476C62.1101 96.1005 61.7583 92.7149 61.3735 89.3349C61.1821 87.6522 60.9906 85.9696 60.7991 84.2869C60.621 82.7224 60.4517 81.156 60.209 79.5994C59.9703 78.0706 59.6607 76.548 59.1954 75.0682C58.7093 73.5221 58.0207 72.0706 57.2055 70.6648C55.5375 67.7882 53.7727 64.9608 52.0071 62.1408C50.2263 59.2965 48.4306 56.46 46.5682 53.6656C46.3383 53.3205 46.1063 52.9776 45.8679 52.6378C45.8493 52.6112 45.8949 52.5858 45.9125 52.6133Z" fill="#263238"/>
<path d="M48.0858 113.411C47.4296 113.371 30.4869 106.506 30.0146 105.856C29.9989 105.834 29.9896 105.791 29.9888 105.73C29.992 105.148 31.1653 103.109 32.1458 100.433C32.2072 100.262 32.6445 99.4677 33.2514 98.3968C34.9197 95.4557 37.8717 90.4176 37.8717 90.4176L48.9461 94.8176L43.6453 102.753L42.8202 104.673C42.8202 104.673 48.0178 110.044 48.4568 110.813C48.893 111.582 48.7397 113.448 48.0858 113.411Z" fill="#EB9481"/>
<path d="M48.0858 113.411C47.4296 113.371 30.4869 106.506 30.0146 105.856C29.9989 105.834 29.9896 105.791 29.9888 105.73C29.992 105.148 31.1653 103.109 32.1458 100.433C32.2072 100.262 32.6445 99.4678 33.2514 98.3969L43.6456 102.753L42.8205 104.673C42.8205 104.673 48.0181 110.044 48.457 110.813C48.893 111.582 48.7397 113.448 48.0858 113.411Z" fill="white"/>
<path d="M48.0847 113.41C47.4295 113.372 30.4863 106.506 30.0151 105.855C29.8351 105.609 30.5927 103.295 32.1447 100.433L42.8204 104.674C42.8204 104.674 48.018 110.043 48.458 110.813C48.8943 111.582 48.7399 113.448 48.0847 113.41Z" fill="#A6A6A6"/>
<path d="M48.1124 112.653C45.3673 111.475 34.1836 106.979 31.3804 106.023C31.3577 106.015 31.3516 106.03 31.3735 106.04C34.0689 107.268 45.2887 111.672 48.0943 112.699C48.1535 112.72 48.1702 112.678 48.1124 112.653Z" fill="#263238"/>
<path d="M47.6322 109.792C46.9856 109.502 46.2178 109.557 45.7024 109.805C45.2072 110.043 44.7005 110.454 44.4898 111.037C44.4837 111.053 44.5141 111.066 44.5234 111.05C45.1165 110.028 46.485 109.471 47.6186 109.827C47.6413 109.834 47.6546 109.802 47.6322 109.792Z" fill="#263238"/>
<path d="M43.7849 105.381C42.6814 104.921 41.2379 104.797 40.1846 105.428C40.1438 105.453 40.1793 105.51 40.219 105.507C41.4294 105.391 42.5371 105.388 43.7491 105.525C43.8347 105.535 43.8638 105.414 43.7849 105.381Z" fill="#263238"/>
<path d="M44.5078 106.058C43.4043 105.598 41.9608 105.474 40.9075 106.105C40.8667 106.13 40.9022 106.187 40.9419 106.183C42.152 106.068 43.26 106.065 44.472 106.202C44.5576 106.212 44.5867 106.091 44.5078 106.058Z" fill="#263238"/>
<path d="M45.2307 106.735C44.1272 106.275 42.6837 106.151 41.6304 106.783C41.5896 106.807 41.6251 106.865 41.6648 106.861C42.8749 106.746 43.9829 106.742 45.1949 106.879C45.2803 106.889 45.3096 106.768 45.2307 106.735Z" fill="#263238"/>
<path d="M45.9534 107.412C44.8499 106.952 43.4064 106.828 42.3534 107.46C42.3126 107.484 42.3478 107.542 42.3878 107.538C43.5982 107.423 44.7059 107.42 45.9179 107.556C46.0032 107.566 46.0326 107.445 45.9534 107.412Z" fill="#263238"/>
<path d="M33.1415 103.672C31.8951 103.177 31.1233 105.113 32.3719 105.609C33.6185 106.105 34.3903 104.168 33.1415 103.672Z" fill="#263238"/>
<path d="M46.1705 102.9C45.7953 102.209 44.9054 102.381 44.3654 102.726C43.4908 103.284 42.6654 104.228 42.2204 105.159C42.2094 105.182 42.2236 105.199 42.2422 105.205C42.234 105.294 42.3012 105.398 42.406 105.375C43.415 105.145 44.5222 105.024 45.4305 104.491C45.9606 104.18 46.5252 103.554 46.1705 102.9ZM43.8641 104.713C43.3705 104.838 42.874 104.939 42.3852 105.082C42.8049 104.609 43.202 104.119 43.6692 103.688C43.8921 103.483 44.1252 103.276 44.3745 103.102C44.7625 102.832 46.2233 102.341 45.85 103.593C45.6441 104.283 44.4524 104.564 43.8641 104.713Z" fill="#263238"/>
<path d="M39.2984 104.466C40.205 105.002 41.312 105.126 42.3202 105.359C42.4248 105.383 42.4922 105.279 42.4845 105.19C42.5032 105.184 42.5176 105.167 42.5066 105.145C42.0642 104.211 41.2418 103.266 40.369 102.704C39.8298 102.358 38.9405 102.183 38.5634 102.873C38.2064 103.526 38.769 104.154 39.2984 104.466ZM38.8816 103.566C38.5122 102.314 39.9714 102.809 40.3584 103.081C40.6072 103.255 40.8394 103.462 41.0618 103.669C41.5277 104.101 41.9234 104.592 42.3418 105.066C41.8536 104.922 41.3573 104.82 40.864 104.693C40.2762 104.542 39.085 104.257 38.8816 103.566Z" fill="#263238"/>
<path d="M44.5 102.309L32.104 97.3029C32.104 97.3029 47.4736 74.7043 47.5875 73.0224C47.688 71.5323 40.9373 58.5667 40.6712 54.788C40.384 50.7102 42.3477 47.5539 44.5053 45.5952L57.2933 51.0312C57.2933 51.0312 55.9437 53.1904 53.8176 54.3923C53.8176 54.3923 60.3755 69.3792 60.0035 73.9872C59.6296 78.6203 44.5 102.309 44.5 102.309Z" fill="#37474F"/>
<path d="M45.0507 99.9513C43.2582 99.1806 43.7835 99.3764 41.9822 98.6257C41.1009 98.2582 35.3065 95.8497 34.4243 95.6513C34.4049 95.647 34.3923 95.6777 34.4094 95.6881C35.1806 96.1604 41.0158 98.4676 41.9041 98.818C43.7193 99.534 43.2059 99.3086 45.0291 100.004C45.0635 100.017 45.0843 99.9657 45.0507 99.9513Z" fill="#263238"/>
<path d="M55.9231 54.1182C54.5908 54.4046 53.2839 54.8753 52.0284 55.3812C51.9791 55.4012 52.0023 55.4742 52.0551 55.4588C53.3623 55.0772 54.6919 54.7206 55.9751 54.2697C56.0759 54.2342 56.0252 54.0961 55.9231 54.1182Z" fill="#263238"/>
<path d="M54.4059 53.5918C54.2798 53.8115 54.1729 54.043 54.0774 54.2769C54.0035 54.4585 53.9086 54.6531 53.9097 54.8513C53.9099 54.8897 53.9617 54.899 53.9854 54.8755C54.1339 54.7294 54.2129 54.5161 54.3067 54.3339C54.4155 54.123 54.5291 53.9139 54.6318 53.6998C54.6998 53.5579 54.4835 53.4563 54.4059 53.5918Z" fill="#263238"/>
<path d="M54.5613 52.3897C54.6397 52.1929 54.7186 51.9964 54.8013 51.8014C54.8869 51.5996 54.9863 51.4006 55.0562 51.1929C55.0671 51.1601 55.1191 51.1822 55.1061 51.2153C55.0279 51.4124 54.977 51.6225 54.9143 51.8252C54.8514 52.0286 54.785 52.2308 54.7178 52.4329C54.5925 52.8092 54.4391 53.1825 54.2775 53.5457C54.4866 53.543 54.7018 53.5337 54.8919 53.439C55.0983 53.3361 55.2234 53.1169 55.325 52.9188C55.4378 52.6988 55.5415 52.4737 55.6575 52.2553C55.7858 52.0137 55.9277 51.7748 56.0122 51.5132C56.0229 51.4801 56.0738 51.5022 56.0621 51.5353C55.8695 52.0753 55.6802 52.6145 55.3807 53.1121C55.2631 53.3076 55.1677 53.511 54.9509 53.5876C54.7181 53.6697 54.4634 53.6537 54.221 53.6361C54.1911 53.6444 54.1525 53.6252 54.1629 53.5889C54.2773 53.1865 54.4061 52.7785 54.5613 52.3897Z" fill="#263238"/>
<path d="M54.0174 54.8803C54.4718 55.8438 54.8715 56.8038 55.2963 57.7638C55.7115 58.7019 56.1003 59.651 56.4777 60.6046C57.2403 62.5318 57.9235 64.494 58.5227 66.4782C58.8193 67.4601 59.0923 68.4489 59.3393 69.4443C59.5867 70.4425 59.8286 71.4508 59.9313 72.4758C60.0342 73.5041 59.9609 74.5209 59.6745 75.5153C59.3838 76.5241 59.0009 77.4052 58.5459 78.3489C58.2681 78.9257 58.1723 78.8478 58.307 78.5566C58.6886 77.7308 59.6881 75.2273 59.6155 73.1225C59.5806 72.107 59.3721 71.107 59.1427 70.1203C58.9086 69.1131 58.6443 68.1132 58.3561 67.1201C57.7881 65.1636 57.1134 63.2457 56.4193 61.331C56.0305 60.2582 55.6131 59.1964 55.2185 58.1259C54.8209 57.0475 54.411 56.0771 53.9699 54.8995C53.9582 54.8686 54.0033 54.8505 54.0174 54.8803Z" fill="#263238"/>
<path d="M44.6054 51.6979C44.8275 51.6158 45.1355 51.7518 45.3619 51.7897C45.6523 51.8385 45.9459 51.8681 46.2403 51.8782C46.5305 51.8881 46.823 51.8763 47.1118 51.8481C47.4006 51.8201 47.6953 51.7843 47.9462 51.6275C48.3691 51.3635 48.7233 50.8985 49.0099 50.4979C49.3249 50.0577 49.6518 49.5515 49.8395 49.0417C49.851 49.0105 49.8961 49.0318 49.8862 49.0625C49.7929 49.3598 49.7235 49.6595 49.6049 49.9499C49.4931 50.2233 49.3489 50.4846 49.1958 50.7363C48.9099 51.2067 48.5819 51.7089 48.0918 51.9886C47.5774 52.2822 46.9147 52.2646 46.3411 52.2315C46.0094 52.2123 45.679 52.1686 45.3537 52.1001C45.119 52.0505 44.7241 52.0129 44.5745 51.8067C44.5475 51.7705 44.5617 51.7142 44.6054 51.6979Z" fill="#263238"/>
<path d="M35.6428 94.9406C37.6804 91.8571 39.6801 88.7483 41.6438 85.6171C43.6126 82.4777 45.5452 79.3153 47.4508 76.1371C47.9065 75.3771 48.4332 74.6174 48.7268 73.7755C49.046 72.8603 48.8646 71.9737 48.5756 71.0782C48.0454 69.4358 47.3852 67.8377 46.6724 66.2667C45.9574 64.6913 45.1878 63.1417 44.4305 61.5865C43.6796 60.0438 42.8804 58.4961 42.3108 56.875C41.7668 55.3265 41.5596 53.7206 41.9772 52.1145C42.3916 50.5209 43.2878 49.0899 44.2238 47.7545C44.4708 47.4022 44.7222 47.0531 44.97 46.7014C44.9889 46.6747 45.0294 46.707 45.0097 46.7337C43.9782 48.1259 42.9724 49.5995 42.3676 51.2342C42.0686 52.0419 41.875 52.8923 41.8561 53.7553C41.8366 54.6307 42.0012 55.4993 42.259 56.3331C42.7606 57.9545 43.5524 59.4897 44.29 61.0129C45.0441 62.5699 45.8185 64.1177 46.5457 65.6878C47.2774 67.2675 47.9617 68.8713 48.5241 70.5198C48.7745 71.2537 49.0537 72.0217 49.0372 72.8081C49.019 73.6694 48.6078 74.4449 48.1822 75.171C46.3284 78.3326 44.4038 81.4545 42.4556 84.5585C40.4998 87.6745 38.5054 90.7659 36.4801 93.8369C36.2246 94.2241 35.9686 94.611 35.7124 94.9977C35.6806 95.0449 35.6113 94.9883 35.6428 94.9406Z" fill="#263238"/>
<path d="M58.0035 36.6584C59.1577 39.192 64.9883 42.6832 67.7193 43.0584C69.6841 43.3283 75.6497 43.4211 77.6955 43.1088C80.0915 42.7429 78.2608 36.2741 76.8443 36.4397C72.9513 36.8949 69.6454 37.4016 68.6062 37.4016C67.3374 37.4016 60.4697 35.1973 59.6422 34.8872C57.6169 34.128 57.3489 35.2213 58.0035 36.6584Z" fill="#EB9481"/>
<path d="M58.0395 37.329C59.5006 39.4914 64.3584 43.0264 64.3584 43.0264L65.0326 41.5328L67.2635 36.5954C67.2635 36.5954 62.8024 35.1877 59.8667 34.5605C59.4702 34.4754 59.1206 34.4245 58.8163 34.4109C56.9422 34.3098 56.7795 35.4688 58.0395 37.329Z" fill="#7ACDE6"/>
<path d="M58.0395 37.329C59.5006 39.4914 64.3584 43.0264 64.3584 43.0264L65.0326 41.5328C63.2211 39.4301 60.4248 36.2432 58.8163 34.4109C56.9422 34.3098 56.7795 35.4688 58.0395 37.329Z" fill="#263238"/>
<path d="M63.4828 42.0282C63.8529 41.1207 65.5022 37.4594 65.9116 36.6911C65.9401 36.6378 65.9804 36.6421 65.9577 36.701C64.9137 39.4453 63.927 41.1682 63.5188 42.0405C63.5086 42.0623 63.4734 42.0511 63.4828 42.0282Z" fill="#263238"/>
<path d="M76.1299 36.5104C78.4995 36.1994 81.4304 35.668 83.9123 36.7216C84.3992 36.9282 84.5755 37.2912 84.5755 37.2912C85.6963 37.7437 85.8192 38.4088 85.8192 38.4088C86.7341 39.1498 86.7664 39.8474 86.7664 39.8474C86.7664 39.8474 88.0766 40.393 87.8781 41.2397C87.6587 42.1898 85.8616 41.2376 84.5534 41.3184C81.5555 41.5032 77.3461 42.6045 76.4869 42.7437L76.1299 36.5104Z" fill="#EB9481"/>
<path d="M81.2759 39.3042C82.1591 39.2674 83.0257 39.2082 83.9095 39.2912C84.8791 39.3821 85.7967 39.6325 86.7375 39.864C86.7668 39.8712 86.7799 39.8312 86.7521 39.8194C85.1156 39.1309 83.0175 38.9501 81.2737 39.2642C81.2313 39.2717 81.2313 39.3061 81.2759 39.3042Z" fill="#263238"/>
<path d="M80.9012 37.5112C81.7628 37.5229 83.2766 37.5536 85.8102 38.4363C85.8185 38.4392 85.826 38.4261 85.8174 38.4216C84.2486 37.6299 82.6401 37.3483 80.902 37.4701C80.8478 37.4739 80.8441 37.5104 80.9012 37.5112Z" fill="#263238"/>
<path d="M80.718 36.5437C82.182 36.6197 83.0956 36.8528 84.5681 37.2955C84.5764 37.2979 84.583 37.2843 84.5742 37.2805C82.9534 36.6019 82.2884 36.5392 80.7134 36.4933C80.6596 36.4915 80.6609 36.5408 80.718 36.5437Z" fill="#263238"/>
<path d="M80.9553 41.7698C80.5745 41.9484 80.6657 42.1495 81.3943 42.3183C82.1311 42.4906 85.1497 42.5367 85.0433 43.5911C84.9383 44.6495 80.6673 44.514 79.4756 44.1402C78.2828 43.769 76.4871 42.7439 76.4871 42.7439C77.3233 42.6026 79.3188 42.0674 80.9553 41.7698Z" fill="#EB9481"/>
<path d="M61.174 40.6974C61.1556 41.1529 61.1108 41.6166 61.0468 42.0763C61.0529 42.0598 61.0601 42.0435 61.0662 42.027C61.155 41.787 61.2414 41.5409 61.3492 41.3089C61.3548 41.2966 61.3764 41.3 61.3737 41.315C61.3268 41.5667 61.2385 41.8195 61.1425 42.0571C61.0966 42.1705 61.05 42.2838 61.0009 42.3961C60.9678 42.6009 60.931 42.8043 60.8897 43.0046C60.811 43.3859 60.4508 45.008 60.3689 45.2822C60.3516 45.3398 60.283 45.3267 60.2873 45.2622C60.307 44.9635 60.6092 43.2742 60.6702 42.8918C60.7876 42.1574 60.9489 41.4081 61.1454 40.6905C61.15 40.6734 61.1745 40.6814 61.174 40.6974Z" fill="#263238"/>
<path d="M58.394 52.82C57.6828 53.1867 56.7655 53.7547 52.6324 52.9411C52.374 52.8886 52.1143 52.8251 51.854 52.7478C47.978 51.5835 43.3295 47.0256 43.0674 46.7043C43.0674 46.7043 49.2228 36.7227 57.098 33.5851C58.0714 33.1974 59.6828 33.9451 60.5748 34.8758C60.8935 35.2083 61.5847 37.6574 61.3194 39.6422C61.0514 41.624 59.1103 52.4568 58.394 52.82Z" fill="#7ACDE6"/>
<path d="M57.8442 39.5511C57.8669 39.7655 57.8498 39.9743 57.8237 40.1818C57.7925 40.3887 57.7517 40.5943 57.6711 40.7943C57.6482 40.5799 57.6653 40.3711 57.6917 40.1637C57.7231 39.9567 57.7639 39.7511 57.8442 39.5511Z" fill="white"/>
<path d="M55.1599 46.3485C55.1825 46.5629 55.1655 46.7717 55.1393 46.9794C55.1081 47.1864 55.0673 47.392 54.9868 47.592C54.9639 47.3776 54.9809 47.1688 55.0073 46.961C55.0391 46.7541 55.0796 46.5485 55.1599 46.3485Z" fill="white"/>
<path d="M50.5964 41.2114C50.6191 41.4258 50.602 41.6346 50.5759 41.8421C50.5447 42.049 50.5039 42.2546 50.4233 42.4546C50.4004 42.2402 50.4175 42.0314 50.4439 41.8237C50.4756 41.617 50.5164 41.4114 50.5964 41.2114Z" fill="white"/>
<path d="M59.6028 46.0038C59.6254 46.2182 59.6084 46.427 59.5822 46.6344C59.551 46.8414 59.5102 47.047 59.4297 47.247C59.4067 47.0326 59.4238 46.8238 59.4502 46.616C59.4817 46.4094 59.5225 46.2038 59.6028 46.0038Z" fill="white"/>
<path d="M53.7429 40.3297C53.9573 40.307 54.1661 40.3241 54.3739 40.3502C54.5808 40.3814 54.7864 40.4222 54.9864 40.5027C54.772 40.5257 54.5632 40.5086 54.3555 40.4822C54.1485 40.4507 53.9432 40.4099 53.7429 40.3297Z" fill="white"/>
<path d="M48.5642 45.2408C48.7786 45.2181 48.9874 45.2352 49.1949 45.2613C49.4018 45.2925 49.6074 45.3333 49.8074 45.4139C49.593 45.4368 49.3842 45.4197 49.1767 45.3933C48.9695 45.3619 48.7642 45.3211 48.5642 45.2408Z" fill="white"/>
<path d="M54.6567 50.5557C54.8711 50.5331 55.0799 50.5501 55.2874 50.5763C55.4943 50.6075 55.6999 50.6483 55.8999 50.7288C55.6855 50.7517 55.4767 50.7347 55.2693 50.7083C55.0623 50.6768 54.8567 50.636 54.6567 50.5557Z" fill="white"/>
<path d="M46.9678 48.6251C47.1822 48.6024 47.391 48.6195 47.5987 48.6456C47.8056 48.6768 48.0112 48.7176 48.2112 48.7981C47.9968 48.8211 47.788 48.804 47.5803 48.7776C47.3734 48.7459 47.1678 48.7051 46.9678 48.6251Z" fill="white"/>
<path d="M57.8052 34.7739C58.0196 34.7512 58.2284 34.7683 58.4361 34.7944C58.643 34.8256 58.8484 34.8664 59.0484 34.9469C58.834 34.9699 58.6252 34.9528 58.4177 34.9264C58.2108 34.8947 58.0052 34.8539 57.8052 34.7739Z" fill="white"/>
<path d="M56.2999 36.475C56.1642 36.6424 56.0047 36.7782 55.8394 36.9064C55.6711 37.0307 55.497 37.1472 55.2986 37.2315C55.4341 37.0638 55.5938 36.928 55.7591 36.8C55.9274 36.676 56.1018 36.5595 56.2999 36.475Z" fill="white"/>
<path d="M48.0878 41.3086C47.952 41.4761 47.7926 41.6118 47.6272 41.7401C47.459 41.8643 47.2848 41.9809 47.0864 42.0654C47.2219 41.8977 47.3816 41.7619 47.547 41.6339C47.7155 41.5097 47.8896 41.3934 48.0878 41.3086Z" fill="white"/>
<path d="M58.34 43.4917C58.2042 43.6592 58.0448 43.7949 57.8794 43.9232C57.7112 44.0474 57.537 44.164 57.3386 44.2482C57.4741 44.0805 57.6338 43.9448 57.7992 43.8168C57.9677 43.693 58.1418 43.5765 58.34 43.4917Z" fill="white"/>
<path d="M51.7008 47.6725C51.5651 47.84 51.4056 47.9757 51.2403 48.104C51.072 48.2282 50.8979 48.3447 50.6995 48.429C50.8349 48.2613 50.9947 48.1256 51.16 47.9976C51.3283 47.8738 51.5024 47.7573 51.7008 47.6725Z" fill="white"/>
<path d="M60.8844 37.7784C60.7487 37.9459 60.5892 38.0816 60.4239 38.2099C60.2556 38.3342 60.0815 38.4507 59.8828 38.535C60.0183 38.3672 60.178 38.2315 60.3433 38.1035C60.5121 37.9795 60.6863 37.863 60.8844 37.7784Z" fill="white"/>
<path d="M60.7453 42.6245C60.5778 42.4888 60.4421 42.3293 60.3138 42.164C60.1896 41.9957 60.073 41.8216 59.9888 41.6232C60.1565 41.7586 60.2922 41.9184 60.4202 42.0837C60.544 42.2522 60.6605 42.4264 60.7453 42.6245Z" fill="white"/>
<path d="M45.947 45.9619C45.7795 45.8262 45.6438 45.6667 45.5155 45.5014C45.3912 45.3331 45.2747 45.159 45.1904 44.9606C45.3582 45.096 45.4939 45.2558 45.6219 45.4211C45.7459 45.5894 45.8624 45.7635 45.947 45.9619Z" fill="white"/>
<path d="M58.9467 49.9347C58.7793 49.799 58.6435 49.6395 58.5153 49.4741C58.391 49.3059 58.2745 49.1317 58.1899 48.9333C58.3577 49.0688 58.4934 49.2286 58.6214 49.3939C58.7457 49.5622 58.8619 49.7366 58.9467 49.9347Z" fill="white"/>
<path d="M52.4318 38.6141C52.2644 38.4784 52.1286 38.3189 52.0004 38.1536C51.8761 37.9853 51.7596 37.8112 51.6753 37.6128C51.843 37.7483 51.9788 37.908 52.1068 38.0733C52.2308 38.2416 52.3473 38.4157 52.4318 38.6141Z" fill="white"/>
<path d="M52.5471 52.1952C52.3796 52.0594 52.2439 51.9 52.1156 51.7346C51.9913 51.5664 51.8748 51.3922 51.7905 51.1938C51.9583 51.3293 52.094 51.489 52.222 51.6544C52.3457 51.8226 52.4623 51.9968 52.5471 52.1952Z" fill="white"/>
<path d="M53.6545 44.1837C53.487 44.048 53.3513 43.8885 53.223 43.7232C53.0987 43.5549 52.9822 43.3808 52.8979 43.1824C53.0657 43.3178 53.2014 43.4776 53.3294 43.6429C53.4534 43.8112 53.5699 43.9853 53.6545 44.1837Z" fill="white"/>
<path d="M59.1272 37.5328C58.1237 37.3461 57.1779 35.269 57.0589 33.8717C57.0512 33.776 57.5288 33.0152 58.0651 32.0632C58.3883 31.4842 58.7347 30.832 59.0077 30.2141C59.0632 30.0869 59.392 30.5109 59.392 30.5109L60.1064 31.0573L62.4677 32.868C62.4677 32.868 61.5144 33.9952 61.0451 35.0754C61.0069 35.1661 60.9787 35.2538 60.9597 35.3408C60.956 35.353 60.9531 35.3685 60.9469 35.3853C60.8123 35.9018 60.0971 37.7125 59.1272 37.5328Z" fill="#EB9481"/>
<path d="M60.9595 35.341C60.9558 35.3533 60.9528 35.3687 60.9467 35.3855C60.8176 35.3493 60.6824 35.2978 60.539 35.2306C57.9547 34.0194 59.0947 30.557 59.0947 30.557L60.1064 31.0575L62.4678 32.8682C62.4678 32.8682 61.5144 33.9954 61.0451 35.0757C61.0067 35.1663 60.9787 35.2541 60.9595 35.341Z" fill="#263238"/>
<path d="M65.178 25.4883C65.178 25.4883 66.3585 26.2381 66.3662 27.5709C66.374 28.904 65.843 30.208 65.7198 30.2547C65.5966 30.3013 65.178 25.4883 65.178 25.4883Z" fill="#263238"/>
<path d="M59.3181 26.1799C58.6082 27.5813 58.6439 31.9935 59.5306 33.1306C60.8157 34.7789 63.2914 35.3469 64.7855 33.7173C66.2341 32.1375 66.0855 26.3882 65.0607 25.3167C63.5514 23.7386 60.3669 24.1101 59.3181 26.1799Z" fill="#EB9481"/>
<path d="M63.083 29.7152C63.0803 29.7038 63.0598 29.7299 63.0606 29.7424C63.0771 30.043 63.0454 30.3899 62.7755 30.496C62.7673 30.4992 62.7683 30.5144 62.7785 30.5128C63.1091 30.4582 63.1467 29.9971 63.083 29.7152Z" fill="#263238"/>
<path d="M62.8071 29.4072C62.3225 29.3816 62.3073 30.3526 62.7561 30.3763C63.198 30.3995 63.2132 29.4286 62.8071 29.4072Z" fill="#263238"/>
<path d="M64.7285 29.704C64.7309 29.6925 64.7517 29.7187 64.7512 29.7309C64.7368 30.0315 64.7712 30.3781 65.0416 30.4824C65.0501 30.4856 65.0488 30.5008 65.0389 30.4992C64.7077 30.4469 64.6667 29.9864 64.7285 29.704Z" fill="#263238"/>
<path d="M65.0022 29.3942C65.4865 29.3651 65.5089 30.3358 65.0603 30.3627C64.6187 30.3894 64.5961 29.4185 65.0022 29.3942Z" fill="#263238"/>
<path d="M62.5031 28.6683C62.6359 28.6371 62.7533 28.5862 62.8813 28.5419C63.0258 28.4918 63.1461 28.4667 63.2423 28.3395C63.2938 28.2712 63.2749 28.147 63.2133 28.0904C63.0695 27.9592 62.8775 27.9766 62.701 28.0299C62.5095 28.0878 62.3767 28.1811 62.265 28.3464C62.1562 28.5067 62.3279 28.7094 62.5031 28.6683Z" fill="#263238"/>
<path d="M65.3385 29.0987C65.2043 29.0747 65.0843 29.0302 64.9542 28.9926C64.8073 28.9502 64.6857 28.9315 64.583 28.8094C64.5278 28.7438 64.5403 28.6187 64.5987 28.5592C64.735 28.4206 64.9281 28.4278 65.107 28.4715C65.3014 28.519 65.439 28.6054 65.5593 28.7646C65.6761 28.9187 65.5155 29.1304 65.3385 29.0987Z" fill="#263238"/>
<path d="M62.3982 32.5645C62.4692 32.636 62.5396 32.7341 62.6484 32.7451C62.7529 32.7555 62.8764 32.7101 62.9729 32.6744C62.9825 32.6709 62.9918 32.6811 62.9857 32.6901C62.9057 32.8043 62.7404 32.8739 62.6014 32.8475C62.4657 32.8216 62.4004 32.7029 62.3692 32.5779C62.3649 32.5603 62.3878 32.5541 62.3982 32.5645Z" fill="#263238"/>
<path d="M64.1448 31.279C64.1448 31.279 64.1576 31.7291 64.1349 31.9382C64.1328 31.9577 63.5429 31.8422 62.9072 31.9822C62.812 32.0033 62.8213 31.9257 62.9312 31.875C63.1512 31.7734 63.4307 31.6782 63.9747 31.7366C63.9957 31.6803 63.9421 31.0441 63.9755 31.0451C64.0909 31.0478 64.3077 31.1502 64.4387 31.2046C64.4392 30.2662 64.2893 29.3355 64.304 28.4011C64.3051 28.3678 64.3536 28.363 64.36 28.3937C64.5861 29.3582 64.6091 30.4379 64.6336 31.407C64.6381 31.5278 64.2248 31.3238 64.1448 31.279Z" fill="#263238"/>
<path d="M63.545 31.7782C63.545 31.7782 63.3354 32.3057 62.985 32.4473C62.5818 32.6105 62.4437 32.2454 62.8551 31.923C63.0709 31.7539 63.545 31.7782 63.545 31.7782Z" fill="#263238"/>
<path d="M63.1251 32.3651C63.0797 32.3998 63.0344 32.4291 62.9837 32.4478C62.6131 32.5971 62.4664 32.3011 62.7651 32.0024C62.968 32.0184 63.1891 32.0931 63.1251 32.3651Z" fill="#FF99BA"/>
<path d="M59.114 29.9549C59.6015 30.1045 60.1625 28.6381 60.3212 28.0744C60.4609 27.5776 60.6223 26.0013 60.646 25.8939C60.6697 25.7864 62.7719 27.2885 64.0009 26.9293C65.23 26.5701 66.0513 25.4672 66.0684 24.9523C66.0852 24.4376 64.5593 23.1307 63.2388 23.0637C61.9183 22.9968 60.1308 24.6752 60.1308 24.6752C60.1308 24.6752 60.738 23.9501 60.7175 23.8907C60.6969 23.8312 59.8436 24.172 59.6868 24.7797C59.6868 24.7797 59.8556 24.0168 59.7911 24.0027C59.7265 23.9885 59.0636 24.6419 59.2132 25.1371C59.2132 25.1371 58.4463 25.8013 58.3753 26.5296C58.3041 27.2581 58.5412 29.7792 59.114 29.9549Z" fill="#263238"/>
<path d="M64.8741 26.6728C64.5005 26.8448 64.1261 27.0338 63.7131 27.0882C63.2667 27.1472 62.8035 27.0352 62.388 26.8757C61.9629 26.713 61.5768 26.4768 61.2259 26.188C60.9184 25.9349 60.6459 25.6296 60.3176 25.4042C60.2355 25.348 60.1403 25.4661 60.1909 25.5418C60.6893 26.2896 61.5712 26.9138 62.4211 27.1834C63.3152 27.4669 64.1557 27.2674 64.8789 26.6826C64.8832 26.6789 64.8803 26.6698 64.8741 26.6728Z" fill="#263238"/>
<path d="M59.6242 29.8243C59.6242 29.8243 58.8674 28.2878 58.1847 28.5368C57.502 28.7859 57.9223 30.9091 58.6188 31.2979C59.3156 31.6867 59.6879 31.0488 59.6879 31.0488L59.6242 29.8243Z" fill="#EB9481"/>
<path d="M58.3204 29.1427C58.3087 29.1398 58.3039 29.156 58.3135 29.1619C58.7993 29.4515 58.9983 29.9739 59.1127 30.5016C58.9881 30.2861 58.7943 30.1488 58.5092 30.2928C58.4943 30.3003 58.5039 30.3235 58.5191 30.3227C58.7383 30.3099 58.8857 30.3702 59.0031 30.5622C59.086 30.6982 59.1321 30.8611 59.1833 31.0112C59.2004 31.0614 59.2879 31.0494 59.2785 30.9934C59.2777 30.9891 59.2769 30.9848 59.2761 30.9806C59.3908 30.3216 59.0196 29.3182 58.3204 29.1427Z" fill="#263238"/>
<path d="M54.6235 36.6822C54.1022 39.703 57.3638 49.8822 59.4638 51.7835C62.5867 54.611 68.3608 56.4702 70.4531 57.075C71.3648 57.3387 73.8878 50.9219 72.9654 50.4992C70.9894 49.5942 64.8507 47.6795 64.2728 47.1878C63.695 46.696 60.1675 41.6208 58.5992 38.6939C56.4955 34.7667 54.8872 35.1542 54.6235 36.6822Z" fill="#EB9481"/>
<path d="M71.4118 49.9347C71.4118 49.9347 74.1348 50.6286 75.894 51.1662C76.8756 51.4659 78.5124 52.1302 79.1326 52.6803C80.0604 53.5032 83.4153 57.5371 82.4548 58.3718C81.5852 59.1272 79.143 55.2955 79.143 55.2955C79.143 55.2955 81.9492 58.944 80.735 59.6611C79.5209 60.3782 77.3372 55.6819 77.3372 55.6819C77.3372 55.6819 80.1364 59.4952 78.7673 60.0368C77.7326 60.4459 75.5153 56.304 75.5153 56.304C75.5153 56.304 77.8985 59.5984 76.8526 60.0651C75.6969 60.5808 73.4102 56.8859 73.4102 56.8859C70.5521 57.6243 68.8892 56.807 67.7753 56.0846C67.5057 55.9091 71.4118 49.9347 71.4118 49.9347Z" fill="#EB9481"/>
<path d="M78.2533 53.9713C78.5984 54.3878 78.9506 54.8073 79.2576 55.2531C79.5645 55.699 79.8562 56.1561 80.1202 56.6286C80.7677 57.7875 80.9922 58.6145 80.9728 58.5649C80.5136 57.3926 79.4394 55.7793 79.1325 55.3331C78.8261 54.8881 78.5424 54.4278 78.2362 53.9822C78.2282 53.971 78.245 53.9614 78.2533 53.9713Z" fill="#263238"/>
<path d="M76.623 55.0502C77.2144 55.519 78.4552 57.2648 78.9339 58.4344C78.9539 58.4835 78.9275 58.4795 78.8984 58.4349C78.5235 57.8571 77.0096 55.6163 76.6091 55.0592C76.603 55.0504 76.615 55.0438 76.623 55.0502Z" fill="#263238"/>
<path d="M75.0573 55.7248C75.7421 56.4027 76.317 57.328 76.7693 58.3976C76.7898 58.4459 76.7512 58.4384 76.7229 58.3928C76.1707 57.4936 75.7437 56.7843 75.029 55.7486C75.0178 55.7323 75.0413 55.7091 75.0573 55.7248Z" fill="#263238"/>
<path d="M57.5916 36.9043C55.1566 33.4606 53.7017 34.7371 54.19 38.475C54.6465 41.9707 55.8718 46.1352 55.8718 46.1352L62.0161 43.1592C62.0161 43.1592 59.1497 39.1083 57.5916 36.9043Z" fill="#7ACDE6"/>
<path d="M59.0797 38.2584C59.1666 38.4558 59.2143 38.6598 59.2525 38.8654C59.2858 39.072 59.3098 39.28 59.2941 39.4952C59.2069 39.2979 59.1591 39.0939 59.1213 38.8883C59.0882 38.6814 59.0645 38.4734 59.0797 38.2584Z" fill="white"/>
<path d="M55.4441 40.352C55.6414 40.2651 55.8454 40.2176 56.051 40.1792C56.2577 40.1459 56.4657 40.1219 56.6809 40.1376C56.4836 40.2248 56.2796 40.2726 56.074 40.3104C55.8673 40.3435 55.659 40.3672 55.4441 40.352Z" fill="white"/>
<path d="M55.6026 34.9971C55.5244 35.1981 55.414 35.376 55.2956 35.5485C55.1732 35.7181 55.0428 35.8824 54.8796 36.0232C54.9575 35.8221 55.0682 35.644 55.1866 35.4717C55.3092 35.3021 55.4396 35.1381 55.6026 34.9971Z" fill="white"/>
<path d="M60.7869 41.9603C60.7087 42.1611 60.5983 42.3393 60.4799 42.5118C60.3575 42.6814 60.2274 42.8457 60.0642 42.9865C60.1421 42.7854 60.2525 42.6073 60.3711 42.435C60.4938 42.2657 60.6242 42.1014 60.7869 41.9603Z" fill="white"/>
<path d="M56.5359 44.0491C56.3348 43.971 56.157 43.8606 55.9844 43.7422C55.8148 43.6198 55.6506 43.4893 55.5098 43.3264C55.7108 43.4043 55.8887 43.5147 56.0612 43.6333C56.2308 43.7557 56.3948 43.8862 56.5359 44.0491Z" fill="white"/>
<path d="M58.4085 37.9409C58.7354 38.3907 59.0743 38.8318 59.4119 39.2737C59.3263 39.0502 59.2522 38.8243 59.1861 38.5937C59.1831 38.583 59.1983 38.5785 59.2023 38.5886C59.2706 38.7654 59.3463 38.9398 59.4117 39.1177C59.4431 39.2033 59.4751 39.2883 59.5079 39.3734C59.5151 39.3918 59.5223 39.4099 59.5295 39.4281C59.7922 39.7729 60.0538 40.1185 60.3066 40.4702C60.6082 40.8902 60.8994 41.3174 61.1919 41.7438C61.4941 42.1843 61.7807 42.7009 62.0999 43.1291C62.1277 43.1662 61.5562 43.3971 61.5029 43.4267C61.4482 43.4571 61.4111 43.4041 61.4693 43.3865C61.5229 43.3702 61.9754 43.0921 61.981 43.0865C61.6887 42.6566 61.349 42.259 61.0429 41.8387C60.7383 41.4203 60.4325 41.003 60.137 40.5782C59.537 39.7153 58.9861 38.8187 58.3906 37.9521C58.3829 37.9411 58.4005 37.9299 58.4085 37.9409Z" fill="#263238"/>
<path d="M54.3413 40.948C54.4346 41.1299 54.5351 41.3099 54.6178 41.4968C54.6519 41.5741 54.6855 41.6515 54.7197 41.7288C54.5797 41.0632 54.4423 40.3971 54.3061 39.7304C54.3045 39.7227 54.3162 39.7187 54.3183 39.7267C54.5999 40.8059 54.8845 41.884 55.1458 42.9683C55.3951 44.0019 55.6962 45.0483 55.8389 46.1029C55.9239 46.0749 56.4021 45.8771 56.4159 45.908C56.4298 45.9392 55.7909 46.24 55.7823 46.2149C55.4346 45.1843 55.2191 44.0136 54.9826 42.9528C54.9159 42.6541 54.8538 42.3547 54.7901 42.0552C54.7207 41.8749 54.6367 41.7013 54.5549 41.5261C54.4682 41.3408 54.3983 41.1467 54.3223 40.9568C54.3178 40.9459 54.3357 40.9373 54.3413 40.948Z" fill="#263238"/>
<path d="M55.9691 45.1078C56.8227 44.6264 60.3891 42.7803 61.187 42.4323C61.2422 42.408 61.2713 42.4366 61.2169 42.4688C58.6945 43.9718 56.8513 44.7094 55.9894 45.14C55.9681 45.1507 55.9475 45.12 55.9691 45.1078Z" fill="#263238"/>
<path d="M153.685 115.214H72.437L84.1853 48.5867H165.433L153.685 115.214Z" fill="#7ACDE6"/>
<path d="M111.992 41.6866H85.4018L84.1853 48.5866H112.642L111.992 41.6866Z" fill="#7ACDE6"/>
<g opacity="0.1">
<path d="M153.685 115.214H72.437L84.1853 48.5867H165.433L153.685 115.214Z" fill="black"/>
<path d="M111.992 41.6866H85.4018L84.1853 48.5866H112.642L111.992 41.6866Z" fill="black"/>
</g>
<path d="M82.5325 44.5013C82.4274 44.1147 82.4037 43.7277 82.3992 43.3411C82.4029 42.9541 82.4266 42.5675 82.5325 42.1808C82.6381 42.5675 82.6618 42.9544 82.6658 43.3411C82.6613 43.728 82.6376 44.1147 82.5325 44.5013Z" fill="#263238"/>
<path d="M80.1695 45.1848C79.885 44.9024 79.6711 44.5792 79.4741 44.2466C79.2839 43.9098 79.1111 43.5629 79.0093 43.1752C79.2943 43.4573 79.5082 43.7805 79.7047 44.1133C79.8943 44.4504 80.0674 44.7973 80.1695 45.1848Z" fill="#263238"/>
<path d="M78.4652 46.9579C78.0777 46.8555 77.7308 46.6827 77.3937 46.4931C77.0606 46.2963 76.7374 46.0824 76.4556 45.7976C76.8433 45.8995 77.1902 46.0723 77.527 46.2624C77.8596 46.4597 78.1828 46.6733 78.4652 46.9579Z" fill="#263238"/>
<path d="M77.8755 49.3459C77.4888 49.4509 77.1019 49.4747 76.7152 49.4792C76.3285 49.4752 75.9416 49.4517 75.5549 49.3459C75.9416 49.2403 76.3285 49.2165 76.7152 49.2125C77.1019 49.2171 77.4885 49.2408 77.8755 49.3459Z" fill="#263238"/>
<path d="M78.5587 51.7087C78.2763 51.9933 77.9531 52.2071 77.6205 52.4042C77.2837 52.5943 76.9368 52.7671 76.5491 52.869C76.8312 52.5842 77.1544 52.3703 77.4872 52.1735C77.8243 51.9839 78.1712 51.8109 78.5587 51.7087Z" fill="#263238"/>
<path d="M80.3319 53.4133C80.2295 53.8008 80.0567 54.1477 79.8671 54.4848C79.6703 54.8179 79.4564 55.1411 79.1716 55.4229C79.2735 55.0352 79.4463 54.6883 79.6364 54.3515C79.8335 54.0189 80.0474 53.6957 80.3319 53.4133Z" fill="#263238"/>
<path d="M82.7198 54.0029C82.8248 54.3899 82.8486 54.7765 82.8531 55.1632C82.8491 55.5499 82.8256 55.9368 82.7198 56.3235C82.6139 55.9368 82.5904 55.5499 82.5864 55.1632C82.591 54.7765 82.6147 54.3899 82.7198 54.0029Z" fill="#263238"/>
<path d="M85.0828 53.3197C85.3673 53.6021 85.5809 53.9253 85.7782 54.2578C85.9684 54.5946 86.1412 54.9416 86.243 55.3293C85.958 55.0472 85.7444 54.724 85.5476 54.3912C85.358 54.0538 85.1852 53.7072 85.0828 53.3197Z" fill="#263238"/>
<path d="M86.7871 51.5464C87.1746 51.6488 87.5215 51.8216 87.8586 52.0112C88.1916 52.208 88.5148 52.4219 88.7967 52.7067C88.409 52.6048 88.062 52.432 87.7252 52.2419C87.3927 52.0448 87.0695 51.8309 86.7871 51.5464Z" fill="#263238"/>
<path d="M87.377 49.1584C87.7636 49.0533 88.1506 49.0296 88.5372 49.025C88.9239 49.029 89.3108 49.0525 89.6975 49.1584C89.3106 49.264 88.9239 49.2877 88.5372 49.2917C88.1503 49.2872 87.7636 49.2637 87.377 49.1584Z" fill="#263238"/>
<path d="M86.6936 46.7958C86.976 46.5112 87.2992 46.2974 87.6317 46.1003C87.9685 45.9104 88.3155 45.7374 88.7032 45.6355C88.4211 45.9203 88.0979 46.1342 87.7651 46.331C87.428 46.5206 87.0811 46.6934 86.6936 46.7958Z" fill="#263238"/>
<path d="M84.9204 45.0911C85.0228 44.7037 85.1956 44.3567 85.3852 44.0197C85.582 43.6866 85.7959 43.3634 86.0807 43.0815C85.9788 43.4693 85.806 43.8162 85.6159 44.153C85.4185 44.4855 85.2047 44.8087 84.9204 45.0911Z" fill="#263238"/>
<path d="M153.565 115.214H72.1428L60.5825 51.0054H142.005L153.565 115.214Z" fill="#7ACDE6"/>
<path d="M88.7971 90.2566C90.6662 90.2566 92.1814 88.7414 92.1814 86.8723C92.1814 85.0032 90.6662 83.488 88.7971 83.488C86.928 83.488 85.4128 85.0032 85.4128 86.8723C85.4128 88.7414 86.928 90.2566 88.7971 90.2566Z" fill="#263238"/>
<path d="M115.551 90.2566C117.42 90.2566 118.935 88.7414 118.935 86.8723C118.935 85.0032 117.42 83.488 115.551 83.488C113.681 83.488 112.166 85.0032 112.166 86.8723C112.166 88.7414 113.681 90.2566 115.551 90.2566Z" fill="#263238"/>
<path d="M107.035 90.7969L106.849 90.4425C106.832 90.4105 105.084 87.179 101.566 87.179C98.3579 87.179 97.5758 90.2217 97.544 90.351L97.4491 90.7388L96.6731 90.5513L96.7664 90.1633C96.7755 90.1254 97.7198 86.379 101.566 86.379C105.576 86.379 107.479 89.9204 107.558 90.0713L107.743 90.4254L107.035 90.7969Z" fill="#263238"/>
<path d="M148.162 86.4838C148.335 86.4465 148.509 86.4057 148.681 86.3617" stroke="#263238" stroke-miterlimit="10"/>
<path d="M149.705 86.0585C153.784 84.6811 157.2 81.4723 157.521 77.7235C158.23 69.4569 148.162 64.8905 149.202 55.3379C150.194 46.2257 159.752 45.5755 163.583 46.835C167.815 48.2262 166.365 52.2937 162.534 51.7689C155.891 50.859 151.716 43.6374 154.87 35.4454C157.228 29.3251 163.103 27.0169 165.49 26.3129" stroke="#263238" stroke-miterlimit="10" stroke-dasharray="4 4"/>
<path d="M166.004 26.1705C166.334 26.0854 166.522 26.0499 166.522 26.0499" stroke="#263238" stroke-miterlimit="10"/>
<path d="M170.752 24.5771C170.071 22.4694 165.516 23.2267 166.406 25.9803C167.295 28.7341 171.432 26.6848 170.752 24.5771Z" fill="#263238"/>
<path d="M163.928 23.7272C163.962 22.8029 165.248 22.0917 167.066 22.4197C168.884 22.748 170.596 23.9723 170.596 23.9723C170.596 23.9723 168.798 25.0717 166.962 25.2656C165.124 25.4597 163.894 24.656 163.928 23.7272Z" fill="#EBEBEB"/>
<path d="M170.596 23.9722C169.652 23.9786 168.709 23.9472 167.767 23.9184C166.825 23.8781 165.882 23.8408 164.942 23.7645C165.885 23.7576 166.828 23.7896 167.77 23.8184C168.713 23.8589 169.655 23.8965 170.596 23.9722Z" fill="#263238"/>
<path d="M165.755 22.9088C166.028 23.0309 166.281 23.1859 166.535 23.3379C166.783 23.5 167.033 23.6595 167.262 23.8517C166.989 23.7299 166.736 23.5749 166.482 23.4224C166.234 23.2605 165.985 23.1011 165.755 22.9088Z" fill="#263238"/>
<path d="M168.226 23.8854C167.987 24.0883 167.728 24.2587 167.469 24.4318C167.205 24.595 166.942 24.7611 166.658 24.8942C166.897 24.6912 167.157 24.5206 167.415 24.3478C167.68 24.1846 167.942 24.019 168.226 23.8854Z" fill="#263238"/>
<path d="M168.5 23.3649C168.641 23.4254 168.758 23.5158 168.876 23.6041C168.987 23.7011 169.101 23.7958 169.19 23.9209C169.049 23.8606 168.932 23.7699 168.814 23.6817C168.702 23.5843 168.589 23.4894 168.5 23.3649Z" fill="#263238"/>
<path d="M165.66 29.2133C166.229 29.9432 167.688 29.768 168.97 28.4389C170.253 27.1096 170.925 25.1155 170.925 25.1155C170.925 25.1155 168.824 25.2747 167.221 26.1917C165.617 27.1085 165.089 28.48 165.66 29.2133Z" fill="#EBEBEB"/>
<path d="M170.925 25.1152C170.156 25.6619 169.41 26.2387 168.662 26.8134C167.922 27.3971 167.179 27.9784 166.461 28.5902C167.23 28.0438 167.976 27.4667 168.724 26.892C169.464 26.3083 170.207 25.727 170.925 25.1152Z" fill="#263238"/>
<path d="M167.621 28.8086C167.771 28.5497 167.885 28.2766 168.002 28.0043C168.109 27.7278 168.218 27.4523 168.292 27.1625C168.141 27.4211 168.027 27.6945 167.91 27.9667C167.804 28.2433 167.694 28.5187 167.621 28.8086Z" fill="#263238"/>
<path d="M169.054 26.5717C168.742 26.5469 168.431 26.5605 168.121 26.5709C167.811 26.5931 167.5 26.6123 167.192 26.6701C167.505 26.6952 167.815 26.6816 168.126 26.6709C168.436 26.6485 168.746 26.6291 169.054 26.5717Z" fill="#263238"/>
<path d="M169.581 26.8334C169.66 26.7019 169.702 26.5603 169.747 26.4195C169.78 26.2755 169.817 26.1326 169.815 25.9792C169.736 26.1107 169.695 26.2523 169.65 26.3931C169.617 26.5371 169.581 26.6803 169.581 26.8334Z" fill="#263238"/>
<path d="M170.752 24.5771C170.332 24.7125 169.881 24.4821 169.746 24.0621C169.61 23.6421 169.841 23.192 170.261 23.0563C170.68 22.9205 171.131 23.1512 171.266 23.5712C171.402 23.9912 171.172 24.4416 170.752 24.5771Z" fill="#455A64"/>
<path d="M171.243 26.0978C170.823 26.2333 170.372 26.0029 170.237 25.5829C170.101 25.1629 170.332 24.7128 170.752 24.577C171.172 24.4416 171.622 24.672 171.757 25.092C171.893 25.5117 171.663 25.9621 171.243 26.0978Z" fill="#455A64"/>
<path d="M83.817 25.419C83.4352 29.0694 80.1648 31.7203 76.5146 31.3384C75.0394 31.184 73.728 30.5579 72.7125 29.6227L69.3875 30.1107L71.0512 27.236C70.6474 26.2539 70.4776 25.1608 70.5952 24.0358C70.977 20.3854 74.2474 17.7344 77.8976 18.1163C81.5477 18.4982 84.1987 21.7686 83.817 25.419Z" fill="white"/>
<path d="M83.8171 25.419C83.6782 26.6323 83.2347 27.8217 82.4758 28.7881C82.3014 29.0411 82.0769 29.2526 81.8734 29.4817C81.6425 29.6827 81.427 29.9035 81.1721 30.0755C80.6859 30.4499 80.1395 30.7435 79.5689 30.9683C79.0006 31.2075 78.3891 31.3217 77.7795 31.395C77.4721 31.4115 77.1641 31.4395 76.8561 31.4126C76.5475 31.4057 76.2401 31.3726 75.9363 31.3169C74.7201 31.0966 73.5681 30.5273 72.6481 29.6934L72.7267 29.7177L69.4049 30.2275L69.1638 30.2646L69.2859 30.0521L70.9398 27.1718L70.9321 27.2854C70.1265 25.3883 70.3081 23.1291 71.3414 21.3614C71.8566 20.4763 72.575 19.7137 73.423 19.1449C74.2705 18.5745 75.2534 18.2169 76.2595 18.0806C77.2667 17.947 78.3033 18.0387 79.2651 18.3582C80.2257 18.6817 81.1065 19.2257 81.8283 19.9299C83.2953 21.3249 84.0329 23.4177 83.8171 25.419ZM83.8171 25.419C84.0193 23.4161 83.267 21.3361 81.799 19.9598C81.0702 19.2715 80.1878 18.7502 79.2358 18.4475C78.2822 18.1491 77.2622 18.0779 76.2798 18.2259C75.2982 18.3766 74.3475 18.7422 73.5347 19.3102C72.7241 19.8795 72.0401 20.6241 71.5462 21.4793C71.0425 22.3326 70.7817 23.3102 70.7028 24.2915C70.6406 25.2761 70.8012 26.2726 71.1705 27.187L71.1945 27.2465L71.1627 27.3009L69.4894 30.1697L69.3705 29.9942L72.6987 29.5281L72.7446 29.5217L72.7774 29.5523C73.6572 30.3782 74.7705 30.9547 75.9601 31.1918C76.2572 31.2518 76.5585 31.2894 76.8617 31.3014C77.1643 31.3334 77.4675 31.311 77.7713 31.3001C78.3731 31.2382 78.9798 31.1363 79.5465 30.9091C80.1153 30.6961 80.6651 30.4169 81.1497 30.0451C81.4046 29.8758 81.6201 29.6579 81.8515 29.4593C82.0555 29.2329 82.2809 29.0238 82.4561 28.7729C83.2185 27.815 83.6699 26.6315 83.8171 25.419Z" fill="#263238"/>
<path d="M73.9568 27.8265C73.9568 27.4297 74.2323 27.143 74.6069 27.143C75.0037 27.143 75.2573 27.4297 75.2573 27.8265C75.2573 28.2124 75.0037 28.5097 74.6069 28.5097C74.2213 28.5097 73.9568 28.2121 73.9568 27.8265ZM74.2323 26.2502L74.0778 20.9598H75.136L74.9816 26.2502H74.2323Z" fill="#7ACDE6"/>
<path d="M76.4919 27.8265C76.4919 27.4297 76.7674 27.143 77.1423 27.143C77.5391 27.143 77.7927 27.4297 77.7927 27.8265C77.7927 28.2124 77.5391 28.5097 77.1423 28.5097C76.7565 28.5097 76.4919 28.2121 76.4919 27.8265ZM76.7674 26.2502L76.6133 20.9598H77.6714L77.5173 26.2502H76.7674Z" fill="#7ACDE6"/>
<path d="M79.0271 27.8265C79.0271 27.4297 79.3026 27.143 79.6775 27.143C80.0743 27.143 80.3276 27.4297 80.3276 27.8265C80.3276 28.2124 80.074 28.5097 79.6775 28.5097C79.2916 28.5097 79.0271 28.2121 79.0271 27.8265ZM79.3028 26.2502L79.1484 20.9598H80.2066L80.0524 26.2502H79.3028Z" fill="#7ACDE6"/>
<path d="M57.5028 136.606V145.333H56.2926L51.8565 138.933H51.7756V145.333H50.4588V136.606H51.6776L56.1179 143.015H56.1989V136.606H57.5028ZM62.0785 145.465C61.4648 145.465 60.9293 145.325 60.4719 145.044C60.0146 144.762 59.6594 144.369 59.4066 143.863C59.1538 143.358 59.0273 142.767 59.0273 142.09C59.0273 141.411 59.1538 140.818 59.4066 140.309C59.6594 139.801 60.0146 139.406 60.4719 139.125C60.9293 138.843 61.4648 138.703 62.0785 138.703C62.6921 138.703 63.2276 138.843 63.685 139.125C64.1424 139.406 64.4975 139.801 64.7504 140.309C65.0032 140.818 65.1296 141.411 65.1296 142.09C65.1296 142.767 65.0032 143.358 64.7504 143.863C64.4975 144.369 64.1424 144.762 63.685 145.044C63.2276 145.325 62.6921 145.465 62.0785 145.465ZM62.0827 144.396C62.4805 144.396 62.81 144.291 63.0714 144.081C63.3327 143.87 63.5259 143.59 63.6509 143.241C63.7788 142.892 63.8427 142.507 63.8427 142.086C63.8427 141.669 63.7788 141.285 63.6509 140.936C63.5259 140.583 63.3327 140.301 63.0714 140.088C62.81 139.875 62.4805 139.768 62.0827 139.768C61.6822 139.768 61.3498 139.875 61.0856 140.088C60.8242 140.301 60.6296 140.583 60.5018 140.936C60.3768 141.285 60.3143 141.669 60.3143 142.086C60.3143 142.507 60.3768 142.892 60.5018 143.241C60.6296 143.59 60.8242 143.87 61.0856 144.081C61.3498 144.291 61.6822 144.396 62.0827 144.396ZM72.6552 145.333H69.8299V136.606H72.7447C73.5998 136.606 74.3342 136.781 74.9478 137.13C75.5614 137.477 76.0316 137.975 76.3583 138.626C76.6879 139.274 76.8526 140.051 76.8526 140.957C76.8526 141.866 76.6864 142.647 76.354 143.301C76.0245 143.954 75.5472 144.457 74.9222 144.809C74.2972 145.159 73.5415 145.333 72.6552 145.333ZM71.1467 144.183H72.5827C73.2475 144.183 73.8001 144.058 74.2404 143.808C74.6808 143.555 75.0103 143.19 75.229 142.713C75.4478 142.233 75.5572 141.647 75.5572 140.957C75.5572 140.272 75.4478 139.691 75.229 139.214C75.0131 138.737 74.6907 138.375 74.2617 138.127C73.8327 137.88 73.3001 137.757 72.6637 137.757H71.1467V144.183ZM80.2926 145.478C79.8778 145.478 79.5028 145.402 79.1676 145.248C78.8324 145.092 78.5668 144.866 78.3707 144.571C78.1776 144.275 78.081 143.913 78.081 143.484C78.081 143.115 78.152 142.811 78.294 142.572C78.4361 142.333 78.6278 142.144 78.8693 142.005C79.1108 141.866 79.3807 141.761 79.679 141.69C79.9773 141.619 80.2813 141.565 80.5909 141.528C80.983 141.483 81.3011 141.446 81.5455 141.417C81.7898 141.386 81.9673 141.336 82.0781 141.268C82.1889 141.2 82.2443 141.089 82.2443 140.936V140.906C82.2443 140.534 82.1392 140.245 81.929 140.041C81.7216 139.836 81.4119 139.734 81 139.734C80.571 139.734 80.233 139.829 79.9858 140.019C79.7415 140.207 79.5724 140.416 79.4787 140.646L78.2812 140.373C78.4233 139.975 78.6307 139.654 78.9034 139.41C79.179 139.163 79.4957 138.984 79.8537 138.873C80.2116 138.76 80.5881 138.703 80.983 138.703C81.2443 138.703 81.5213 138.734 81.8139 138.796C82.1094 138.856 82.3849 138.967 82.6406 139.129C82.8991 139.291 83.1108 139.522 83.2756 139.823C83.4403 140.122 83.5227 140.51 83.5227 140.987V145.333H82.2784V144.438H82.2273C82.1449 144.603 82.0213 144.765 81.8565 144.924C81.6918 145.083 81.4801 145.215 81.2216 145.321C80.9631 145.426 80.6534 145.478 80.2926 145.478ZM80.5696 144.456C80.9219 144.456 81.223 144.386 81.473 144.247C81.7259 144.108 81.9176 143.926 82.0483 143.701C82.1818 143.474 82.2486 143.231 82.2486 142.973V142.129C82.2031 142.174 82.1151 142.217 81.9844 142.257C81.8565 142.294 81.7102 142.326 81.5455 142.355C81.3807 142.38 81.2202 142.404 81.0639 142.427C80.9077 142.447 80.777 142.464 80.6719 142.478C80.4247 142.51 80.1989 142.562 79.9943 142.636C79.7926 142.71 79.6307 142.816 79.5085 142.956C79.3892 143.092 79.3295 143.274 79.3295 143.501C79.3295 143.816 79.446 144.055 79.679 144.217C79.9119 144.376 80.2088 144.456 80.5696 144.456ZM88.2752 138.788V139.811H84.6999V138.788H88.2752ZM85.6587 137.22H86.9329V143.411C86.9329 143.659 86.9698 143.845 87.0437 143.97C87.1175 144.092 87.2127 144.176 87.3292 144.221C87.4485 144.264 87.5778 144.285 87.717 144.285C87.8192 144.285 87.9087 144.278 87.9854 144.264C88.0621 144.25 88.1218 144.238 88.1644 144.23L88.3945 145.282C88.3207 145.311 88.2156 145.339 88.0792 145.367C87.9428 145.399 87.7724 145.416 87.5678 145.419C87.2326 145.424 86.9201 145.365 86.6303 145.24C86.3406 145.115 86.1062 144.921 85.9272 144.66C85.7482 144.399 85.6587 144.071 85.6587 143.676V137.22ZM91.5895 145.478C91.1747 145.478 90.7997 145.402 90.4645 145.248C90.1293 145.092 89.8636 144.866 89.6676 144.571C89.4744 144.275 89.3778 143.913 89.3778 143.484C89.3778 143.115 89.4489 142.811 89.5909 142.572C89.733 142.333 89.9247 142.144 90.1662 142.005C90.4077 141.866 90.6776 141.761 90.9759 141.69C91.2741 141.619 91.5781 141.565 91.8878 141.528C92.2798 141.483 92.598 141.446 92.8423 141.417C93.0866 141.386 93.2642 141.336 93.375 141.268C93.4858 141.2 93.5412 141.089 93.5412 140.936V140.906C93.5412 140.534 93.4361 140.245 93.2259 140.041C93.0185 139.836 92.7088 139.734 92.2969 139.734C91.8679 139.734 91.5298 139.829 91.2827 140.019C91.0384 140.207 90.8693 140.416 90.7756 140.646L89.5781 140.373C89.7202 139.975 89.9276 139.654 90.2003 139.41C90.4759 139.163 90.7926 138.984 91.1506 138.873C91.5085 138.76 91.8849 138.703 92.2798 138.703C92.5412 138.703 92.8182 138.734 93.1108 138.796C93.4063 138.856 93.6818 138.967 93.9375 139.129C94.196 139.291 94.4077 139.522 94.5724 139.823C94.7372 140.122 94.8196 140.51 94.8196 140.987V145.333H93.5753V144.438H93.5241C93.4418 144.603 93.3182 144.765 93.1534 144.924C92.9886 145.083 92.777 145.215 92.5185 145.321C92.2599 145.426 91.9503 145.478 91.5895 145.478ZM91.8665 144.456C92.2188 144.456 92.5199 144.386 92.7699 144.247C93.0227 144.108 93.2145 143.926 93.3452 143.701C93.4787 143.474 93.5455 143.231 93.5455 142.973V142.129C93.5 142.174 93.4119 142.217 93.2812 142.257C93.1534 142.294 93.0071 142.326 92.8423 142.355C92.6776 142.38 92.517 142.404 92.3608 142.427C92.2045 142.447 92.0739 142.464 91.9688 142.478C91.7216 142.51 91.4957 142.562 91.2912 142.636C91.0895 142.71 90.9276 142.816 90.8054 142.956C90.6861 143.092 90.6264 143.274 90.6264 143.501C90.6264 143.816 90.7429 144.055 90.9759 144.217C91.2088 144.376 91.5057 144.456 91.8665 144.456ZM100.532 145.333H99.1342L102.275 136.606H103.796L106.937 145.333H105.539L103.072 138.191H103.004L100.532 145.333ZM100.766 141.916H105.3V143.024H100.766V141.916ZM112.874 138.788L110.5 145.333H109.137L106.759 138.788H108.127L109.784 143.825H109.853L111.506 138.788H112.874ZM115.789 145.478C115.374 145.478 114.999 145.402 114.664 145.248C114.328 145.092 114.063 144.866 113.867 144.571C113.674 144.275 113.577 143.913 113.577 143.484C113.577 143.115 113.648 142.811 113.79 142.572C113.932 142.333 114.124 142.144 114.365 142.005C114.607 141.866 114.877 141.761 115.175 141.69C115.473 141.619 115.777 141.565 116.087 141.528C116.479 141.483 116.797 141.446 117.042 141.417C117.286 141.386 117.463 141.336 117.574 141.268C117.685 141.2 117.74 141.089 117.74 140.936V140.906C117.74 140.534 117.635 140.245 117.425 140.041C117.218 139.836 116.908 139.734 116.496 139.734C116.067 139.734 115.729 139.829 115.482 140.019C115.238 140.207 115.069 140.416 114.975 140.646L113.777 140.373C113.919 139.975 114.127 139.654 114.4 139.41C114.675 139.163 114.992 138.984 115.35 138.873C115.708 138.76 116.084 138.703 116.479 138.703C116.74 138.703 117.017 138.734 117.31 138.796C117.605 138.856 117.881 138.967 118.137 139.129C118.395 139.291 118.607 139.522 118.772 139.823C118.936 140.122 119.019 140.51 119.019 140.987V145.333H117.775V144.438H117.723C117.641 144.603 117.517 144.765 117.353 144.924C117.188 145.083 116.976 145.215 116.718 145.321C116.459 145.426 116.15 145.478 115.789 145.478ZM116.066 144.456C116.418 144.456 116.719 144.386 116.969 144.247C117.222 144.108 117.414 143.926 117.544 143.701C117.678 143.474 117.745 143.231 117.745 142.973V142.129C117.699 142.174 117.611 142.217 117.48 142.257C117.353 142.294 117.206 142.326 117.042 142.355C116.877 142.38 116.716 142.404 116.56 142.427C116.404 142.447 116.273 142.464 116.168 142.478C115.921 142.51 115.695 142.562 115.49 142.636C115.289 142.71 115.127 142.816 115.005 142.956C114.885 143.092 114.826 143.274 114.826 143.501C114.826 143.816 114.942 144.055 115.175 144.217C115.408 144.376 115.705 144.456 116.066 144.456ZM120.716 145.333V138.788H121.99V145.333H120.716ZM121.359 137.778C121.138 137.778 120.947 137.704 120.788 137.556C120.632 137.406 120.554 137.227 120.554 137.019C120.554 136.809 120.632 136.63 120.788 136.483C120.947 136.332 121.138 136.257 121.359 136.257C121.581 136.257 121.77 136.332 121.926 136.483C122.085 136.63 122.165 136.809 122.165 137.019C122.165 137.227 122.085 137.406 121.926 137.556C121.77 137.704 121.581 137.778 121.359 137.778ZM124.978 136.606V145.333H123.704V136.606H124.978ZM128.597 145.478C128.183 145.478 127.808 145.402 127.472 145.248C127.137 145.092 126.871 144.866 126.675 144.571C126.482 144.275 126.386 143.913 126.386 143.484C126.386 143.115 126.457 142.811 126.599 142.572C126.741 142.333 126.933 142.144 127.174 142.005C127.415 141.866 127.685 141.761 127.984 141.69C128.282 141.619 128.586 141.565 128.896 141.528C129.288 141.483 129.606 141.446 129.85 141.417C130.094 141.386 130.272 141.336 130.383 141.268C130.494 141.2 130.549 141.089 130.549 140.936V140.906C130.549 140.534 130.444 140.245 130.234 140.041C130.026 139.836 129.717 139.734 129.305 139.734C128.876 139.734 128.538 139.829 128.29 140.019C128.046 140.207 127.877 140.416 127.783 140.646L126.586 140.373C126.728 139.975 126.935 139.654 127.208 139.41C127.484 139.163 127.8 138.984 128.158 138.873C128.516 138.76 128.893 138.703 129.288 138.703C129.549 138.703 129.826 138.734 130.119 138.796C130.414 138.856 130.69 138.967 130.945 139.129C131.204 139.291 131.415 139.522 131.58 139.823C131.745 140.122 131.827 140.51 131.827 140.987V145.333H130.583V144.438H130.532C130.45 144.603 130.326 144.765 130.161 144.924C129.996 145.083 129.785 145.215 129.526 145.321C129.268 145.426 128.958 145.478 128.597 145.478ZM128.874 144.456C129.227 144.456 129.528 144.386 129.778 144.247C130.031 144.108 130.222 143.926 130.353 143.701C130.487 143.474 130.553 143.231 130.553 142.973V142.129C130.508 142.174 130.42 142.217 130.289 142.257C130.161 142.294 130.015 142.326 129.85 142.355C129.685 142.38 129.525 142.404 129.369 142.427C129.212 142.447 129.082 142.464 128.977 142.478C128.729 142.51 128.504 142.562 128.299 142.636C128.097 142.71 127.935 142.816 127.813 142.956C127.694 143.092 127.634 143.274 127.634 143.501C127.634 143.816 127.751 144.055 127.984 144.217C128.217 144.376 128.513 144.456 128.874 144.456ZM133.627 145.333V136.606H134.901V139.849H134.978C135.051 139.713 135.158 139.555 135.297 139.376C135.436 139.197 135.63 139.041 135.877 138.907C136.124 138.771 136.451 138.703 136.857 138.703C137.385 138.703 137.857 138.836 138.272 139.103C138.686 139.37 139.012 139.755 139.248 140.258C139.486 140.761 139.605 141.366 139.605 142.073C139.605 142.781 139.488 143.387 139.252 143.893C139.016 144.396 138.692 144.784 138.28 145.056C137.868 145.326 137.398 145.461 136.87 145.461C136.472 145.461 136.147 145.394 135.894 145.261C135.644 145.127 135.448 144.971 135.306 144.792C135.164 144.613 135.054 144.454 134.978 144.315H134.871V145.333H133.627ZM134.875 142.061C134.875 142.521 134.942 142.924 135.076 143.271C135.209 143.617 135.402 143.889 135.655 144.085C135.908 144.278 136.218 144.375 136.584 144.375C136.965 144.375 137.283 144.274 137.539 144.072C137.794 143.867 137.988 143.59 138.118 143.241C138.252 142.892 138.319 142.498 138.319 142.061C138.319 141.629 138.253 141.241 138.123 140.897C137.995 140.554 137.801 140.282 137.543 140.083C137.287 139.885 136.968 139.785 136.584 139.785C136.215 139.785 135.902 139.88 135.647 140.071C135.394 140.261 135.202 140.527 135.071 140.867C134.941 141.208 134.875 141.606 134.875 142.061ZM142.31 136.606V145.333H141.036V136.606H142.31ZM146.846 145.465C146.201 145.465 145.645 145.328 145.179 145.052C144.716 144.774 144.358 144.383 144.105 143.88C143.855 143.375 143.73 142.782 143.73 142.103C143.73 141.433 143.855 140.842 144.105 140.331C144.358 139.819 144.711 139.42 145.162 139.133C145.617 138.846 146.148 138.703 146.756 138.703C147.125 138.703 147.483 138.764 147.83 138.886C148.176 139.008 148.488 139.2 148.763 139.461C149.039 139.723 149.256 140.062 149.415 140.48C149.574 140.894 149.654 141.399 149.654 141.992V142.444H144.451V141.49H148.405C148.405 141.154 148.337 140.858 148.201 140.599C148.064 140.338 147.873 140.132 147.625 139.981C147.381 139.831 147.094 139.755 146.765 139.755C146.407 139.755 146.094 139.843 145.827 140.019C145.563 140.193 145.358 140.42 145.213 140.701C145.071 140.98 145 141.282 145 141.609V142.355C145 142.792 145.077 143.164 145.23 143.471C145.387 143.778 145.604 144.012 145.882 144.174C146.161 144.333 146.486 144.413 146.858 144.413C147.1 144.413 147.32 144.379 147.519 144.311C147.718 144.24 147.89 144.135 148.034 143.995C148.179 143.856 148.29 143.684 148.367 143.48L149.573 143.697C149.476 144.052 149.303 144.363 149.053 144.63C148.806 144.894 148.495 145.1 148.12 145.248C147.748 145.393 147.323 145.465 146.846 145.465Z" fill="#60686B"/>
</svg>
