<svg width="16" height="17" viewBox="0 0 16 17" fill="none" xmlns="http://www.w3.org/2000/svg">
<rect x="1" y="1.5" width="14" height="14" rx="1" fill="#949FA1"/>
<path d="M10 6.25928V5.5H14V6.25928H12.4504V10.5H11.5496V6.25928H10Z" fill="white"/>
<path d="M6 8C6 8.5244 5.91215 8.97354 5.73645 9.34743C5.56217 9.71974 5.32412 10.0049 5.02232 10.2029C4.72193 10.401 4.38115 10.5 4 10.5C3.61885 10.5 3.27736 10.401 2.97556 10.2029C2.67517 10.0033 2.43712 9.71736 2.26142 9.34506C2.08714 8.97117 2 8.52281 2 8C2 7.4756 2.08714 7.02725 2.26142 6.65494C2.43712 6.28105 2.67517 5.99509 2.97556 5.79705C3.27736 5.59902 3.61885 5.5 4 5.5C4.38115 5.5 4.72193 5.59902 5.02232 5.79705C5.32412 5.99509 5.56217 6.28105 5.73645 6.65494C5.91215 7.02725 6 7.4756 6 8ZM5.20723 8C5.20723 7.63086 5.15551 7.31955 5.05207 7.06606C4.95005 6.81099 4.80836 6.6185 4.62699 6.48859C4.44563 6.3571 4.23663 6.29135 4 6.29135C3.76337 6.29135 3.55437 6.3571 3.37301 6.48859C3.19164 6.6185 3.04924 6.81099 2.9458 7.06606C2.84378 7.31955 2.79277 7.63086 2.79277 8C2.79277 8.36914 2.84378 8.68124 2.9458 8.93631C3.04924 9.1898 3.19164 9.38229 3.37301 9.51378C3.55437 9.64369 3.76337 9.70865 4 9.70865C4.23663 9.70865 4.44563 9.64369 4.62699 9.51378C4.80836 9.38229 4.95005 9.1898 5.05207 8.93631C5.15551 8.68124 5.20723 8.36914 5.20723 8Z" fill="white"/>
<path d="M8 1.5L8 15.5" stroke="white"/>
</svg>
