<svg width="260" height="265" viewBox="0 0 260 265" fill="none" xmlns="http://www.w3.org/2000/svg">
<path fill-rule="evenodd" clip-rule="evenodd" d="M127.651 38.4046C166.512 38.0347 208.639 48.3331 222.437 84.8121C238.13 126.299 224.889 174.623 188.942 200.44C153.727 225.732 106.28 219.223 71.6853 193.082C38.9324 168.333 24.241 125.25 38.2382 86.565C51.0066 51.2762 90.2605 38.7604 127.651 38.4046Z" fill="#D5F1F8"/>
<path fill-rule="evenodd" clip-rule="evenodd" d="M63.4355 73.0392C38.8257 102.777 20.3985 141.712 39.8942 175.187C62.066 213.257 107.621 233.294 150.033 221.732C191.58 210.405 216.26 169.74 217.754 126.698C219.17 85.9474 195.14 47.6498 156.544 34.2297C121.337 21.9877 87.1145 44.4262 63.4355 73.0392Z" stroke="#7ACCE6"/>
<g filter="url(#filter0_i_517_1077)">
<rect x="124.951" y="161.395" width="13" height="6" fill="white"/>
</g>
<g filter="url(#filter1_d_517_1077)">
<g filter="url(#filter2_i_517_1077)">
<path d="M184.951 123.395C184.951 117.872 180.474 113.395 174.951 113.395H170.951V138.395H174.951C180.474 138.395 184.951 133.918 184.951 128.395V123.395Z" fill="#292561"/>
</g>
<path d="M129.951 69.395C129.951 68.8427 130.398 68.395 130.951 68.395C131.503 68.395 131.951 68.8427 131.951 69.395V93.395H129.951V69.395Z" fill="#292561"/>
<g filter="url(#filter3_ii_517_1077)">
<path d="M123.951 85.395C123.951 81.529 127.085 78.395 130.951 78.395C134.817 78.395 137.951 81.529 137.951 85.395V103.395H123.951V85.395Z" fill="#3CB5F2"/>
</g>
<g filter="url(#filter4_i_517_1077)">
<path d="M76.9507 123.395C76.9507 117.872 81.4279 113.395 86.9507 113.395H90.9507V138.395H86.9507C81.4279 138.395 76.9507 133.918 76.9507 128.395V123.395Z" fill="#292561"/>
</g>
<g filter="url(#filter5_i_517_1077)">
<rect x="81.9507" y="88.395" width="98" height="74" rx="37" fill="white"/>
</g>
<g filter="url(#filter6_ii_517_1077)">
<path d="M88.9507 127.39C88.9507 115.595 99.1052 106.362 110.847 107.48L115.781 107.95C125.871 108.911 136.03 108.911 146.12 107.95L151.055 107.48C162.796 106.362 172.951 115.595 172.951 127.39V134.209C172.951 144.52 165.112 153.142 154.847 154.119L150.861 154.499C137.617 155.76 124.284 155.76 111.041 154.499L107.055 154.119C96.7898 153.142 88.9507 144.52 88.9507 134.209V127.39Z" fill="#292561"/>
</g>
<path d="M88.9507 127.39C88.9507 115.595 99.1052 106.362 110.847 107.48L115.781 107.95C125.871 108.911 136.03 108.911 146.12 107.95L140.378 109.95C121.356 116.574 108.202 134.01 107.055 154.119C96.7898 153.142 88.9507 144.52 88.9507 134.209V127.39Z" fill="#AEA8FF" fill-opacity="0.12"/>
<rect x="111.68" y="125.395" width="8.89412" height="17" rx="4.44706" fill="url(#paint0_linear_517_1077)"/>
<rect x="142.315" y="125.395" width="8.89412" height="17" rx="4.44706" fill="url(#paint1_linear_517_1077)"/>
<path d="M136.386 144.395C136.386 145.721 135.865 146.993 134.939 147.931C134.012 148.868 132.755 149.395 131.445 149.395C130.134 149.395 128.878 148.868 127.951 147.931C127.024 146.993 126.504 145.721 126.504 144.395L136.386 144.395Z" fill="#3AC8FC"/>
<g filter="url(#filter7_i_517_1077)">
<circle cx="171.951" cy="179.395" r="9" fill="#292561"/>
</g>
<g filter="url(#filter8_i_517_1077)">
<circle cx="89.9507" cy="179.395" r="9" fill="#292561"/>
</g>
<g filter="url(#filter9_i_517_1077)">
<path d="M125.614 214.993C129.008 216.521 132.893 216.521 136.287 214.993L162.111 203.369C168.938 200.296 171.765 192.106 168.288 185.477L161.64 172.8C159.395 168.52 154.961 165.838 150.127 165.838H111.774C106.941 165.838 102.506 168.52 100.261 172.8L93.6135 185.477C90.1365 192.107 92.9636 200.296 99.7902 203.369L125.614 214.993Z" fill="white"/>
</g>
<rect x="128.951" y="185.395" width="4" height="17" rx="2" fill="url(#paint2_linear_517_1077)"/>
<rect x="127.451" y="177.895" width="7" height="27" rx="3.5" stroke="#6D7885"/>
<g filter="url(#filter10_i_517_1077)">
<path fill-rule="evenodd" clip-rule="evenodd" d="M175.598 176.132C179.61 174.28 184.363 176.031 186.214 180.043C188.84 185.732 192.226 199.776 184.931 212.804C182.772 216.659 177.897 218.034 174.042 215.875C170.187 213.717 168.812 208.841 170.971 204.986C174.875 198.014 173.061 189.725 171.687 186.748C169.835 182.736 171.587 177.983 175.598 176.132Z" fill="white"/>
</g>
<path fill-rule="evenodd" clip-rule="evenodd" d="M181.784 215.918C179.45 217.19 176.533 217.27 174.042 215.875C171.607 214.512 170.161 212.065 169.971 209.476C171.24 208.191 173.002 207.395 174.95 207.395C178.816 207.395 181.95 210.529 181.95 214.395C181.95 214.918 181.893 215.428 181.784 215.918Z" fill="url(#paint3_linear_517_1077)"/>
<g filter="url(#filter11_i_517_1077)">
<path fill-rule="evenodd" clip-rule="evenodd" d="M88.9845 177.897C86.9821 181.836 82.1661 183.405 78.2276 181.403C72.642 178.563 61.2843 169.635 58.9418 154.889C58.2487 150.525 61.2241 146.426 65.5877 145.733C69.9513 145.039 74.0505 148.015 74.7437 152.378C75.9973 160.27 82.5559 165.654 85.479 167.14C89.4175 169.143 90.9869 173.959 88.9845 177.897Z" fill="white"/>
</g>
<path fill-rule="evenodd" clip-rule="evenodd" d="M59.2979 150.969C60.2451 148.294 62.5885 146.209 65.5877 145.732C68.3788 145.289 71.0617 146.347 72.8143 148.308C72.8428 150.41 71.9283 152.501 70.1507 153.904C67.1157 156.298 62.7141 155.779 60.3193 152.744C59.8829 152.191 59.5432 151.593 59.2979 150.969Z" fill="url(#paint4_linear_517_1077)"/>
<circle cx="54.9176" cy="130.638" r="10.5" transform="rotate(25.2505 54.9176 130.638)" fill="white" stroke="#292561" stroke-width="4"/>
<path d="M60.7371 140.569L68.6558 154.255" stroke="#292561" stroke-width="4" stroke-linecap="round"/>
</g>
<defs>
<filter id="filter0_i_517_1077" x="124.951" y="161.395" width="13" height="10" filterUnits="userSpaceOnUse" color-interpolation-filters="sRGB">
<feFlood flood-opacity="0" result="BackgroundImageFix"/>
<feBlend mode="normal" in="SourceGraphic" in2="BackgroundImageFix" result="shape"/>
<feColorMatrix in="SourceAlpha" type="matrix" values="0 0 0 0 0 0 0 0 0 0 0 0 0 0 0 0 0 0 127 0" result="hardAlpha"/>
<feOffset dy="4"/>
<feGaussianBlur stdDeviation="2"/>
<feComposite in2="hardAlpha" operator="arithmetic" k2="-1" k3="1"/>
<feColorMatrix type="matrix" values="0 0 0 0 0.427451 0 0 0 0 0.470588 0 0 0 0 0.521569 0 0 0 0.2 0"/>
<feBlend mode="normal" in2="shape" result="effect1_innerShadow_517_1077"/>
</filter>
<filter id="filter1_d_517_1077" x="2.41467" y="28.395" width="234.919" height="236.502" filterUnits="userSpaceOnUse" color-interpolation-filters="sRGB">
<feFlood flood-opacity="0" result="BackgroundImageFix"/>
<feColorMatrix in="SourceAlpha" type="matrix" values="0 0 0 0 0 0 0 0 0 0 0 0 0 0 0 0 0 0 127 0" result="hardAlpha"/>
<feOffset dx="4" dy="4"/>
<feGaussianBlur stdDeviation="22"/>
<feComposite in2="hardAlpha" operator="out"/>
<feColorMatrix type="matrix" values="0 0 0 0 0.150368 0 0 0 0 0.334888 0 0 0 0 0.611667 0 0 0 0.4 0"/>
<feBlend mode="normal" in2="BackgroundImageFix" result="effect1_dropShadow_517_1077"/>
<feBlend mode="normal" in="SourceGraphic" in2="effect1_dropShadow_517_1077" result="shape"/>
</filter>
<filter id="filter2_i_517_1077" x="170.951" y="113.395" width="14" height="29" filterUnits="userSpaceOnUse" color-interpolation-filters="sRGB">
<feFlood flood-opacity="0" result="BackgroundImageFix"/>
<feBlend mode="normal" in="SourceGraphic" in2="BackgroundImageFix" result="shape"/>
<feColorMatrix in="SourceAlpha" type="matrix" values="0 0 0 0 0 0 0 0 0 0 0 0 0 0 0 0 0 0 127 0" result="hardAlpha"/>
<feOffset dy="4"/>
<feGaussianBlur stdDeviation="8"/>
<feComposite in2="hardAlpha" operator="arithmetic" k2="-1" k3="1"/>
<feColorMatrix type="matrix" values="0 0 0 0 0.45098 0 0 0 0 0.423529 0 0 0 0 0.827451 0 0 0 0.5 0"/>
<feBlend mode="normal" in2="shape" result="effect1_innerShadow_517_1077"/>
</filter>
<filter id="filter3_ii_517_1077" x="121.951" y="76.395" width="18" height="29" filterUnits="userSpaceOnUse" color-interpolation-filters="sRGB">
<feFlood flood-opacity="0" result="BackgroundImageFix"/>
<feBlend mode="normal" in="SourceGraphic" in2="BackgroundImageFix" result="shape"/>
<feColorMatrix in="SourceAlpha" type="matrix" values="0 0 0 0 0 0 0 0 0 0 0 0 0 0 0 0 0 0 127 0" result="hardAlpha"/>
<feOffset dx="2" dy="2"/>
<feGaussianBlur stdDeviation="2.5"/>
<feComposite in2="hardAlpha" operator="arithmetic" k2="-1" k3="1"/>
<feColorMatrix type="matrix" values="0 0 0 0 0.164706 0 0 0 0 0.14902 0 0 0 0 0.388235 0 0 0 0.3 0"/>
<feBlend mode="normal" in2="shape" result="effect1_innerShadow_517_1077"/>
<feColorMatrix in="SourceAlpha" type="matrix" values="0 0 0 0 0 0 0 0 0 0 0 0 0 0 0 0 0 0 127 0" result="hardAlpha"/>
<feOffset dx="-2" dy="-2"/>
<feGaussianBlur stdDeviation="2.5"/>
<feComposite in2="hardAlpha" operator="arithmetic" k2="-1" k3="1"/>
<feColorMatrix type="matrix" values="0 0 0 0 0.671094 0 0 0 0 0.918191 0 0 0 0 1 0 0 0 1 0"/>
<feBlend mode="normal" in2="effect1_innerShadow_517_1077" result="effect2_innerShadow_517_1077"/>
</filter>
<filter id="filter4_i_517_1077" x="76.9507" y="113.395" width="14" height="29" filterUnits="userSpaceOnUse" color-interpolation-filters="sRGB">
<feFlood flood-opacity="0" result="BackgroundImageFix"/>
<feBlend mode="normal" in="SourceGraphic" in2="BackgroundImageFix" result="shape"/>
<feColorMatrix in="SourceAlpha" type="matrix" values="0 0 0 0 0 0 0 0 0 0 0 0 0 0 0 0 0 0 127 0" result="hardAlpha"/>
<feOffset dy="4"/>
<feGaussianBlur stdDeviation="8"/>
<feComposite in2="hardAlpha" operator="arithmetic" k2="-1" k3="1"/>
<feColorMatrix type="matrix" values="0 0 0 0 0.45098 0 0 0 0 0.423529 0 0 0 0 0.827451 0 0 0 0.5 0"/>
<feBlend mode="normal" in2="shape" result="effect1_innerShadow_517_1077"/>
</filter>
<filter id="filter5_i_517_1077" x="81.9507" y="88.395" width="98" height="78" filterUnits="userSpaceOnUse" color-interpolation-filters="sRGB">
<feFlood flood-opacity="0" result="BackgroundImageFix"/>
<feBlend mode="normal" in="SourceGraphic" in2="BackgroundImageFix" result="shape"/>
<feColorMatrix in="SourceAlpha" type="matrix" values="0 0 0 0 0 0 0 0 0 0 0 0 0 0 0 0 0 0 127 0" result="hardAlpha"/>
<feOffset dy="4"/>
<feGaussianBlur stdDeviation="4.5"/>
<feComposite in2="hardAlpha" operator="arithmetic" k2="-1" k3="1"/>
<feColorMatrix type="matrix" values="0 0 0 0 0.0901961 0 0 0 0 0.0470588 0 0 0 0 0.341176 0 0 0 0.25 0"/>
<feBlend mode="normal" in2="shape" result="effect1_innerShadow_517_1077"/>
</filter>
<filter id="filter6_ii_517_1077" x="84.9507" y="103.388" width="92" height="56.0564" filterUnits="userSpaceOnUse" color-interpolation-filters="sRGB">
<feFlood flood-opacity="0" result="BackgroundImageFix"/>
<feBlend mode="normal" in="SourceGraphic" in2="BackgroundImageFix" result="shape"/>
<feColorMatrix in="SourceAlpha" type="matrix" values="0 0 0 0 0 0 0 0 0 0 0 0 0 0 0 0 0 0 127 0" result="hardAlpha"/>
<feOffset dx="4" dy="4"/>
<feGaussianBlur stdDeviation="6.5"/>
<feComposite in2="hardAlpha" operator="arithmetic" k2="-1" k3="1"/>
<feColorMatrix type="matrix" values="0 0 0 0 0.508203 0 0 0 0 0.479385 0 0 0 0 0.911667 0 0 0 0.7 0"/>
<feBlend mode="normal" in2="shape" result="effect1_innerShadow_517_1077"/>
<feColorMatrix in="SourceAlpha" type="matrix" values="0 0 0 0 0 0 0 0 0 0 0 0 0 0 0 0 0 0 127 0" result="hardAlpha"/>
<feOffset dx="-4" dy="-4"/>
<feGaussianBlur stdDeviation="8"/>
<feComposite in2="hardAlpha" operator="arithmetic" k2="-1" k3="1"/>
<feColorMatrix type="matrix" values="0 0 0 0 0 0 0 0 0 0 0 0 0 0 0 0 0 0 0.3 0"/>
<feBlend mode="normal" in2="effect1_innerShadow_517_1077" result="effect2_innerShadow_517_1077"/>
</filter>
<filter id="filter7_i_517_1077" x="162.951" y="170.395" width="20" height="20" filterUnits="userSpaceOnUse" color-interpolation-filters="sRGB">
<feFlood flood-opacity="0" result="BackgroundImageFix"/>
<feBlend mode="normal" in="SourceGraphic" in2="BackgroundImageFix" result="shape"/>
<feColorMatrix in="SourceAlpha" type="matrix" values="0 0 0 0 0 0 0 0 0 0 0 0 0 0 0 0 0 0 127 0" result="hardAlpha"/>
<feOffset dx="2" dy="2"/>
<feGaussianBlur stdDeviation="3"/>
<feComposite in2="hardAlpha" operator="arithmetic" k2="-1" k3="1"/>
<feColorMatrix type="matrix" values="0 0 0 0 0.509804 0 0 0 0 0.478431 0 0 0 0 0.909804 0 0 0 0.25 0"/>
<feBlend mode="normal" in2="shape" result="effect1_innerShadow_517_1077"/>
</filter>
<filter id="filter8_i_517_1077" x="80.9507" y="170.395" width="20" height="20" filterUnits="userSpaceOnUse" color-interpolation-filters="sRGB">
<feFlood flood-opacity="0" result="BackgroundImageFix"/>
<feBlend mode="normal" in="SourceGraphic" in2="BackgroundImageFix" result="shape"/>
<feColorMatrix in="SourceAlpha" type="matrix" values="0 0 0 0 0 0 0 0 0 0 0 0 0 0 0 0 0 0 127 0" result="hardAlpha"/>
<feOffset dx="2" dy="2"/>
<feGaussianBlur stdDeviation="3"/>
<feComposite in2="hardAlpha" operator="arithmetic" k2="-1" k3="1"/>
<feColorMatrix type="matrix" values="0 0 0 0 0.509804 0 0 0 0 0.478431 0 0 0 0 0.909804 0 0 0 0.25 0"/>
<feBlend mode="normal" in2="shape" result="effect1_innerShadow_517_1077"/>
</filter>
<filter id="filter9_i_517_1077" x="92.1228" y="165.838" width="77.6556" height="54.3005" filterUnits="userSpaceOnUse" color-interpolation-filters="sRGB">
<feFlood flood-opacity="0" result="BackgroundImageFix"/>
<feBlend mode="normal" in="SourceGraphic" in2="BackgroundImageFix" result="shape"/>
<feColorMatrix in="SourceAlpha" type="matrix" values="0 0 0 0 0 0 0 0 0 0 0 0 0 0 0 0 0 0 127 0" result="hardAlpha"/>
<feOffset dy="4"/>
<feGaussianBlur stdDeviation="5"/>
<feComposite in2="hardAlpha" operator="arithmetic" k2="-1" k3="1"/>
<feColorMatrix type="matrix" values="0 0 0 0 0.0887251 0 0 0 0 0.0475486 0 0 0 0 0.341667 0 0 0 0.25 0"/>
<feBlend mode="normal" in2="shape" result="effect1_innerShadow_517_1077"/>
</filter>
<filter id="filter10_i_517_1077" x="169.949" y="175.393" width="21.384" height="45.5034" filterUnits="userSpaceOnUse" color-interpolation-filters="sRGB">
<feFlood flood-opacity="0" result="BackgroundImageFix"/>
<feBlend mode="normal" in="SourceGraphic" in2="BackgroundImageFix" result="shape"/>
<feColorMatrix in="SourceAlpha" type="matrix" values="0 0 0 0 0 0 0 0 0 0 0 0 0 0 0 0 0 0 127 0" result="hardAlpha"/>
<feOffset dx="2" dy="4"/>
<feGaussianBlur stdDeviation="3.5"/>
<feComposite in2="hardAlpha" operator="arithmetic" k2="-1" k3="1"/>
<feColorMatrix type="matrix" values="0 0 0 0 0.0901961 0 0 0 0 0.0470588 0 0 0 0 0.341176 0 0 0 0.2 0"/>
<feBlend mode="normal" in2="shape" result="effect1_innerShadow_517_1077"/>
</filter>
<filter id="filter11_i_517_1077" x="58.8416" y="145.632" width="33.0134" height="40.6411" filterUnits="userSpaceOnUse" color-interpolation-filters="sRGB">
<feFlood flood-opacity="0" result="BackgroundImageFix"/>
<feBlend mode="normal" in="SourceGraphic" in2="BackgroundImageFix" result="shape"/>
<feColorMatrix in="SourceAlpha" type="matrix" values="0 0 0 0 0 0 0 0 0 0 0 0 0 0 0 0 0 0 127 0" result="hardAlpha"/>
<feOffset dx="2" dy="4"/>
<feGaussianBlur stdDeviation="3.5"/>
<feComposite in2="hardAlpha" operator="arithmetic" k2="-1" k3="1"/>
<feColorMatrix type="matrix" values="0 0 0 0 0.0901961 0 0 0 0 0.0470588 0 0 0 0 0.341176 0 0 0 0.2 0"/>
<feBlend mode="normal" in2="shape" result="effect1_innerShadow_517_1077"/>
</filter>
<linearGradient id="paint0_linear_517_1077" x1="116.127" y1="125.395" x2="116.127" y2="142.395" gradientUnits="userSpaceOnUse">
<stop stop-color="#39CFFF"/>
<stop offset="1" stop-color="#4C43BC"/>
</linearGradient>
<linearGradient id="paint1_linear_517_1077" x1="146.762" y1="125.395" x2="146.762" y2="142.395" gradientUnits="userSpaceOnUse">
<stop stop-color="#39CFFF"/>
<stop offset="1" stop-color="#4C43BC"/>
</linearGradient>
<linearGradient id="paint2_linear_517_1077" x1="130.951" y1="185.395" x2="130.951" y2="202.395" gradientUnits="userSpaceOnUse">
<stop stop-color="#39CFFF"/>
<stop offset="1" stop-color="#4C43BC"/>
</linearGradient>
<linearGradient id="paint3_linear_517_1077" x1="175.45" y1="205.395" x2="175.45" y2="216.897" gradientUnits="userSpaceOnUse">
<stop stop-color="#39CFFF"/>
<stop offset="1" stop-color="#4C43BC"/>
</linearGradient>
<linearGradient id="paint4_linear_517_1077" x1="70.9739" y1="154.832" x2="63.8495" y2="145.803" gradientUnits="userSpaceOnUse">
<stop stop-color="#39CFFF"/>
<stop offset="1" stop-color="#4C43BC"/>
</linearGradient>
</defs>
</svg>
