<svg width="84" height="44" viewBox="0 0 84 44" fill="none" xmlns="http://www.w3.org/2000/svg">
<g clip-path="url(#clip0_1_550)">
<path fill-rule="evenodd" clip-rule="evenodd" d="M21.9836 2.44466C11.5623 2.44466 3.04641 10.6088 2.47367 20.8946L0.00458908 21.5546C0.241632 9.60991 9.99119 0 21.9836 0C33.0608 0 42.2246 8.1992 43.7454 18.8641L41.3659 19.5001C40.1395 9.88053 31.9293 2.44466 21.9836 2.44466ZM41.5227 22.2394C41.3945 32.9292 32.6957 41.5554 21.9836 41.5554C11.4328 41.5554 2.83506 33.187 2.45602 22.7209L0.0418768 23.3662C0.74683 34.8801 10.301 44 21.9836 44C34.1246 44 43.967 34.1502 43.967 22C43.967 21.8621 43.9657 21.7244 43.9633 21.5871L41.5227 22.2394Z" fill="#4EB5D7"/>
<path fill-rule="evenodd" clip-rule="evenodd" d="M19.6067 7.65898C20.2789 7.38886 20.7535 6.73054 20.7535 5.96124C20.7535 4.95122 19.9354 4.13245 18.9262 4.13245C17.9169 4.13245 17.0987 4.95122 17.0987 5.96124C17.0987 6.52202 17.351 7.02386 17.7481 7.35934L17.4819 8.5443L14.6974 8.11988L12.1931 4.62445L10.666 5.72021L13.1276 9.1561L13.0285 9.75738L13.6295 9.85665L13.6316 9.85962L13.8386 9.89117L14.8584 10.0596L14.8605 10.0469L21.197 11.0127L23.5488 14.1883L21.2003 16.28H24.0268L25.4304 15.0298L27.6263 13.0831L34.2348 14.112L33.8701 16.28H35.7756L36.0915 14.4011L40.143 15.0319L40.8296 15.1512L40.4319 13.1738L27.9655 11.2327L27.9662 11.2285L26.1363 10.9263L25.9499 12.057L24.9595 12.935L22.2455 9.27037L19.3441 8.82813L19.6067 7.65898ZM31.6834 29.7H27.4072L33.6065 38.1154L35.1189 36.9996L30.4406 30.6491L31.6834 29.7ZM24.9129 29.7H15.6845L23.5275 30.983L26.295 34.6069L22.7519 36.4888C22.4866 36.3383 22.1797 36.2525 21.8528 36.2525C20.8436 36.2525 20.0254 37.0713 20.0254 38.0813C20.0254 39.0914 20.8436 39.91 21.8528 39.91C22.8476 39.91 23.6566 39.1147 23.6796 38.1249L27.4516 36.1216L30.4499 40.0481L31.943 38.9063L24.9129 29.7ZM14.7257 29.7H12.8088L11.6605 35.4492L16.1529 36.1746L15.3968 40.7154L17.2503 41.0245L18.3169 34.619L13.8856 33.9037L14.7257 29.7ZM6.4972 29.7H10.1495C10.1132 30.6781 9.30949 31.4598 8.32332 31.4598C7.33716 31.4598 6.53345 30.6781 6.4972 29.7ZM4.58049 16.28H6.85788L4.52865 12.8758L2.9782 13.9382L4.58049 16.28ZM11.9506 16.28H13.8673L14.016 15.5403L11.8539 12.5653L11.7958 12.6076C11.9103 12.3686 11.9744 12.1008 11.9744 11.818C11.9744 10.808 11.1563 9.98924 10.147 9.98924C9.13776 9.98924 8.3196 10.808 8.3196 11.818C8.3196 12.8281 9.13776 13.6468 10.147 13.6468C10.2294 13.6468 10.3105 13.6414 10.39 13.6308L10.3343 13.6714L12.0111 15.9787L11.9506 16.28ZM15.4891 16.28H17.4075L17.5325 15.6545L17.5742 15.4438C18.256 15.1783 18.7392 14.5151 18.7392 13.7389C18.7392 12.7289 17.9211 11.9101 16.9118 11.9101C15.9026 11.9101 15.0844 12.7289 15.0844 13.7389C15.0844 14.2931 15.3307 14.7897 15.7198 15.1251L15.4891 16.28ZM29.757 16.28C29.4316 15.9813 28.9979 15.7989 28.5217 15.7989C28.0453 15.7989 27.6116 15.9813 27.2865 16.28H29.757ZM24.7316 8.79788C25.2862 8.79788 25.7832 8.5506 26.1183 8.16016L33.4383 9.1955L33.8116 4.89356L31.9395 4.73087L31.7377 7.05581L26.435 6.30578C26.1697 5.62367 25.5071 5.14031 24.7316 5.14031C23.7223 5.14031 22.9043 5.95908 22.9043 6.96908C22.9043 7.9791 23.7223 8.79788 24.7316 8.79788ZM42.4352 20.4965C43.6474 20.4965 44.6301 19.5131 44.6301 18.3001C44.6301 17.087 43.6474 16.1036 42.4352 16.1036C41.2233 16.1036 40.2406 17.087 40.2406 18.3001C40.2406 19.5131 41.2233 20.4965 42.4352 20.4965Z" fill="#4EB5D7"/>
<path d="M10.6877 25.5145C10.6877 25.9655 10.5969 26.3694 10.4153 26.726C10.2336 27.0829 9.99148 27.3858 9.68877 27.6349C9.39281 27.8839 9.04973 28.076 8.65959 28.2104C8.26943 28.345 7.86584 28.4123 7.44879 28.4123C7.17299 28.4123 6.89721 28.3787 6.6214 28.3114C6.3456 28.2509 6.08327 28.1835 5.83437 28.1096C5.59223 28.0355 5.37024 27.9682 5.16843 27.9077C4.96664 27.8403 4.80184 27.8067 4.67402 27.8067C4.5933 27.8067 4.52267 27.8267 4.46213 27.8672C4.40831 27.9008 4.36122 27.9479 4.32088 28.0086C4.28725 28.0691 4.26034 28.1332 4.24016 28.2005C4.22671 28.2744 4.21325 28.345 4.1998 28.4123H3.92736V24.8479H4.1998C4.25361 25.2855 4.35786 25.6861 4.51258 26.0495C4.6673 26.4132 4.87247 26.726 5.12807 26.9887C5.38369 27.2446 5.68974 27.4465 6.04627 27.5946C6.4095 27.7358 6.81985 27.8067 7.27726 27.8067C7.52615 27.8067 7.77166 27.773 8.01383 27.7057C8.2627 27.6316 8.48133 27.5238 8.66968 27.3825C8.86474 27.2411 9.02283 27.0662 9.14391 26.8574C9.26499 26.642 9.32554 26.393 9.32554 26.1103C9.32554 25.8139 9.24481 25.5482 9.08337 25.3125C8.92865 25.0701 8.7235 24.8479 8.46788 24.6459C8.21225 24.4374 7.91965 24.242 7.59003 24.0603C7.26044 23.8718 6.92409 23.6834 6.58104 23.4949C6.24472 23.3064 5.91173 23.1077 5.58214 22.8991C5.25252 22.6904 4.95992 22.4616 4.70429 22.2125C4.44867 21.9567 4.24016 21.6773 4.07871 21.3744C3.92399 21.0647 3.84663 20.7147 3.84663 20.3242C3.84663 19.9001 3.92736 19.5198 4.0888 19.1832C4.25698 18.8466 4.47894 18.5639 4.75475 18.335C5.03053 18.0994 5.34669 17.921 5.7032 17.7998C6.06645 17.6786 6.4465 17.618 6.84339 17.618C7.07881 17.618 7.31089 17.6483 7.5396 17.7089C7.77502 17.7695 7.99701 17.8368 8.20553 17.9109C8.42079 17.9782 8.61587 18.0422 8.79077 18.1027C8.96565 18.1633 9.11028 18.1936 9.22463 18.1936C9.30536 18.1936 9.37263 18.1734 9.42644 18.133C9.48026 18.0926 9.52732 18.0455 9.56768 17.9917C9.60805 17.9311 9.63832 17.8671 9.6585 17.7998C9.6854 17.7325 9.70559 17.6719 9.71904 17.618H10.0117V21.1724H9.71904C9.68541 20.7685 9.59796 20.3882 9.45671 20.0314C9.31545 19.6679 9.12373 19.3549 8.88156 19.0923C8.64614 18.823 8.36025 18.611 8.02392 18.4562C7.68758 18.2946 7.3008 18.2138 6.86357 18.2138C6.63486 18.2138 6.41287 18.2508 6.19763 18.3249C5.98237 18.3989 5.78729 18.5066 5.61241 18.648C5.44423 18.7827 5.30633 18.9476 5.1987 19.1428C5.0978 19.3313 5.04735 19.5467 5.04735 19.789C5.04735 20.0718 5.12807 20.3276 5.28951 20.5565C5.45096 20.7853 5.66284 20.9974 5.92519 21.1926C6.19426 21.3878 6.49695 21.5763 6.8333 21.7581C7.16962 21.9331 7.5127 22.1148 7.86247 22.3034C8.21898 22.4851 8.56542 22.6802 8.90174 22.889C9.23809 23.0978 9.53741 23.3299 9.79976 23.5858C10.0688 23.8416 10.2841 24.1276 10.4455 24.444C10.607 24.7537 10.6877 25.1106 10.6877 25.5145Z" fill="#4EB5D7"/>
<path d="M21.3335 22.9495C21.3335 23.6834 21.2124 24.3802 20.9703 25.0397C20.7281 25.6995 20.385 26.2819 19.9411 26.7868C19.5038 27.2848 18.9724 27.6819 18.3468 27.9783C17.728 28.2678 17.0351 28.4123 16.2683 28.4123C15.5014 28.4123 14.8052 28.2678 14.1797 27.9783C13.5608 27.6888 13.0294 27.2983 12.5854 26.807C12.1482 26.3087 11.8119 25.7299 11.5764 25.0701C11.341 24.4103 11.2233 23.7103 11.2233 22.9698C11.2233 22.2226 11.3477 21.5258 11.5966 20.8796C11.8522 20.2266 12.2087 19.6611 12.6661 19.1832C13.1236 18.6985 13.6684 18.3181 14.3007 18.0422C14.933 17.7594 15.6293 17.618 16.3894 17.618C17.136 17.618 17.8121 17.7628 18.4175 18.0523C19.0229 18.335 19.5408 18.7221 19.9713 19.2135C20.4086 19.6982 20.7449 20.2636 20.9803 20.9099C21.2158 21.5561 21.3335 22.2361 21.3335 22.9495ZM19.598 23.0505C19.598 22.6736 19.5778 22.29 19.5375 21.8995C19.5038 21.509 19.4399 21.132 19.3458 20.7685C19.2516 20.405 19.1238 20.0651 18.9623 19.7487C18.8009 19.4323 18.5957 19.1563 18.3468 18.9206C18.098 18.685 17.7986 18.4999 17.4488 18.3653C17.1058 18.2239 16.6988 18.1532 16.2279 18.1532C15.7974 18.1532 15.4174 18.2239 15.0878 18.3653C14.7649 18.4999 14.4824 18.685 14.2402 18.9206C13.998 19.1563 13.7962 19.4323 13.6348 19.7487C13.4733 20.0651 13.3422 20.4016 13.2413 20.7584C13.1471 21.1085 13.0798 21.472 13.0395 21.849C12.9991 22.2191 12.9789 22.5793 12.9789 22.9295C12.9789 23.2727 12.9991 23.6328 13.0395 24.0099C13.0798 24.3868 13.1505 24.757 13.2514 25.1207C13.3523 25.4841 13.4834 25.8309 13.6449 26.1606C13.8063 26.4904 14.0081 26.7799 14.2503 27.029C14.4924 27.2782 14.7783 27.4767 15.1079 27.6247C15.4375 27.773 15.8176 27.8469 16.2481 27.8469C16.6988 27.8469 17.0923 27.7796 17.4286 27.645C17.7717 27.5103 18.0677 27.3286 18.3166 27.0998C18.5655 26.8642 18.7706 26.5914 18.9321 26.2819C19.1002 25.9655 19.2314 25.6322 19.3256 25.2822C19.4265 24.9253 19.4971 24.5586 19.5375 24.1815C19.5778 23.7978 19.598 23.4208 19.598 23.0505Z" fill="#4EB5D7"/>
<path d="M32.2013 18.1129C31.8918 18.1129 31.6396 18.1398 31.4444 18.1936C31.2494 18.2475 31.0982 18.3384 30.9905 18.4663C30.8827 18.5942 30.8089 18.7625 30.7684 18.9711C30.7282 19.1731 30.708 19.4222 30.708 19.7184V23.9191C30.708 24.6259 30.6407 25.2587 30.5062 25.8175C30.3784 26.3694 30.1597 26.8372 29.8504 27.2208C29.5477 27.6047 29.1405 27.9009 28.6294 28.1096C28.1181 28.3114 27.4826 28.4124 26.7224 28.4124C25.8815 28.4124 25.1954 28.3081 24.6641 28.0995C24.1393 27.8907 23.7289 27.5878 23.433 27.1907C23.1371 26.7868 22.9353 26.2953 22.8276 25.7165C22.7267 25.1306 22.6763 24.4642 22.6763 23.7171V19.6578C22.6763 19.3751 22.6629 19.1361 22.6359 18.9408C22.6091 18.7456 22.5484 18.5874 22.4543 18.4663C22.3668 18.3384 22.2323 18.2475 22.0507 18.1936C21.8758 18.1398 21.637 18.1129 21.3343 18.1129V17.8402H25.4814V18.1129C25.1853 18.1129 24.9498 18.1398 24.7751 18.1936C24.6001 18.2475 24.4656 18.3384 24.3715 18.4663C24.2772 18.5874 24.2134 18.7456 24.1798 18.9408C24.1527 19.1361 24.1393 19.3751 24.1393 19.6578V24.1714C24.1393 24.6495 24.1697 25.1071 24.2301 25.5447C24.2974 25.9756 24.4251 26.3558 24.6135 26.6858C24.8087 27.009 25.0811 27.2681 25.4308 27.4633C25.7874 27.6518 26.2515 27.746 26.8233 27.746C27.2873 27.746 27.7314 27.6721 28.1552 27.5238C28.5789 27.3757 28.9623 27.1401 29.3054 26.8171C29.4736 26.6623 29.6048 26.4603 29.6989 26.2113C29.793 25.9554 29.8638 25.6894 29.9108 25.4135C29.9579 25.1306 29.9849 24.8514 29.9915 24.5753C30.0049 24.2926 30.0118 24.0469 30.0118 23.8381V19.6578C30.0118 19.3347 29.9948 19.0755 29.9612 18.8803C29.9344 18.6783 29.8671 18.5201 29.7594 18.4057C29.6585 18.2912 29.5105 18.2138 29.3155 18.1734C29.1205 18.1331 28.8614 18.1129 28.5386 18.1129V17.8402H32.2013V18.1129Z" fill="#4EB5D7"/>
<path d="M39.8201 28.1398H31.8087V27.8469C32.0507 27.8469 32.2659 27.8335 32.4543 27.8065C32.6427 27.7728 32.7975 27.7123 32.9184 27.6247C33.0463 27.5306 33.1437 27.3992 33.211 27.2309C33.2783 27.0626 33.3119 26.8404 33.3119 26.5646V19.3952C33.3119 19.1259 33.2783 18.9071 33.211 18.7388C33.1437 18.5705 33.0463 18.4426 32.9184 18.3551C32.7975 18.2609 32.6427 18.1969 32.4543 18.1633C32.2659 18.1296 32.0507 18.1128 31.8087 18.1128V17.8199H36.2885V18.1128C36.0396 18.1128 35.8211 18.1296 35.6327 18.1633C35.4443 18.1969 35.2862 18.2609 35.1585 18.3551C35.0306 18.4426 34.9332 18.5705 34.8659 18.7388C34.7986 18.9071 34.765 19.1259 34.765 19.3952V26.191C34.765 26.4466 34.7852 26.6587 34.8255 26.827C34.8659 26.9887 34.9332 27.1198 35.0273 27.2208C35.1282 27.3152 35.2627 27.3825 35.4309 27.4228C35.5991 27.4564 35.811 27.4734 36.0666 27.4734H37.0957C37.5936 27.4734 38.0106 27.4463 38.347 27.3926C38.6833 27.3319 38.9724 27.2243 39.2147 27.0695C39.4635 26.9078 39.6822 26.6858 39.8704 26.4029C40.0588 26.1136 40.2505 25.7398 40.4457 25.2822L40.708 25.3224L39.8201 28.1398Z" fill="#4EB5D7"/>
<path d="M53.9041 25.514C53.4639 26.3051 52.9089 26.9271 52.239 27.3801C51.5755 27.8267 50.7844 28.0499 49.8657 28.0499C49.1384 28.0499 48.4813 27.9223 47.8944 27.6672C47.3074 27.412 46.8066 27.0611 46.3919 26.6145C45.9772 26.1679 45.6582 25.6416 45.4349 25.0355C45.2117 24.4294 45.1 23.7723 45.1 23.0641C45.1 22.3368 45.218 21.6574 45.4541 21.0258C45.6965 20.3878 46.0346 19.8328 46.4685 19.3607C46.9087 18.8822 47.4318 18.5058 48.0379 18.2314C48.6504 17.9571 49.3298 17.8199 50.0762 17.8199C50.3251 17.8199 50.5547 17.8391 50.7653 17.8774C50.9822 17.9093 51.1895 17.9539 51.3873 18.0113C51.5914 18.0688 51.7924 18.1389 51.9902 18.2219C52.188 18.2984 52.3953 18.3846 52.6122 18.4803C52.7079 18.4803 52.7908 18.4579 52.861 18.4133C52.9312 18.3686 52.9886 18.3144 53.0333 18.2506C53.0779 18.1868 53.113 18.1166 53.1385 18.04C53.1704 17.9571 53.196 17.8837 53.2151 17.8199H53.4735L53.684 21.1311H53.4735C53.3523 20.7228 53.196 20.3495 53.0046 20.0114C52.8196 19.6669 52.5931 19.3702 52.3251 19.1214C52.0636 18.8726 51.7573 18.678 51.4064 18.5377C51.0555 18.3973 50.6536 18.3271 50.2007 18.3271C49.7541 18.3271 49.3585 18.3941 49.014 18.5281C48.6759 18.6557 48.376 18.8343 48.1145 19.064C47.8593 19.2937 47.6424 19.5616 47.4637 19.8679C47.2915 20.1741 47.1511 20.5058 47.0427 20.8631C46.9406 21.214 46.864 21.5808 46.813 21.9636C46.7683 22.34 46.746 22.7132 46.746 23.0833C46.746 23.6638 46.8162 24.2157 46.9565 24.7388C47.0969 25.262 47.3138 25.7213 47.6073 26.1169C47.9071 26.5124 48.2867 26.825 48.7461 27.0547C49.2118 27.2844 49.7668 27.3992 50.4112 27.3992C50.8195 27.3992 51.1768 27.3514 51.483 27.2557C51.7956 27.16 52.0763 27.026 52.3251 26.8537C52.5803 26.6751 52.8164 26.4614 53.0333 26.2126C53.2502 25.9574 53.4671 25.6735 53.684 25.3609L53.9041 25.514Z" fill="#4EB5D7"/>
<path d="M60.8758 27.8107V27.5332C60.9843 27.5332 61.0959 27.5268 61.2108 27.514C61.3256 27.4949 61.4309 27.463 61.5266 27.4183C61.6223 27.3737 61.702 27.3131 61.7658 27.2365C61.8296 27.1536 61.8615 27.0451 61.8615 26.9112C61.8615 26.7836 61.8232 26.6049 61.7467 26.3752C61.6701 26.1456 61.584 25.9095 61.4883 25.6671C61.3926 25.4247 61.2969 25.1982 61.2012 24.9876C61.1055 24.7771 61.0385 24.6272 61.0002 24.5379H57.2106C57.1851 24.5889 57.1437 24.675 57.0862 24.7963C57.0352 24.9111 56.9746 25.0451 56.9044 25.1982C56.8342 25.3449 56.7641 25.5012 56.6939 25.6671C56.6237 25.833 56.5567 25.9957 56.4929 26.1551C56.4355 26.3146 56.3876 26.4614 56.3494 26.5954C56.3111 26.7293 56.292 26.8346 56.292 26.9112C56.292 27.0387 56.3334 27.144 56.4164 27.227C56.4993 27.3035 56.6014 27.3641 56.7226 27.4088C56.8438 27.4534 56.9682 27.4853 57.0958 27.5045C57.2234 27.5172 57.335 27.5268 57.4307 27.5332V27.8107H54.3493V27.5332C54.579 27.5268 54.7767 27.4726 54.9426 27.3705C55.1085 27.2684 55.252 27.1376 55.3733 26.9781C55.5009 26.8186 55.6093 26.6432 55.6986 26.4518C55.7879 26.254 55.8741 26.0595 55.957 25.8681L59.4117 17.8199H59.6605L63.0577 25.9255C63.1534 26.1488 63.2427 26.3561 63.3257 26.5475C63.415 26.7325 63.5203 26.8984 63.6415 27.0451C63.7627 27.1855 63.9094 27.3003 64.0817 27.3896C64.2539 27.4726 64.474 27.5204 64.742 27.5332V27.8107H60.8758ZM59.1341 20.0305L57.4307 24.0115H60.7993L59.1341 20.0305Z" fill="#4EB5D7"/>
<path d="M72.0295 27.8107L68.7184 23.246C68.6099 23.2587 68.4951 23.2651 68.3739 23.2651C68.259 23.2651 68.141 23.2651 68.0198 23.2651C67.9624 23.2651 67.905 23.2651 67.8475 23.2651C67.7901 23.2587 67.7327 23.2523 67.6753 23.246V26.0882C67.6753 26.388 67.6912 26.6336 67.7231 26.825C67.7614 27.01 67.8316 27.1568 67.9337 27.2652C68.0357 27.3673 68.1793 27.4375 68.3643 27.4758C68.5557 27.514 68.8045 27.5332 69.1107 27.5332V27.8107H64.9192V27.5332C65.2318 27.5332 65.4806 27.514 65.6657 27.4758C65.8507 27.4375 65.991 27.3673 66.0867 27.2652C66.1824 27.1568 66.243 27.01 66.2685 26.825C66.2941 26.6336 66.3068 26.388 66.3068 26.0882V19.753C66.3068 19.4468 66.2941 19.2012 66.2685 19.0162C66.243 18.8248 66.1824 18.6748 66.0867 18.5664C65.991 18.4579 65.8507 18.3846 65.6657 18.3463C65.4806 18.308 65.2318 18.2889 64.9192 18.2889V18.0305H68.6035C68.8906 18.0305 69.1841 18.04 69.484 18.0592C69.7902 18.0783 70.0869 18.1198 70.3739 18.1836C70.6674 18.2474 70.9449 18.3367 71.2065 18.4515C71.4681 18.56 71.6978 18.7099 71.8955 18.9013C72.0933 19.0863 72.2496 19.3128 72.3644 19.5808C72.4793 19.8487 72.5367 20.1677 72.5367 20.5377C72.5367 20.9078 72.4761 21.2363 72.3549 21.5234C72.2337 21.8041 72.0646 22.0466 71.8477 22.2507C71.6371 22.4485 71.3851 22.6144 71.0917 22.7483C70.7982 22.8759 70.4824 22.9748 70.1443 23.045L72.1443 25.8681C72.323 26.1169 72.4952 26.337 72.6611 26.5284C72.827 26.7198 73.0056 26.8856 73.197 27.026C73.3884 27.1663 73.5989 27.278 73.8286 27.3609C74.0647 27.4439 74.339 27.5013 74.6516 27.5332V27.8107H72.0295ZM70.929 20.6526C70.929 20.34 70.8779 20.0561 70.7759 19.8009C70.6738 19.5457 70.5271 19.3288 70.3357 19.1501C70.1507 18.9651 69.9274 18.8248 69.6658 18.7291C69.4106 18.627 69.1267 18.576 68.8141 18.576C68.6291 18.576 68.4409 18.5887 68.2495 18.6142C68.0645 18.6397 67.8731 18.6685 67.6753 18.7004V22.777H68.0868C68.4377 22.777 68.7822 22.742 69.1203 22.6718C69.4584 22.6016 69.7615 22.4868 70.0294 22.3273C70.2974 22.1614 70.5143 21.9445 70.6802 21.6765C70.846 21.4022 70.929 21.0609 70.929 20.6526Z" fill="#4EB5D7"/>
<path d="M82.1592 27.8107H74.6374V27.5332C74.9437 27.5332 75.1861 27.514 75.3647 27.4758C75.5497 27.4375 75.6901 27.3673 75.7858 27.2652C75.8815 27.1568 75.9453 27.01 75.9772 26.825C76.0091 26.6336 76.025 26.388 76.025 26.0882V19.7147C76.025 19.4085 76.0123 19.1629 75.9868 18.9779C75.9612 18.7929 75.9006 18.6493 75.8049 18.5472C75.7092 18.4452 75.5689 18.3782 75.3839 18.3463C75.1989 18.308 74.95 18.2889 74.6374 18.2889V18.0305H82.1592L82.274 20.1645H82.0061C81.9232 19.8519 81.8434 19.5935 81.7668 19.3894C81.6967 19.1788 81.5978 19.013 81.4702 18.8918C81.349 18.7705 81.1799 18.6844 80.963 18.6334C80.7525 18.5823 80.4654 18.5568 80.1017 18.5568H77.4031V22.423H79.5563C79.8561 22.423 80.0953 22.4038 80.274 22.3655C80.459 22.3209 80.6057 22.2475 80.7142 22.1454C80.829 22.037 80.912 21.8934 80.963 21.7148C81.0204 21.5298 81.0683 21.2937 81.1065 21.0067H81.3745V24.423H81.1065C81.0683 24.1359 81.0204 23.8999 80.963 23.7149C80.912 23.5299 80.8322 23.3831 80.7238 23.2747C80.6153 23.1598 80.4686 23.0801 80.2836 23.0354C80.1049 22.9908 79.8625 22.9684 79.5563 22.9684H77.4031V26.1839C77.4031 26.3625 77.4063 26.522 77.4126 26.6623C77.4254 26.7963 77.4573 26.9112 77.5083 27.0068C77.5594 27.0962 77.6391 27.1663 77.7476 27.2174C77.8624 27.262 78.0219 27.2844 78.2261 27.2844H79.8721C80.2995 27.2844 80.6504 27.2493 80.9247 27.1791C81.1991 27.1089 81.4351 26.9973 81.6329 26.8442C81.837 26.691 82.0189 26.4933 82.1783 26.2508C82.3378 26.002 82.5165 25.7054 82.7142 25.3609H83.0205L82.1592 27.8107Z" fill="#4EB5D7"/>
</g>
<defs>
<clipPath id="clip0_1_550">
<rect width="83.05" height="44" fill="white"/>
</clipPath>
</defs>
</svg>
