<svg width="689" height="16" viewBox="0 0 689 16" fill="none" xmlns="http://www.w3.org/2000/svg">
<rect width="16" height="16" rx="4" fill="#969EB0"/>
<path d="M32.5398 8.13636C32.5398 9.06818 32.3693 9.86932 32.0284 10.5398C31.6875 11.2074 31.2202 11.7216 30.6264 12.0824C30.0355 12.4403 29.3636 12.6193 28.6108 12.6193C27.8551 12.6193 27.1804 12.4403 26.5866 12.0824C25.9957 11.7216 25.5298 11.206 25.1889 10.5355C24.848 9.86506 24.6776 9.06534 24.6776 8.13636C24.6776 7.20455 24.848 6.40483 25.1889 5.73722C25.5298 5.06676 25.9957 4.55256 26.5866 4.1946C27.1804 3.83381 27.8551 3.65341 28.6108 3.65341C29.3636 3.65341 30.0355 3.83381 30.6264 4.1946C31.2202 4.55256 31.6875 5.06676 32.0284 5.73722C32.3693 6.40483 32.5398 7.20455 32.5398 8.13636ZM31.2358 8.13636C31.2358 7.42614 31.1207 6.82812 30.8906 6.34233C30.6634 5.85369 30.3509 5.48438 29.9531 5.23438C29.5582 4.98153 29.1108 4.85511 28.6108 4.85511C28.108 4.85511 27.6591 4.98153 27.2642 5.23438C26.8693 5.48438 26.5568 5.85369 26.3267 6.34233C26.0994 6.82812 25.9858 7.42614 25.9858 8.13636C25.9858 8.84659 26.0994 9.44602 26.3267 9.93466C26.5568 10.4205 26.8693 10.7898 27.2642 11.0426C27.6591 11.2926 28.108 11.4176 28.6108 11.4176C29.1108 11.4176 29.5582 11.2926 29.9531 11.0426C30.3509 10.7898 30.6634 10.4205 30.8906 9.93466C31.1207 9.44602 31.2358 8.84659 31.2358 8.13636ZM36.8363 12.6321C36.2028 12.6321 35.6573 12.4886 35.1999 12.2017C34.7454 11.9119 34.396 11.5128 34.1516 11.0043C33.9073 10.4957 33.7852 9.91335 33.7852 9.2571C33.7852 8.59233 33.9102 8.00568 34.1602 7.49716C34.4102 6.9858 34.7624 6.58665 35.217 6.29972C35.6715 6.01278 36.207 5.86932 36.8235 5.86932C37.3207 5.86932 37.7638 5.96165 38.1531 6.14631C38.5423 6.32812 38.8562 6.58381 39.0948 6.91335C39.3363 7.2429 39.4798 7.62784 39.5252 8.06818H38.2852C38.217 7.76136 38.0607 7.49716 37.8164 7.27557C37.5749 7.05398 37.2511 6.94318 36.8448 6.94318C36.4897 6.94318 36.1786 7.03693 35.9116 7.22443C35.6474 7.40909 35.4414 7.6733 35.2937 8.01705C35.146 8.35795 35.0721 8.76136 35.0721 9.22727C35.0721 9.70455 35.1445 10.1165 35.2894 10.4631C35.4343 10.8097 35.6388 11.0781 35.9031 11.2685C36.1701 11.4588 36.484 11.554 36.8448 11.554C37.0863 11.554 37.305 11.5099 37.5011 11.4219C37.6999 11.331 37.8661 11.2017 37.9996 11.0341C38.136 10.8665 38.2312 10.6648 38.2852 10.429H39.5252C39.4798 10.8523 39.342 11.2301 39.1119 11.5625C38.8817 11.8949 38.5735 12.1562 38.1871 12.3466C37.8036 12.5369 37.3533 12.6321 36.8363 12.6321ZM43.6449 12.6321C43.0114 12.6321 42.4659 12.4886 42.0085 12.2017C41.554 11.9119 41.2045 11.5128 40.9602 11.0043C40.7159 10.4957 40.5938 9.91335 40.5938 9.2571C40.5938 8.59233 40.7188 8.00568 40.9688 7.49716C41.2188 6.9858 41.571 6.58665 42.0256 6.29972C42.4801 6.01278 43.0156 5.86932 43.6321 5.86932C44.1293 5.86932 44.5724 5.96165 44.9616 6.14631C45.3509 6.32812 45.6648 6.58381 45.9034 6.91335C46.1449 7.2429 46.2884 7.62784 46.3338 8.06818H45.0938C45.0256 7.76136 44.8693 7.49716 44.625 7.27557C44.3835 7.05398 44.0597 6.94318 43.6534 6.94318C43.2983 6.94318 42.9872 7.03693 42.7202 7.22443C42.456 7.40909 42.25 7.6733 42.1023 8.01705C41.9545 8.35795 41.8807 8.76136 41.8807 9.22727C41.8807 9.70455 41.9531 10.1165 42.098 10.4631C42.2429 10.8097 42.4474 11.0781 42.7116 11.2685C42.9787 11.4588 43.2926 11.554 43.6534 11.554C43.8949 11.554 44.1136 11.5099 44.3097 11.4219C44.5085 11.331 44.6747 11.2017 44.8082 11.0341C44.9446 10.8665 45.0398 10.6648 45.0938 10.429H46.3338C46.2884 10.8523 46.1506 11.2301 45.9205 11.5625C45.6903 11.8949 45.3821 12.1562 44.9957 12.3466C44.6122 12.5369 44.1619 12.6321 43.6449 12.6321ZM51.8427 9.78551V5.95455H53.1211V12.5H51.8683V11.3665H51.8001C51.6495 11.7159 51.408 12.0071 51.0756 12.2401C50.7461 12.4702 50.3356 12.5852 49.8441 12.5852C49.4237 12.5852 49.0515 12.4929 48.7276 12.3082C48.4066 12.1207 48.1538 11.8438 47.9691 11.4773C47.7873 11.1108 47.6964 10.6577 47.6964 10.1179V5.95455H48.9705V9.96449C48.9705 10.4105 49.0941 10.7656 49.3413 11.0298C49.5884 11.294 49.9094 11.4261 50.3043 11.4261C50.543 11.4261 50.7802 11.3665 51.016 11.2472C51.2546 11.1278 51.4521 10.9474 51.6083 10.706C51.7674 10.4645 51.8455 10.1577 51.8427 9.78551ZM54.8331 14.9545V5.95455H56.0774V7.01562H56.1839C56.2578 6.87926 56.3643 6.72159 56.5036 6.54261C56.6428 6.36364 56.8359 6.20739 57.0831 6.07386C57.3303 5.9375 57.657 5.86932 58.0632 5.86932C58.5916 5.86932 59.0632 6.00284 59.478 6.26989C59.8928 6.53693 60.218 6.92187 60.4538 7.42472C60.6925 7.92756 60.8118 8.53267 60.8118 9.24006C60.8118 9.94744 60.6939 10.554 60.4581 11.0597C60.2223 11.5625 59.8984 11.9503 59.4865 12.223C59.0746 12.4929 58.6044 12.6278 58.076 12.6278C57.6783 12.6278 57.353 12.5611 57.1001 12.4276C56.8501 12.294 56.6541 12.1378 56.5121 11.9588C56.37 11.7798 56.2607 11.6207 56.1839 11.4815H56.1072V14.9545H54.8331ZM56.0817 9.22727C56.0817 9.6875 56.1484 10.0909 56.282 10.4375C56.4155 10.7841 56.6087 11.0554 56.8615 11.2514C57.1143 11.4446 57.424 11.5412 57.7905 11.5412C58.1712 11.5412 58.4893 11.4403 58.745 11.2386C59.0007 11.0341 59.1939 10.7571 59.3246 10.4077C59.4581 10.0582 59.5249 9.66477 59.5249 9.22727C59.5249 8.79545 59.4595 8.40767 59.3288 8.06392C59.201 7.72017 59.0078 7.44886 58.7493 7.25C58.4936 7.05114 58.174 6.9517 57.7905 6.9517C57.4212 6.9517 57.1087 7.04687 56.853 7.23722C56.6001 7.42756 56.4084 7.69318 56.2777 8.03409C56.147 8.375 56.0817 8.77273 56.0817 9.22727ZM62.2393 12.5V5.95455H63.5135V12.5H62.2393ZM62.8828 4.9446C62.6612 4.9446 62.4709 4.87074 62.3118 4.72301C62.1555 4.57244 62.0774 4.39347 62.0774 4.18608C62.0774 3.97585 62.1555 3.79687 62.3118 3.64915C62.4709 3.49858 62.6612 3.4233 62.8828 3.4233C63.1044 3.4233 63.2933 3.49858 63.4496 3.64915C63.6087 3.79687 63.6882 3.97585 63.6882 4.18608C63.6882 4.39347 63.6087 4.57244 63.4496 4.72301C63.2933 4.87074 63.1044 4.9446 62.8828 4.9446ZM68.0487 12.6321C67.4038 12.6321 66.8484 12.4943 66.3825 12.2188C65.9194 11.9403 65.5614 11.5497 65.3086 11.0469C65.0586 10.5412 64.9336 9.94886 64.9336 9.26989C64.9336 8.59943 65.0586 8.00852 65.3086 7.49716C65.5614 6.9858 65.9137 6.58665 66.3654 6.29972C66.82 6.01278 67.3512 5.86932 67.9592 5.86932C68.3285 5.86932 68.6864 5.9304 69.033 6.05256C69.3796 6.17472 69.6907 6.36648 69.9663 6.62784C70.2418 6.8892 70.4592 7.22869 70.6183 7.64631C70.7773 8.06108 70.8569 8.56534 70.8569 9.15909V9.6108H65.6538V8.65625H69.6083C69.6083 8.32102 69.5401 8.02415 69.4038 7.76562C69.2674 7.50426 69.0756 7.2983 68.8285 7.14773C68.5842 6.99716 68.2972 6.92188 67.9677 6.92188C67.6097 6.92188 67.2972 7.00994 67.0302 7.18608C66.766 7.35937 66.5614 7.58665 66.4165 7.8679C66.2745 8.14631 66.2035 8.44886 66.2035 8.77557V9.52131C66.2035 9.95881 66.2802 10.331 66.4336 10.6378C66.5898 10.9446 66.8072 11.179 67.0856 11.3409C67.364 11.5 67.6893 11.5795 68.0614 11.5795C68.3029 11.5795 68.5231 11.5455 68.7219 11.4773C68.9208 11.4062 69.0927 11.3011 69.2376 11.1619C69.3825 11.0227 69.4933 10.8509 69.57 10.6463L70.7759 10.8636C70.6793 11.2187 70.506 11.5298 70.256 11.7969C70.0089 12.0611 69.6978 12.267 69.3228 12.4148C68.9506 12.5597 68.5259 12.6321 68.0487 12.6321ZM74.7209 12.6278C74.1925 12.6278 73.7209 12.4929 73.3061 12.223C72.8942 11.9503 72.5703 11.5625 72.3345 11.0597C72.1016 10.554 71.9851 9.94744 71.9851 9.24006C71.9851 8.53267 72.103 7.92756 72.3388 7.42472C72.5774 6.92187 72.9041 6.53693 73.3189 6.26989C73.7337 6.00284 74.2038 5.86932 74.7294 5.86932C75.1357 5.86932 75.4624 5.9375 75.7095 6.07386C75.9595 6.20739 76.1527 6.36364 76.2891 6.54261C76.4283 6.72159 76.5362 6.87926 76.6129 7.01562H76.6896V3.77273H77.9638V12.5H76.7195V11.4815H76.6129C76.5362 11.6207 76.4254 11.7798 76.2805 11.9588C76.1385 12.1378 75.9425 12.294 75.6925 12.4276C75.4425 12.5611 75.1186 12.6278 74.7209 12.6278ZM75.0021 11.5412C75.3686 11.5412 75.6783 11.4446 75.9311 11.2514C76.1868 11.0554 76.38 10.7841 76.5107 10.4375C76.6442 10.0909 76.7109 9.6875 76.7109 9.22727C76.7109 8.77273 76.6456 8.375 76.5149 8.03409C76.3842 7.69318 76.1925 7.42756 75.9396 7.23722C75.6868 7.04687 75.3743 6.9517 75.0021 6.9517C74.6186 6.9517 74.299 7.05114 74.0433 7.25C73.7876 7.44886 73.5945 7.72017 73.4638 8.06392C73.3359 8.40767 73.272 8.79545 73.272 9.22727C73.272 9.66477 73.3374 10.0582 73.468 10.4077C73.5987 10.7571 73.7919 11.0341 74.0476 11.2386C74.3061 11.4403 74.6243 11.5412 75.0021 11.5412ZM80.1531 8.87784C80.1531 7.80966 80.2937 6.8267 80.5749 5.92898C80.8562 5.03125 81.2667 4.20312 81.8065 3.4446H82.9741C82.7638 3.72585 82.5678 4.07102 82.386 4.48011C82.2042 4.8892 82.0451 5.33807 81.9087 5.8267C81.7724 6.3125 81.6658 6.81676 81.5891 7.33949C81.5124 7.85937 81.4741 8.37216 81.4741 8.87784C81.4741 9.55398 81.5408 10.2386 81.6744 10.9318C81.8079 11.625 81.9883 12.2685 82.2156 12.8622C82.4428 13.456 82.6957 13.9403 82.9741 14.3153H81.8065C81.2667 13.5568 80.8562 12.7287 80.5749 11.831C80.2937 10.9332 80.1531 9.94886 80.1531 8.87784ZM87.2493 12.6193C86.6385 12.6193 86.0987 12.5142 85.63 12.304C85.1641 12.0937 84.799 11.804 84.5348 11.4347C84.2706 11.0653 84.1399 10.6449 84.1428 10.1733C84.1399 9.80398 84.2152 9.46449 84.3686 9.15483C84.5249 8.84233 84.7365 8.58239 85.0036 8.375C85.2706 8.16477 85.5689 8.03125 85.8984 7.97443V7.9233C85.4638 7.81818 85.1158 7.58523 84.8544 7.22443C84.593 6.86364 84.4638 6.44886 84.4666 5.98011C84.4638 5.53409 84.5817 5.13636 84.8203 4.78693C85.0618 4.43466 85.3928 4.15767 85.8132 3.95597C86.2337 3.75426 86.7124 3.65341 87.2493 3.65341C87.7805 3.65341 88.255 3.75568 88.6726 3.96023C89.093 4.16193 89.424 4.43892 89.6655 4.79119C89.907 5.14062 90.0291 5.53693 90.032 5.98011C90.0291 6.44886 89.8956 6.86364 89.6314 7.22443C89.3672 7.58523 89.0234 7.81818 88.6001 7.9233V7.97443C88.9268 8.03125 89.2209 8.16477 89.4822 8.375C89.7464 8.58239 89.9567 8.84233 90.1129 9.15483C90.272 9.46449 90.353 9.80398 90.3558 10.1733C90.353 10.6449 90.2195 11.0653 89.9553 11.4347C89.6911 11.804 89.3246 12.0937 88.8558 12.304C88.3899 12.5142 87.8544 12.6193 87.2493 12.6193ZM87.2493 11.5412C87.6101 11.5412 87.9226 11.4815 88.1868 11.3622C88.451 11.2401 88.6555 11.071 88.8004 10.8551C88.9453 10.6364 89.0192 10.3807 89.022 10.0881C89.0192 9.78409 88.9396 9.51562 88.7834 9.28267C88.63 9.04972 88.4212 8.86648 88.157 8.73295C87.8928 8.59943 87.5902 8.53267 87.2493 8.53267C86.9055 8.53267 86.6001 8.59943 86.3331 8.73295C86.0661 8.86648 85.8558 9.04972 85.7024 9.28267C85.549 9.51562 85.4737 9.78409 85.4766 10.0881C85.4737 10.3807 85.5433 10.6364 85.6854 10.8551C85.8303 11.071 86.0362 11.2401 86.3033 11.3622C86.5703 11.4815 86.8857 11.5412 87.2493 11.5412ZM87.2493 7.48011C87.5391 7.48011 87.7962 7.42187 88.0206 7.3054C88.245 7.18892 88.4212 7.02699 88.549 6.8196C88.6797 6.61222 88.7464 6.36932 88.7493 6.09091C88.7464 5.81818 88.6811 5.57955 88.5533 5.375C88.4283 5.17045 88.2536 5.01278 88.0291 4.90199C87.8047 4.78835 87.5447 4.73153 87.2493 4.73153C86.9482 4.73153 86.6839 4.78835 86.4567 4.90199C86.2322 5.01278 86.0575 5.17045 85.9325 5.375C85.8075 5.57955 85.7464 5.81818 85.7493 6.09091C85.7464 6.36932 85.8089 6.61222 85.9368 6.8196C86.0646 7.02699 86.2408 7.18892 86.4652 7.3054C86.6925 7.42187 86.9538 7.48011 87.2493 7.48011ZM94.9208 12.6449C94.2475 12.642 93.6722 12.4645 93.195 12.1122C92.7177 11.7599 92.3526 11.2472 92.0998 10.5739C91.8469 9.90057 91.7205 9.08949 91.7205 8.14062C91.7205 7.1946 91.8469 6.38636 92.0998 5.71591C92.3555 5.04545 92.7219 4.53409 93.1992 4.18182C93.6793 3.82955 94.2532 3.65341 94.9208 3.65341C95.5884 3.65341 96.1609 3.83097 96.6381 4.18608C97.1154 4.53835 97.4805 5.04972 97.7333 5.72017C97.989 6.38778 98.1168 7.1946 98.1168 8.14062C98.1168 9.09233 97.9904 9.90483 97.7376 10.5781C97.4847 11.2486 97.1197 11.7614 96.6424 12.1165C96.1651 12.4688 95.5913 12.6449 94.9208 12.6449ZM94.9208 11.5071C95.5117 11.5071 95.9734 11.2188 96.3058 10.642C96.641 10.0653 96.8086 9.23153 96.8086 8.14062C96.8086 7.41619 96.7319 6.80398 96.5785 6.30398C96.4279 5.80114 96.2106 5.42045 95.9265 5.16193C95.6452 4.90057 95.31 4.76989 94.9208 4.76989C94.3327 4.76989 93.8711 5.05966 93.5359 5.6392C93.2006 6.21875 93.0316 7.05256 93.0288 8.14062C93.0288 8.8679 93.104 9.48295 93.2546 9.9858C93.408 10.4858 93.6254 10.8651 93.9066 11.1236C94.1879 11.3793 94.5259 11.5071 94.9208 11.5071ZM102.096 8.87784C102.096 9.94886 101.955 10.9332 101.674 11.831C101.393 12.7287 100.982 13.5568 100.442 14.3153H99.2749C99.4851 14.0341 99.6811 13.6889 99.8629 13.2798C100.045 12.8707 100.204 12.4233 100.34 11.9375C100.477 11.4489 100.583 10.9432 100.66 10.4205C100.737 9.89773 100.775 9.38352 100.775 8.87784C100.775 8.20455 100.708 7.52131 100.575 6.82812C100.441 6.13494 100.261 5.49148 100.033 4.89773C99.8061 4.30398 99.5533 3.8196 99.2749 3.4446H100.442C100.982 4.20312 101.393 5.03125 101.674 5.92898C101.955 6.8267 102.096 7.80966 102.096 8.87784Z" fill="black"/>
<rect x="128" width="16" height="16" rx="4" fill="#29BF80"/>
<path d="M153.696 12.5H152.298L155.439 3.77273H156.96L160.101 12.5H158.703L156.236 5.35795H156.168L153.696 12.5ZM153.93 9.08239H158.464V10.1903H153.93V9.08239ZM166.038 5.95455L163.664 12.5H162.301L159.923 5.95455H161.291L162.949 10.9915H163.017L164.67 5.95455H166.038ZM168.953 12.6449C168.538 12.6449 168.163 12.5682 167.828 12.4148C167.493 12.2585 167.227 12.0327 167.031 11.7372C166.838 11.4418 166.741 11.0795 166.741 10.6506C166.741 10.2812 166.812 9.97727 166.954 9.73864C167.096 9.5 167.288 9.31108 167.529 9.17188C167.771 9.03267 168.041 8.92756 168.339 8.85653C168.637 8.78551 168.941 8.73153 169.251 8.6946C169.643 8.64915 169.961 8.61222 170.206 8.58381C170.45 8.55256 170.627 8.50284 170.738 8.43466C170.849 8.36648 170.904 8.25568 170.904 8.10227V8.07244C170.904 7.70028 170.799 7.41193 170.589 7.20739C170.382 7.00284 170.072 6.90057 169.66 6.90057C169.231 6.90057 168.893 6.99574 168.646 7.18608C168.402 7.37358 168.233 7.58239 168.139 7.8125L166.941 7.53977C167.083 7.14205 167.291 6.82102 167.564 6.5767C167.839 6.32955 168.156 6.15057 168.514 6.03977C168.872 5.92614 169.248 5.86932 169.643 5.86932C169.904 5.86932 170.181 5.90057 170.474 5.96307C170.77 6.02273 171.045 6.13352 171.301 6.29545C171.559 6.45739 171.771 6.68892 171.936 6.99006C172.1 7.28835 172.183 7.67614 172.183 8.15341V12.5H170.939V11.6051H170.887C170.805 11.7699 170.681 11.9318 170.517 12.0909C170.352 12.25 170.14 12.3821 169.882 12.4872C169.623 12.5923 169.314 12.6449 168.953 12.6449ZM169.23 11.6222C169.582 11.6222 169.883 11.5526 170.133 11.4134C170.386 11.2741 170.578 11.0923 170.708 10.8679C170.842 10.6406 170.909 10.3977 170.909 10.1392V9.29545C170.863 9.34091 170.775 9.38352 170.645 9.4233C170.517 9.46023 170.37 9.4929 170.206 9.52131C170.041 9.54687 169.88 9.57102 169.724 9.59375C169.568 9.61364 169.437 9.63068 169.332 9.64489C169.085 9.67614 168.859 9.72869 168.654 9.80256C168.453 9.87642 168.291 9.98295 168.169 10.1222C168.049 10.2585 167.99 10.4403 167.99 10.6676C167.99 10.983 168.106 11.2216 168.339 11.3835C168.572 11.5426 168.869 11.6222 169.23 11.6222ZM173.88 12.5V5.95455H175.154V12.5H173.88ZM174.523 4.9446C174.302 4.9446 174.112 4.87074 173.952 4.72301C173.796 4.57244 173.718 4.39347 173.718 4.18608C173.718 3.97585 173.796 3.79687 173.952 3.64915C174.112 3.49858 174.302 3.4233 174.523 3.4233C174.745 3.4233 174.934 3.49858 175.09 3.64915C175.249 3.79687 175.329 3.97585 175.329 4.18608C175.329 4.39347 175.249 4.57244 175.09 4.72301C174.934 4.87074 174.745 4.9446 174.523 4.9446ZM178.142 3.77273V12.5H176.868V3.77273H178.142ZM181.761 12.6449C181.347 12.6449 180.972 12.5682 180.636 12.4148C180.301 12.2585 180.036 12.0327 179.839 11.7372C179.646 11.4418 179.55 11.0795 179.55 10.6506C179.55 10.2812 179.621 9.97727 179.763 9.73864C179.905 9.5 180.097 9.31108 180.338 9.17188C180.58 9.03267 180.849 8.92756 181.148 8.85653C181.446 8.78551 181.75 8.73153 182.06 8.6946C182.452 8.64915 182.77 8.61222 183.014 8.58381C183.259 8.55256 183.436 8.50284 183.547 8.43466C183.658 8.36648 183.713 8.25568 183.713 8.10227V8.07244C183.713 7.70028 183.608 7.41193 183.398 7.20739C183.19 7.00284 182.881 6.90057 182.469 6.90057C182.04 6.90057 181.702 6.99574 181.455 7.18608C181.21 7.37358 181.041 7.58239 180.947 7.8125L179.75 7.53977C179.892 7.14205 180.099 6.82102 180.372 6.5767C180.648 6.32955 180.964 6.15057 181.322 6.03977C181.68 5.92614 182.057 5.86932 182.452 5.86932C182.713 5.86932 182.99 5.90057 183.283 5.96307C183.578 6.02273 183.854 6.13352 184.109 6.29545C184.368 6.45739 184.58 6.68892 184.744 6.99006C184.909 7.28835 184.991 7.67614 184.991 8.15341V12.5H183.747V11.6051H183.696C183.614 11.7699 183.49 11.9318 183.325 12.0909C183.161 12.25 182.949 12.3821 182.69 12.4872C182.432 12.5923 182.122 12.6449 181.761 12.6449ZM182.038 11.6222C182.391 11.6222 182.692 11.5526 182.942 11.4134C183.195 11.2741 183.386 11.0923 183.517 10.8679C183.651 10.6406 183.717 10.3977 183.717 10.1392V9.29545C183.672 9.34091 183.584 9.38352 183.453 9.4233C183.325 9.46023 183.179 9.4929 183.014 9.52131C182.849 9.54687 182.689 9.57102 182.533 9.59375C182.376 9.61364 182.246 9.63068 182.141 9.64489C181.893 9.67614 181.668 9.72869 181.463 9.80256C181.261 9.87642 181.099 9.98295 180.977 10.1222C180.858 10.2585 180.798 10.4403 180.798 10.6676C180.798 10.983 180.915 11.2216 181.148 11.3835C181.381 11.5426 181.678 11.6222 182.038 11.6222ZM186.791 12.5V3.77273H188.065V7.01562H188.142C188.216 6.87926 188.322 6.72159 188.461 6.54261C188.6 6.36364 188.794 6.20739 189.041 6.07386C189.288 5.9375 189.615 5.86932 190.021 5.86932C190.549 5.86932 191.021 6.00284 191.436 6.26989C191.85 6.53693 192.176 6.92187 192.412 7.42472C192.65 7.92756 192.77 8.53267 192.77 9.24006C192.77 9.94744 192.652 10.554 192.416 11.0597C192.18 11.5625 191.856 11.9503 191.444 12.223C191.032 12.4929 190.562 12.6278 190.034 12.6278C189.636 12.6278 189.311 12.5611 189.058 12.4276C188.808 12.294 188.612 12.1378 188.47 11.9588C188.328 11.7798 188.218 11.6207 188.142 11.4815H188.035V12.5H186.791ZM188.039 9.22727C188.039 9.6875 188.106 10.0909 188.24 10.4375C188.373 10.7841 188.566 11.0554 188.819 11.2514C189.072 11.4446 189.382 11.5412 189.748 11.5412C190.129 11.5412 190.447 11.4403 190.703 11.2386C190.958 11.0341 191.152 10.7571 191.282 10.4077C191.416 10.0582 191.483 9.66477 191.483 9.22727C191.483 8.79545 191.417 8.40767 191.287 8.06392C191.159 7.72017 190.966 7.44886 190.707 7.25C190.451 7.05114 190.132 6.9517 189.748 6.9517C189.379 6.9517 189.066 7.04687 188.811 7.23722C188.558 7.42756 188.366 7.69318 188.235 8.03409C188.105 8.375 188.039 8.77273 188.039 9.22727ZM195.474 3.77273V12.5H194.2V3.77273H195.474ZM200.01 12.6321C199.365 12.6321 198.809 12.4943 198.343 12.2188C197.88 11.9403 197.522 11.5497 197.27 11.0469C197.02 10.5412 196.895 9.94886 196.895 9.26989C196.895 8.59943 197.02 8.00852 197.27 7.49716C197.522 6.9858 197.875 6.58665 198.326 6.29972C198.781 6.01278 199.312 5.86932 199.92 5.86932C200.289 5.86932 200.647 5.9304 200.994 6.05256C201.341 6.17472 201.652 6.36648 201.927 6.62784C202.203 6.8892 202.42 7.22869 202.579 7.64631C202.738 8.06108 202.818 8.56534 202.818 9.15909V9.6108H197.615V8.65625H201.569C201.569 8.32102 201.501 8.02415 201.365 7.76562C201.228 7.50426 201.037 7.2983 200.789 7.14773C200.545 6.99716 200.258 6.92188 199.929 6.92188C199.571 6.92188 199.258 7.00994 198.991 7.18608C198.727 7.35937 198.522 7.58665 198.377 7.8679C198.235 8.14631 198.164 8.44886 198.164 8.77557V9.52131C198.164 9.95881 198.241 10.331 198.395 10.6378C198.551 10.9446 198.768 11.179 199.047 11.3409C199.325 11.5 199.65 11.5795 200.022 11.5795C200.264 11.5795 200.484 11.5455 200.683 11.4773C200.882 11.4062 201.054 11.3011 201.199 11.1619C201.343 11.0227 201.454 10.8509 201.531 10.6463L202.737 10.8636C202.64 11.2187 202.467 11.5298 202.217 11.7969C201.97 12.0611 201.659 12.267 201.284 12.4148C200.912 12.5597 200.487 12.6321 200.01 12.6321ZM204.602 8.87784C204.602 7.80966 204.743 6.8267 205.024 5.92898C205.305 5.03125 205.716 4.20312 206.256 3.4446H207.423C207.213 3.72585 207.017 4.07102 206.835 4.48011C206.653 4.8892 206.494 5.33807 206.358 5.8267C206.222 6.3125 206.115 6.81676 206.038 7.33949C205.962 7.85937 205.923 8.37216 205.923 8.87784C205.923 9.55398 205.99 10.2386 206.124 10.9318C206.257 11.625 206.438 12.2685 206.665 12.8622C206.892 13.456 207.145 13.9403 207.423 14.3153H206.256C205.716 13.5568 205.305 12.7287 205.024 11.831C204.743 10.9332 204.602 9.94886 204.602 8.87784ZM212.061 3.77273V12.5H210.74V5.09375H210.689L208.6 6.45739V5.19602L210.778 3.77273H212.061ZM217.302 12.6193C216.768 12.6193 216.288 12.517 215.862 12.3125C215.439 12.1051 215.1 11.821 214.848 11.4602C214.595 11.0994 214.46 10.6875 214.443 10.2244H215.721C215.752 10.5994 215.919 10.9077 216.22 11.1491C216.521 11.3906 216.882 11.5114 217.302 11.5114C217.637 11.5114 217.934 11.4347 218.193 11.2812C218.454 11.125 218.659 10.9105 218.806 10.6378C218.957 10.3651 219.032 10.054 219.032 9.70455C219.032 9.34943 218.956 9.03267 218.802 8.75426C218.649 8.47585 218.437 8.2571 218.167 8.09801C217.9 7.93892 217.593 7.85795 217.247 7.85511C216.983 7.85511 216.717 7.90057 216.45 7.99148C216.183 8.08239 215.967 8.2017 215.802 8.34943L214.596 8.17045L215.086 3.77273H219.885V4.90199H216.181L215.904 7.34375H215.956C216.126 7.17898 216.352 7.04119 216.633 6.9304C216.917 6.8196 217.221 6.7642 217.545 6.7642C218.076 6.7642 218.549 6.89062 218.964 7.14347C219.382 7.39631 219.71 7.74148 219.949 8.17898C220.19 8.61364 220.309 9.11364 220.306 9.67898C220.309 10.2443 220.181 10.7486 219.923 11.1918C219.667 11.6349 219.312 11.9844 218.858 12.2401C218.406 12.4929 217.887 12.6193 217.302 12.6193ZM224.33 8.87784C224.33 9.94886 224.19 10.9332 223.908 11.831C223.627 12.7287 223.217 13.5568 222.677 14.3153H221.509C221.719 14.0341 221.915 13.6889 222.097 13.2798C222.279 12.8707 222.438 12.4233 222.575 11.9375C222.711 11.4489 222.817 10.9432 222.894 10.4205C222.971 9.89773 223.009 9.38352 223.009 8.87784C223.009 8.20455 222.942 7.52131 222.809 6.82812C222.675 6.13494 222.495 5.49148 222.268 4.89773C222.04 4.30398 221.788 3.8196 221.509 3.4446H222.677C223.217 4.20312 223.627 5.03125 223.908 5.92898C224.19 6.8267 224.33 7.80966 224.33 8.87784Z" fill="black"/>
<rect x="250" width="16" height="16" rx="4" fill="#DE972C"/>
<path d="M274.959 12.5V3.77273H278.155C278.774 3.77273 279.287 3.875 279.693 4.07955C280.099 4.28125 280.403 4.5554 280.605 4.90199C280.807 5.24574 280.908 5.63352 280.908 6.06534C280.908 6.42898 280.841 6.7358 280.707 6.9858C280.574 7.23295 280.395 7.43182 280.17 7.58239C279.949 7.73011 279.705 7.83807 279.438 7.90625V7.99148C279.727 8.00568 280.01 8.09943 280.286 8.27273C280.564 8.44318 280.794 8.68608 280.976 9.00142C281.158 9.31676 281.249 9.70028 281.249 10.152C281.249 10.598 281.143 10.9986 280.933 11.3537C280.726 11.706 280.405 11.9858 279.97 12.1932C279.536 12.3977 278.98 12.5 278.304 12.5H274.959ZM276.276 11.3707H278.176C278.807 11.3707 279.259 11.2486 279.531 11.0043C279.804 10.7599 279.94 10.4545 279.94 10.0881C279.94 9.8125 279.871 9.55966 279.732 9.32955C279.592 9.09943 279.393 8.91619 279.135 8.77983C278.879 8.64347 278.575 8.57528 278.223 8.57528H276.276V11.3707ZM276.276 7.5483H278.04C278.335 7.5483 278.601 7.49148 278.837 7.37784C279.075 7.2642 279.264 7.10511 279.403 6.90057C279.545 6.69318 279.616 6.44886 279.616 6.16761C279.616 5.80682 279.49 5.50426 279.237 5.25994C278.984 5.01562 278.597 4.89347 278.074 4.89347H276.276V7.5483ZM283.982 3.77273V12.5H282.708V3.77273H283.982ZM288.453 12.6321C287.84 12.6321 287.304 12.4915 286.847 12.2102C286.39 11.929 286.034 11.5355 285.782 11.0298C285.529 10.5241 285.402 9.93324 285.402 9.2571C285.402 8.57812 285.529 7.98437 285.782 7.47585C286.034 6.96733 286.39 6.57244 286.847 6.29119C287.304 6.00994 287.84 5.86932 288.453 5.86932C289.067 5.86932 289.603 6.00994 290.06 6.29119C290.517 6.57244 290.873 6.96733 291.125 7.47585C291.378 7.98437 291.505 8.57812 291.505 9.2571C291.505 9.93324 291.378 10.5241 291.125 11.0298C290.873 11.5355 290.517 11.929 290.06 12.2102C289.603 12.4915 289.067 12.6321 288.453 12.6321ZM288.458 11.5625C288.855 11.5625 289.185 11.4574 289.446 11.2472C289.708 11.0369 289.901 10.7571 290.026 10.4077C290.154 10.0582 290.218 9.6733 290.218 9.25284C290.218 8.83523 290.154 8.4517 290.026 8.10227C289.901 7.75 289.708 7.46733 289.446 7.25426C289.185 7.04119 288.855 6.93466 288.458 6.93466C288.057 6.93466 287.725 7.04119 287.461 7.25426C287.199 7.46733 287.005 7.75 286.877 8.10227C286.752 8.4517 286.689 8.83523 286.689 9.25284C286.689 9.6733 286.752 10.0582 286.877 10.4077C287.005 10.7571 287.199 11.0369 287.461 11.2472C287.725 11.4574 288.057 11.5625 288.458 11.5625ZM295.684 12.6321C295.05 12.6321 294.505 12.4886 294.048 12.2017C293.593 11.9119 293.244 11.5128 292.999 11.0043C292.755 10.4957 292.633 9.91335 292.633 9.2571C292.633 8.59233 292.758 8.00568 293.008 7.49716C293.258 6.9858 293.61 6.58665 294.065 6.29972C294.519 6.01278 295.055 5.86932 295.671 5.86932C296.168 5.86932 296.612 5.96165 297.001 6.14631C297.39 6.32812 297.704 6.58381 297.942 6.91335C298.184 7.2429 298.327 7.62784 298.373 8.06818H297.133C297.065 7.76136 296.908 7.49716 296.664 7.27557C296.423 7.05398 296.099 6.94318 295.692 6.94318C295.337 6.94318 295.026 7.03693 294.759 7.22443C294.495 7.40909 294.289 7.6733 294.141 8.01705C293.994 8.35795 293.92 8.76136 293.92 9.22727C293.92 9.70455 293.992 10.1165 294.137 10.4631C294.282 10.8097 294.487 11.0781 294.751 11.2685C295.018 11.4588 295.332 11.554 295.692 11.554C295.934 11.554 296.153 11.5099 296.349 11.4219C296.548 11.331 296.714 11.2017 296.847 11.0341C296.984 10.8665 297.079 10.6648 297.133 10.429H298.373C298.327 10.8523 298.19 11.2301 297.96 11.5625C297.729 11.8949 297.421 12.1562 297.035 12.3466C296.651 12.5369 296.201 12.6321 295.684 12.6321ZM300.907 10.2798L300.899 8.72443H301.12L303.728 5.95455H305.254L302.279 9.10795H302.079L300.907 10.2798ZM299.735 12.5V3.77273H301.01V12.5H299.735ZM303.869 12.5L301.525 9.3892L302.403 8.49858L305.433 12.5H303.869ZM308.967 12.6321C308.322 12.6321 307.766 12.4943 307.3 12.2188C306.837 11.9403 306.479 11.5497 306.227 11.0469C305.977 10.5412 305.852 9.94886 305.852 9.26989C305.852 8.59943 305.977 8.00852 306.227 7.49716C306.479 6.9858 306.832 6.58665 307.283 6.29972C307.738 6.01278 308.269 5.86932 308.877 5.86932C309.246 5.86932 309.604 5.9304 309.951 6.05256C310.298 6.17472 310.609 6.36648 310.884 6.62784C311.16 6.8892 311.377 7.22869 311.536 7.64631C311.695 8.06108 311.775 8.56534 311.775 9.15909V9.6108H306.572V8.65625H310.526C310.526 8.32102 310.458 8.02415 310.322 7.76562C310.185 7.50426 309.994 7.2983 309.746 7.14773C309.502 6.99716 309.215 6.92188 308.886 6.92188C308.528 6.92188 308.215 7.00994 307.948 7.18608C307.684 7.35937 307.479 7.58665 307.335 7.8679C307.192 8.14631 307.121 8.44886 307.121 8.77557V9.52131C307.121 9.95881 307.198 10.331 307.352 10.6378C307.508 10.9446 307.725 11.179 308.004 11.3409C308.282 11.5 308.607 11.5795 308.979 11.5795C309.221 11.5795 309.441 11.5455 309.64 11.4773C309.839 11.4062 310.011 11.3011 310.156 11.1619C310.3 11.0227 310.411 10.8509 310.488 10.6463L311.694 10.8636C311.597 11.2187 311.424 11.5298 311.174 11.7969C310.927 12.0611 310.616 12.267 310.241 12.4148C309.869 12.5597 309.444 12.6321 308.967 12.6321ZM315.639 12.6278C315.11 12.6278 314.639 12.4929 314.224 12.223C313.812 11.9503 313.488 11.5625 313.252 11.0597C313.02 10.554 312.903 9.94744 312.903 9.24006C312.903 8.53267 313.021 7.92756 313.257 7.42472C313.495 6.92187 313.822 6.53693 314.237 6.26989C314.652 6.00284 315.122 5.86932 315.647 5.86932C316.054 5.86932 316.38 5.9375 316.627 6.07386C316.877 6.20739 317.071 6.36364 317.207 6.54261C317.346 6.72159 317.454 6.87926 317.531 7.01562H317.608V3.77273H318.882V12.5H317.637V11.4815H317.531C317.454 11.6207 317.343 11.7798 317.199 11.9588C317.056 12.1378 316.86 12.294 316.61 12.4276C316.36 12.5611 316.037 12.6278 315.639 12.6278ZM315.92 11.5412C316.287 11.5412 316.596 11.4446 316.849 11.2514C317.105 11.0554 317.298 10.7841 317.429 10.4375C317.562 10.0909 317.629 9.6875 317.629 9.22727C317.629 8.77273 317.564 8.375 317.433 8.03409C317.302 7.69318 317.11 7.42756 316.858 7.23722C316.605 7.04687 316.292 6.9517 315.92 6.9517C315.537 6.9517 315.217 7.05114 314.961 7.25C314.706 7.44886 314.512 7.72017 314.382 8.06392C314.254 8.40767 314.19 8.79545 314.19 9.22727C314.19 9.66477 314.255 10.0582 314.386 10.4077C314.517 10.7571 314.71 11.0341 314.966 11.2386C315.224 11.4403 315.542 11.5412 315.92 11.5412ZM321.071 8.87784C321.071 7.80966 321.212 6.8267 321.493 5.92898C321.774 5.03125 322.185 4.20312 322.724 3.4446H323.892C323.682 3.72585 323.486 4.07102 323.304 4.48011C323.122 4.8892 322.963 5.33807 322.827 5.8267C322.69 6.3125 322.584 6.81676 322.507 7.33949C322.43 7.85937 322.392 8.37216 322.392 8.87784C322.392 9.55398 322.459 10.2386 322.592 10.9318C322.726 11.625 322.906 12.2685 323.134 12.8622C323.361 13.456 323.614 13.9403 323.892 14.3153H322.724C322.185 13.5568 321.774 12.7287 321.493 11.831C321.212 10.9332 321.071 9.94886 321.071 8.87784ZM325.218 12.5V11.5455L328.172 8.4858C328.487 8.15341 328.747 7.86222 328.951 7.61222C329.159 7.35937 329.314 7.11932 329.416 6.89205C329.518 6.66477 329.569 6.4233 329.569 6.16761C329.569 5.87784 329.501 5.62784 329.365 5.41761C329.228 5.20455 329.042 5.04119 328.806 4.92756C328.571 4.81108 328.305 4.75284 328.01 4.75284C327.697 4.75284 327.424 4.81676 327.191 4.9446C326.958 5.07244 326.779 5.25284 326.654 5.4858C326.529 5.71875 326.467 5.99148 326.467 6.30398H325.21C325.21 5.77273 325.332 5.30824 325.576 4.91051C325.821 4.51278 326.156 4.20455 326.582 3.9858C327.008 3.7642 327.493 3.65341 328.035 3.65341C328.583 3.65341 329.066 3.76278 329.484 3.98153C329.904 4.19744 330.233 4.4929 330.468 4.8679C330.704 5.24006 330.822 5.66051 330.822 6.12926C330.822 6.45312 330.761 6.76989 330.639 7.07955C330.52 7.3892 330.311 7.73437 330.012 8.11506C329.714 8.4929 329.299 8.9517 328.768 9.49148L327.034 11.3068V11.3707H330.963V12.5H325.218ZM335.045 8.87784C335.045 9.94886 334.904 10.9332 334.623 11.831C334.342 12.7287 333.931 13.5568 333.392 14.3153H332.224C332.434 14.0341 332.63 13.6889 332.812 13.2798C332.994 12.8707 333.153 12.4233 333.289 11.9375C333.426 11.4489 333.532 10.9432 333.609 10.4205C333.686 9.89773 333.724 9.38352 333.724 8.87784C333.724 8.20455 333.657 7.52131 333.524 6.82812C333.39 6.13494 333.21 5.49148 332.983 4.89773C332.755 4.30398 332.502 3.8196 332.224 3.4446H333.392C333.931 4.20312 334.342 5.03125 334.623 5.92898C334.904 6.8267 335.045 7.80966 335.045 8.87784Z" fill="black"/>
<rect x="361" width="16" height="16" rx="4" fill="#F14E63"/>
<path d="M391.571 3.77273H392.892V9.51278C392.892 10.1236 392.749 10.6648 392.462 11.1364C392.175 11.6051 391.771 11.9744 391.251 12.2443C390.732 12.5114 390.122 12.6449 389.423 12.6449C388.727 12.6449 388.119 12.5114 387.599 12.2443C387.08 11.9744 386.676 11.6051 386.389 11.1364C386.102 10.6648 385.959 10.1236 385.959 9.51278V3.77273H387.276V9.40625C387.276 9.80114 387.362 10.152 387.536 10.4588C387.712 10.7656 387.96 11.0071 388.281 11.1832C388.602 11.3565 388.983 11.4432 389.423 11.4432C389.866 11.4432 390.249 11.3565 390.57 11.1832C390.893 11.0071 391.141 10.7656 391.311 10.4588C391.484 10.152 391.571 9.80114 391.571 9.40625V3.77273ZM395.978 8.61364V12.5H394.704V5.95455H395.927V7.01989H396.008C396.159 6.6733 396.395 6.39489 396.716 6.18466C397.039 5.97443 397.447 5.86932 397.939 5.86932C398.385 5.86932 398.775 5.96307 399.11 6.15057C399.446 6.33523 399.706 6.6108 399.89 6.97727C400.075 7.34375 400.167 7.79687 400.167 8.33665V12.5H398.893V8.49006C398.893 8.01562 398.77 7.64489 398.522 7.37784C398.275 7.10795 397.936 6.97301 397.504 6.97301C397.208 6.97301 396.946 7.03693 396.716 7.16477C396.488 7.29261 396.308 7.48011 396.174 7.72727C396.044 7.97159 395.978 8.26705 395.978 8.61364ZM404.326 12.6278C403.798 12.6278 403.326 12.4929 402.912 12.223C402.5 11.9503 402.176 11.5625 401.94 11.0597C401.707 10.554 401.591 9.94744 401.591 9.24006C401.591 8.53267 401.708 7.92756 401.944 7.42472C402.183 6.92187 402.51 6.53693 402.924 6.26989C403.339 6.00284 403.809 5.86932 404.335 5.86932C404.741 5.86932 405.068 5.9375 405.315 6.07386C405.565 6.20739 405.758 6.36364 405.895 6.54261C406.034 6.72159 406.142 6.87926 406.218 7.01562H406.295V3.77273H407.569V12.5H406.325V11.4815H406.218C406.142 11.6207 406.031 11.7798 405.886 11.9588C405.744 12.1378 405.548 12.294 405.298 12.4276C405.048 12.5611 404.724 12.6278 404.326 12.6278ZM404.608 11.5412C404.974 11.5412 405.284 11.4446 405.537 11.2514C405.792 11.0554 405.985 10.7841 406.116 10.4375C406.25 10.0909 406.316 9.6875 406.316 9.22727C406.316 8.77273 406.251 8.375 406.12 8.03409C405.99 7.69318 405.798 7.42756 405.545 7.23722C405.292 7.04687 404.98 6.9517 404.608 6.9517C404.224 6.9517 403.904 7.05114 403.649 7.25C403.393 7.44886 403.2 7.72017 403.069 8.06392C402.941 8.40767 402.877 8.79545 402.877 9.22727C402.877 9.66477 402.943 10.0582 403.074 10.4077C403.204 10.7571 403.397 11.0341 403.653 11.2386C403.912 11.4403 404.23 11.5412 404.608 11.5412ZM412.209 12.6321C411.564 12.6321 411.009 12.4943 410.543 12.2188C410.08 11.9403 409.722 11.5497 409.469 11.0469C409.219 10.5412 409.094 9.94886 409.094 9.26989C409.094 8.59943 409.219 8.00852 409.469 7.49716C409.722 6.9858 410.074 6.58665 410.526 6.29972C410.98 6.01278 411.511 5.86932 412.119 5.86932C412.489 5.86932 412.847 5.9304 413.193 6.05256C413.54 6.17472 413.851 6.36648 414.126 6.62784C414.402 6.8892 414.619 7.22869 414.778 7.64631C414.938 8.06108 415.017 8.56534 415.017 9.15909V9.6108H409.814V8.65625H413.768C413.768 8.32102 413.7 8.02415 413.564 7.76562C413.428 7.50426 413.236 7.2983 412.989 7.14773C412.744 6.99716 412.457 6.92188 412.128 6.92188C411.77 6.92188 411.457 7.00994 411.19 7.18608C410.926 7.35937 410.722 7.58665 410.577 7.8679C410.435 8.14631 410.364 8.44886 410.364 8.77557V9.52131C410.364 9.95881 410.44 10.331 410.594 10.6378C410.75 10.9446 410.967 11.179 411.246 11.3409C411.524 11.5 411.849 11.5795 412.222 11.5795C412.463 11.5795 412.683 11.5455 412.882 11.4773C413.081 11.4062 413.253 11.3011 413.398 11.1619C413.543 11.0227 413.653 10.8509 413.73 10.6463L414.936 10.8636C414.839 11.2187 414.666 11.5298 414.416 11.7969C414.169 12.0611 413.858 12.267 413.483 12.4148C413.111 12.5597 412.686 12.6321 412.209 12.6321ZM416.431 12.5V5.95455H417.662V6.99432H417.73C417.85 6.64205 418.06 6.36506 418.361 6.16335C418.665 5.95881 419.009 5.85653 419.392 5.85653C419.472 5.85653 419.566 5.85937 419.674 5.86506C419.784 5.87074 419.871 5.87784 419.934 5.88636V7.10511C419.882 7.09091 419.792 7.07528 419.661 7.05824C419.53 7.03835 419.4 7.02841 419.269 7.02841C418.968 7.02841 418.699 7.09233 418.463 7.22017C418.23 7.34517 418.046 7.51989 417.909 7.74432C417.773 7.96591 417.705 8.21875 417.705 8.50284V12.5H416.431ZM424.314 3.77273H425.912L428.691 10.5568H428.793L431.571 3.77273H433.169V12.5H431.917V6.18466H431.836L429.262 12.4872H428.222L425.648 6.1804H425.567V12.5H424.314V3.77273ZM436.886 12.6449C436.472 12.6449 436.097 12.5682 435.761 12.4148C435.426 12.2585 435.161 12.0327 434.964 11.7372C434.771 11.4418 434.675 11.0795 434.675 10.6506C434.675 10.2812 434.746 9.97727 434.888 9.73864C435.03 9.5 435.222 9.31108 435.463 9.17188C435.705 9.03267 435.974 8.92756 436.273 8.85653C436.571 8.78551 436.875 8.73153 437.185 8.6946C437.577 8.64915 437.895 8.61222 438.139 8.58381C438.384 8.55256 438.561 8.50284 438.672 8.43466C438.783 8.36648 438.838 8.25568 438.838 8.10227V8.07244C438.838 7.70028 438.733 7.41193 438.523 7.20739C438.315 7.00284 438.006 6.90057 437.594 6.90057C437.165 6.90057 436.827 6.99574 436.58 7.18608C436.335 7.37358 436.166 7.58239 436.072 7.8125L434.875 7.53977C435.017 7.14205 435.224 6.82102 435.497 6.5767C435.773 6.32955 436.089 6.15057 436.447 6.03977C436.805 5.92614 437.182 5.86932 437.577 5.86932C437.838 5.86932 438.115 5.90057 438.408 5.96307C438.703 6.02273 438.979 6.13352 439.234 6.29545C439.493 6.45739 439.705 6.68892 439.869 6.99006C440.034 7.28835 440.116 7.67614 440.116 8.15341V12.5H438.872V11.6051H438.821C438.739 11.7699 438.615 11.9318 438.45 12.0909C438.286 12.25 438.074 12.3821 437.815 12.4872C437.557 12.5923 437.247 12.6449 436.886 12.6449ZM437.163 11.6222C437.516 11.6222 437.817 11.5526 438.067 11.4134C438.32 11.2741 438.511 11.0923 438.642 10.8679C438.776 10.6406 438.842 10.3977 438.842 10.1392V9.29545C438.797 9.34091 438.709 9.38352 438.578 9.4233C438.45 9.46023 438.304 9.4929 438.139 9.52131C437.974 9.54687 437.814 9.57102 437.658 9.59375C437.501 9.61364 437.371 9.63068 437.266 9.64489C437.018 9.67614 436.793 9.72869 436.588 9.80256C436.386 9.87642 436.224 9.98295 436.102 10.1222C435.983 10.2585 435.923 10.4403 435.923 10.6676C435.923 10.983 436.04 11.2216 436.273 11.3835C436.506 11.5426 436.803 11.6222 437.163 11.6222ZM441.814 12.5V5.95455H443.088V12.5H441.814ZM442.457 4.9446C442.235 4.9446 442.045 4.87074 441.886 4.72301C441.73 4.57244 441.652 4.39347 441.652 4.18608C441.652 3.97585 441.73 3.79687 441.886 3.64915C442.045 3.49858 442.235 3.4233 442.457 3.4233C442.679 3.4233 442.868 3.49858 443.024 3.64915C443.183 3.79687 443.262 3.97585 443.262 4.18608C443.262 4.39347 443.183 4.57244 443.024 4.72301C442.868 4.87074 442.679 4.9446 442.457 4.9446ZM446.076 8.61364V12.5H444.802V5.95455H446.025V7.01989H446.106C446.256 6.6733 446.492 6.39489 446.813 6.18466C447.137 5.97443 447.545 5.86932 448.036 5.86932C448.482 5.86932 448.873 5.96307 449.208 6.15057C449.543 6.33523 449.803 6.6108 449.988 6.97727C450.173 7.34375 450.265 7.79687 450.265 8.33665V12.5H448.991V8.49006C448.991 8.01562 448.867 7.64489 448.62 7.37784C448.373 7.10795 448.033 6.97301 447.602 6.97301C447.306 6.97301 447.043 7.03693 446.813 7.16477C446.586 7.29261 446.406 7.48011 446.272 7.72727C446.141 7.97159 446.076 8.26705 446.076 8.61364ZM455.029 5.95455V6.97727H451.454V5.95455H455.029ZM452.413 4.38636H453.687V10.5781C453.687 10.8253 453.724 11.0114 453.798 11.1364C453.871 11.2585 453.967 11.3423 454.083 11.3878C454.202 11.4304 454.332 11.4517 454.471 11.4517C454.573 11.4517 454.663 11.4446 454.739 11.4304C454.816 11.4162 454.876 11.4048 454.918 11.3963L455.148 12.4489C455.075 12.4773 454.969 12.5057 454.833 12.5341C454.697 12.5653 454.526 12.5824 454.322 12.5852C453.987 12.5909 453.674 12.5312 453.384 12.4062C453.094 12.2812 452.86 12.0881 452.681 11.8267C452.502 11.5653 452.413 11.2372 452.413 10.8423V4.38636ZM458.343 12.6449C457.929 12.6449 457.554 12.5682 457.218 12.4148C456.883 12.2585 456.618 12.0327 456.422 11.7372C456.228 11.4418 456.132 11.0795 456.132 10.6506C456.132 10.2812 456.203 9.97727 456.345 9.73864C456.487 9.5 456.679 9.31108 456.92 9.17188C457.162 9.03267 457.431 8.92756 457.73 8.85653C458.028 8.78551 458.332 8.73153 458.642 8.6946C459.034 8.64915 459.352 8.61222 459.596 8.58381C459.841 8.55256 460.018 8.50284 460.129 8.43466C460.24 8.36648 460.295 8.25568 460.295 8.10227V8.07244C460.295 7.70028 460.19 7.41193 459.98 7.20739C459.772 7.00284 459.463 6.90057 459.051 6.90057C458.622 6.90057 458.284 6.99574 458.037 7.18608C457.792 7.37358 457.623 7.58239 457.529 7.8125L456.332 7.53977C456.474 7.14205 456.681 6.82102 456.954 6.5767C457.23 6.32955 457.547 6.15057 457.904 6.03977C458.262 5.92614 458.639 5.86932 459.034 5.86932C459.295 5.86932 459.572 5.90057 459.865 5.96307C460.16 6.02273 460.436 6.13352 460.691 6.29545C460.95 6.45739 461.162 6.68892 461.326 6.99006C461.491 7.28835 461.574 7.67614 461.574 8.15341V12.5H460.329V11.6051H460.278C460.196 11.7699 460.072 11.9318 459.907 12.0909C459.743 12.25 459.531 12.3821 459.272 12.4872C459.014 12.5923 458.704 12.6449 458.343 12.6449ZM458.62 11.6222C458.973 11.6222 459.274 11.5526 459.524 11.4134C459.777 11.2741 459.968 11.0923 460.099 10.8679C460.233 10.6406 460.299 10.3977 460.299 10.1392V9.29545C460.254 9.34091 460.166 9.38352 460.035 9.4233C459.907 9.46023 459.761 9.4929 459.596 9.52131C459.431 9.54687 459.271 9.57102 459.115 9.59375C458.958 9.61364 458.828 9.63068 458.723 9.64489C458.475 9.67614 458.25 9.72869 458.045 9.80256C457.843 9.87642 457.681 9.98295 457.559 10.1222C457.44 10.2585 457.38 10.4403 457.38 10.6676C457.38 10.983 457.497 11.2216 457.73 11.3835C457.963 11.5426 458.26 11.6222 458.62 11.6222ZM463.271 12.5V5.95455H464.545V12.5H463.271ZM463.914 4.9446C463.692 4.9446 463.502 4.87074 463.343 4.72301C463.187 4.57244 463.109 4.39347 463.109 4.18608C463.109 3.97585 463.187 3.79687 463.343 3.64915C463.502 3.49858 463.692 3.4233 463.914 3.4233C464.136 3.4233 464.325 3.49858 464.481 3.64915C464.64 3.79687 464.719 3.97585 464.719 4.18608C464.719 4.39347 464.64 4.57244 464.481 4.72301C464.325 4.87074 464.136 4.9446 463.914 4.9446ZM467.533 8.61364V12.5H466.259V5.95455H467.482V7.01989H467.563C467.713 6.6733 467.949 6.39489 468.27 6.18466C468.594 5.97443 469.002 5.86932 469.493 5.86932C469.939 5.86932 470.33 5.96307 470.665 6.15057C471 6.33523 471.26 6.6108 471.445 6.97727C471.63 7.34375 471.722 7.79687 471.722 8.33665V12.5H470.448V8.49006C470.448 8.01562 470.324 7.64489 470.077 7.37784C469.83 7.10795 469.49 6.97301 469.059 6.97301C468.763 6.97301 468.5 7.03693 468.27 7.16477C468.043 7.29261 467.863 7.48011 467.729 7.72727C467.598 7.97159 467.533 8.26705 467.533 8.61364ZM475.336 12.6449C474.921 12.6449 474.546 12.5682 474.211 12.4148C473.875 12.2585 473.61 12.0327 473.414 11.7372C473.221 11.4418 473.124 11.0795 473.124 10.6506C473.124 10.2812 473.195 9.97727 473.337 9.73864C473.479 9.5 473.671 9.31108 473.912 9.17188C474.154 9.03267 474.424 8.92756 474.722 8.85653C475.02 8.78551 475.324 8.73153 475.634 8.6946C476.026 8.64915 476.344 8.61222 476.588 8.58381C476.833 8.55256 477.01 8.50284 477.121 8.43466C477.232 8.36648 477.287 8.25568 477.287 8.10227V8.07244C477.287 7.70028 477.182 7.41193 476.972 7.20739C476.765 7.00284 476.455 6.90057 476.043 6.90057C475.614 6.90057 475.276 6.99574 475.029 7.18608C474.784 7.37358 474.615 7.58239 474.522 7.8125L473.324 7.53977C473.466 7.14205 473.674 6.82102 473.946 6.5767C474.222 6.32955 474.539 6.15057 474.897 6.03977C475.255 5.92614 475.631 5.86932 476.026 5.86932C476.287 5.86932 476.564 5.90057 476.857 5.96307C477.152 6.02273 477.428 6.13352 477.684 6.29545C477.942 6.45739 478.154 6.68892 478.319 6.99006C478.483 7.28835 478.566 7.67614 478.566 8.15341V12.5H477.321V11.6051H477.27C477.188 11.7699 477.064 11.9318 476.9 12.0909C476.735 12.25 476.523 12.3821 476.265 12.4872C476.006 12.5923 475.696 12.6449 475.336 12.6449ZM475.613 11.6222C475.965 11.6222 476.266 11.5526 476.516 11.4134C476.769 11.2741 476.961 11.0923 477.091 10.8679C477.225 10.6406 477.292 10.3977 477.292 10.1392V9.29545C477.246 9.34091 477.158 9.38352 477.027 9.4233C476.9 9.46023 476.753 9.4929 476.588 9.52131C476.424 9.54687 476.263 9.57102 476.107 9.59375C475.951 9.61364 475.82 9.63068 475.715 9.64489C475.468 9.67614 475.242 9.72869 475.037 9.80256C474.836 9.87642 474.674 9.98295 474.551 10.1222C474.432 10.2585 474.373 10.4403 474.373 10.6676C474.373 10.983 474.489 11.2216 474.722 11.3835C474.955 11.5426 475.252 11.6222 475.613 11.6222ZM481.537 8.61364V12.5H480.263V5.95455H481.486V7.01989H481.567C481.717 6.6733 481.953 6.39489 482.274 6.18466C482.598 5.97443 483.006 5.86932 483.497 5.86932C483.943 5.86932 484.334 5.96307 484.669 6.15057C485.004 6.33523 485.264 6.6108 485.449 6.97727C485.634 7.34375 485.726 7.79687 485.726 8.33665V12.5H484.452V8.49006C484.452 8.01562 484.328 7.64489 484.081 7.37784C483.834 7.10795 483.494 6.97301 483.062 6.97301C482.767 6.97301 482.504 7.03693 482.274 7.16477C482.047 7.29261 481.866 7.48011 481.733 7.72727C481.602 7.97159 481.537 8.26705 481.537 8.61364ZM490.192 12.6321C489.558 12.6321 489.013 12.4886 488.555 12.2017C488.101 11.9119 487.751 11.5128 487.507 11.0043C487.263 10.4957 487.141 9.91335 487.141 9.2571C487.141 8.59233 487.266 8.00568 487.516 7.49716C487.766 6.9858 488.118 6.58665 488.572 6.29972C489.027 6.01278 489.563 5.86932 490.179 5.86932C490.676 5.86932 491.119 5.96165 491.509 6.14631C491.898 6.32812 492.212 6.58381 492.45 6.91335C492.692 7.2429 492.835 7.62784 492.881 8.06818H491.641C491.572 7.76136 491.416 7.49716 491.172 7.27557C490.93 7.05398 490.607 6.94318 490.2 6.94318C489.845 6.94318 489.534 7.03693 489.267 7.22443C489.003 7.40909 488.797 7.6733 488.649 8.01705C488.501 8.35795 488.428 8.76136 488.428 9.22727C488.428 9.70455 488.5 10.1165 488.645 10.4631C488.79 10.8097 488.994 11.0781 489.259 11.2685C489.526 11.4588 489.839 11.554 490.2 11.554C490.442 11.554 490.661 11.5099 490.857 11.4219C491.055 11.331 491.222 11.2017 491.355 11.0341C491.491 10.8665 491.587 10.6648 491.641 10.429H492.881C492.835 10.8523 492.697 11.2301 492.467 11.5625C492.237 11.8949 491.929 12.1562 491.543 12.3466C491.159 12.5369 490.709 12.6321 490.192 12.6321ZM497.064 12.6321C496.419 12.6321 495.864 12.4943 495.398 12.2188C494.935 11.9403 494.577 11.5497 494.324 11.0469C494.074 10.5412 493.949 9.94886 493.949 9.26989C493.949 8.59943 494.074 8.00852 494.324 7.49716C494.577 6.9858 494.929 6.58665 495.381 6.29972C495.836 6.01278 496.367 5.86932 496.975 5.86932C497.344 5.86932 497.702 5.9304 498.049 6.05256C498.395 6.17472 498.706 6.36648 498.982 6.62784C499.257 6.8892 499.475 7.22869 499.634 7.64631C499.793 8.06108 499.873 8.56534 499.873 9.15909V9.6108H494.669V8.65625H498.624C498.624 8.32102 498.556 8.02415 498.419 7.76562C498.283 7.50426 498.091 7.2983 497.844 7.14773C497.6 6.99716 497.313 6.92188 496.983 6.92188C496.625 6.92188 496.313 7.00994 496.046 7.18608C495.782 7.35937 495.577 7.58665 495.432 7.8679C495.29 8.14631 495.219 8.44886 495.219 8.77557V9.52131C495.219 9.95881 495.296 10.331 495.449 10.6378C495.605 10.9446 495.823 11.179 496.101 11.3409C496.38 11.5 496.705 11.5795 497.077 11.5795C497.319 11.5795 497.539 11.5455 497.738 11.4773C497.936 11.4062 498.108 11.3011 498.253 11.1619C498.398 11.0227 498.509 10.8509 498.586 10.6463L499.792 10.8636C499.695 11.2187 499.522 11.5298 499.272 11.7969C499.025 12.0611 498.713 12.267 498.338 12.4148C497.966 12.5597 497.542 12.6321 497.064 12.6321ZM501.657 8.87784C501.657 7.80966 501.798 6.8267 502.079 5.92898C502.36 5.03125 502.771 4.20312 503.31 3.4446H504.478C504.268 3.72585 504.072 4.07102 503.89 4.48011C503.708 4.8892 503.549 5.33807 503.413 5.8267C503.276 6.3125 503.17 6.81676 503.093 7.33949C503.016 7.85937 502.978 8.37216 502.978 8.87784C502.978 9.55398 503.045 10.2386 503.178 10.9318C503.312 11.625 503.492 12.2685 503.719 12.8622C503.947 13.456 504.2 13.9403 504.478 14.3153H503.31C502.771 13.5568 502.36 12.7287 502.079 11.831C501.798 10.9332 501.657 9.94886 501.657 8.87784ZM505.804 12.5V11.5455L508.757 8.4858C509.073 8.15341 509.333 7.86222 509.537 7.61222C509.745 7.35937 509.9 7.11932 510.002 6.89205C510.104 6.66477 510.155 6.4233 510.155 6.16761C510.155 5.87784 510.087 5.62784 509.951 5.41761C509.814 5.20455 509.628 5.04119 509.392 4.92756C509.157 4.81108 508.891 4.75284 508.596 4.75284C508.283 4.75284 508.01 4.81676 507.777 4.9446C507.544 5.07244 507.365 5.25284 507.24 5.4858C507.115 5.71875 507.053 5.99148 507.053 6.30398H505.796C505.796 5.77273 505.918 5.30824 506.162 4.91051C506.407 4.51278 506.742 4.20455 507.168 3.9858C507.594 3.7642 508.078 3.65341 508.621 3.65341C509.169 3.65341 509.652 3.76278 510.07 3.98153C510.49 4.19744 510.819 4.4929 511.054 4.8679C511.29 5.24006 511.408 5.66051 511.408 6.12926C511.408 6.45312 511.347 6.76989 511.225 7.07955C511.105 7.3892 510.897 7.73437 510.598 8.11506C510.3 8.4929 509.885 8.9517 509.354 9.49148L507.62 11.3068V11.3707H511.549V12.5H505.804ZM515.631 8.87784C515.631 9.94886 515.49 10.9332 515.209 11.831C514.928 12.7287 514.517 13.5568 513.978 14.3153H512.81C513.02 14.0341 513.216 13.6889 513.398 13.2798C513.58 12.8707 513.739 12.4233 513.875 11.9375C514.012 11.4489 514.118 10.9432 514.195 10.4205C514.272 9.89773 514.31 9.38352 514.31 8.87784C514.31 8.20455 514.243 7.52131 514.11 6.82812C513.976 6.13494 513.796 5.49148 513.569 4.89773C513.341 4.30398 513.088 3.8196 512.81 3.4446H513.978C514.517 4.20312 514.928 5.03125 515.209 5.92898C515.49 6.8267 515.631 7.80966 515.631 8.87784Z" fill="black"/>
<rect x="541" width="16" height="16" rx="4" fill="#9F57D7"/>
<path d="M565.959 3.77273H567.557L570.335 10.5568H570.438L573.216 3.77273H574.814V12.5H573.561V6.18466H573.48L570.906 12.4872H569.866L567.293 6.1804H567.212V12.5H565.959V3.77273ZM578.531 12.6449C578.116 12.6449 577.741 12.5682 577.406 12.4148C577.071 12.2585 576.805 12.0327 576.609 11.7372C576.416 11.4418 576.319 11.0795 576.319 10.6506C576.319 10.2812 576.39 9.97727 576.532 9.73864C576.674 9.5 576.866 9.31108 577.108 9.17188C577.349 9.03267 577.619 8.92756 577.917 8.85653C578.216 8.78551 578.52 8.73153 578.829 8.6946C579.221 8.64915 579.539 8.61222 579.784 8.58381C580.028 8.55256 580.206 8.50284 580.316 8.43466C580.427 8.36648 580.483 8.25568 580.483 8.10227V8.07244C580.483 7.70028 580.377 7.41193 580.167 7.20739C579.96 7.00284 579.65 6.90057 579.238 6.90057C578.809 6.90057 578.471 6.99574 578.224 7.18608C577.98 7.37358 577.811 7.58239 577.717 7.8125L576.52 7.53977C576.662 7.14205 576.869 6.82102 577.142 6.5767C577.417 6.32955 577.734 6.15057 578.092 6.03977C578.45 5.92614 578.826 5.86932 579.221 5.86932C579.483 5.86932 579.76 5.90057 580.052 5.96307C580.348 6.02273 580.623 6.13352 580.879 6.29545C581.137 6.45739 581.349 6.68892 581.514 6.99006C581.679 7.28835 581.761 7.67614 581.761 8.15341V12.5H580.517V11.6051H580.466C580.383 11.7699 580.26 11.9318 580.095 12.0909C579.93 12.25 579.718 12.3821 579.46 12.4872C579.201 12.5923 578.892 12.6449 578.531 12.6449ZM578.808 11.6222C579.16 11.6222 579.461 11.5526 579.711 11.4134C579.964 11.2741 580.156 11.0923 580.287 10.8679C580.42 10.6406 580.487 10.3977 580.487 10.1392V9.29545C580.441 9.34091 580.353 9.38352 580.223 9.4233C580.095 9.46023 579.949 9.4929 579.784 9.52131C579.619 9.54687 579.458 9.57102 579.302 9.59375C579.146 9.61364 579.015 9.63068 578.91 9.64489C578.663 9.67614 578.437 9.72869 578.233 9.80256C578.031 9.87642 577.869 9.98295 577.747 10.1222C577.627 10.2585 577.568 10.4403 577.568 10.6676C577.568 10.983 577.684 11.2216 577.917 11.3835C578.15 11.5426 578.447 11.6222 578.808 11.6222ZM583.458 12.5V5.95455H584.69V6.99432H584.758C584.877 6.64205 585.087 6.36506 585.388 6.16335C585.692 5.95881 586.036 5.85653 586.42 5.85653C586.499 5.85653 586.593 5.85937 586.701 5.86506C586.812 5.87074 586.898 5.87784 586.961 5.88636V7.10511C586.91 7.09091 586.819 7.07528 586.688 7.05824C586.558 7.03835 586.427 7.02841 586.296 7.02841C585.995 7.02841 585.727 7.09233 585.491 7.22017C585.258 7.34517 585.073 7.51989 584.937 7.74432C584.8 7.96591 584.732 8.21875 584.732 8.50284V12.5H583.458ZM589.235 10.2798L589.227 8.72443H589.449L592.056 5.95455H593.582L590.608 9.10795H590.407L589.235 10.2798ZM588.064 12.5V3.77273H589.338V12.5H588.064ZM592.197 12.5L589.853 9.3892L590.731 8.49858L593.761 12.5H592.197ZM601.034 5.95455V6.97727H597.335V5.95455H601.034ZM598.349 12.5V5.19602C598.349 4.78693 598.439 4.44744 598.618 4.17756C598.797 3.90483 599.034 3.7017 599.33 3.56818C599.625 3.43182 599.946 3.36364 600.293 3.36364C600.548 3.36364 600.767 3.38494 600.949 3.42756C601.131 3.46733 601.266 3.50426 601.354 3.53835L601.055 4.5696C600.996 4.55256 600.919 4.53267 600.825 4.50994C600.732 4.48437 600.618 4.47159 600.484 4.47159C600.175 4.47159 599.953 4.5483 599.82 4.7017C599.689 4.85511 599.624 5.0767 599.624 5.36648V12.5H598.349ZM604.848 12.6321C604.234 12.6321 603.699 12.4915 603.241 12.2102C602.784 11.929 602.429 11.5355 602.176 11.0298C601.923 10.5241 601.797 9.93324 601.797 9.2571C601.797 8.57812 601.923 7.98437 602.176 7.47585C602.429 6.96733 602.784 6.57244 603.241 6.29119C603.699 6.00994 604.234 5.86932 604.848 5.86932C605.462 5.86932 605.997 6.00994 606.455 6.29119C606.912 6.57244 607.267 6.96733 607.52 7.47585C607.773 7.98437 607.899 8.57812 607.899 9.2571C607.899 9.93324 607.773 10.5241 607.52 11.0298C607.267 11.5355 606.912 11.929 606.455 12.2102C605.997 12.4915 605.462 12.6321 604.848 12.6321ZM604.852 11.5625C605.25 11.5625 605.58 11.4574 605.841 11.2472C606.102 11.0369 606.295 10.7571 606.42 10.4077C606.548 10.0582 606.612 9.6733 606.612 9.25284C606.612 8.83523 606.548 8.4517 606.42 8.10227C606.295 7.75 606.102 7.46733 605.841 7.25426C605.58 7.04119 605.25 6.93466 604.852 6.93466C604.452 6.93466 604.119 7.04119 603.855 7.25426C603.594 7.46733 603.399 7.75 603.271 8.10227C603.146 8.4517 603.084 8.83523 603.084 9.25284C603.084 9.6733 603.146 10.0582 603.271 10.4077C603.399 10.7571 603.594 11.0369 603.855 11.2472C604.119 11.4574 604.452 11.5625 604.852 11.5625ZM609.321 12.5V5.95455H610.553V6.99432H610.621C610.74 6.64205 610.951 6.36506 611.252 6.16335C611.556 5.95881 611.9 5.85653 612.283 5.85653C612.363 5.85653 612.456 5.85937 612.564 5.86506C612.675 5.87074 612.762 5.87784 612.824 5.88636V7.10511C612.773 7.09091 612.682 7.07528 612.551 7.05824C612.421 7.03835 612.29 7.02841 612.159 7.02841C611.858 7.02841 611.59 7.09233 611.354 7.22017C611.121 7.34517 610.936 7.51989 610.8 7.74432C610.664 7.96591 610.596 8.21875 610.596 8.50284V12.5H609.321ZM620.03 12.5H617.205V3.77273H620.12C620.975 3.77273 621.709 3.94744 622.323 4.29688C622.936 4.64347 623.407 5.14205 623.733 5.79261C624.063 6.44034 624.228 7.21733 624.228 8.12358C624.228 9.03267 624.061 9.81392 623.729 10.4673C623.4 11.1207 622.922 11.6236 622.297 11.9759C621.672 12.3253 620.917 12.5 620.03 12.5ZM618.522 11.3494H619.958C620.623 11.3494 621.175 11.2244 621.615 10.9744C622.056 10.7216 622.385 10.3565 622.604 9.87926C622.823 9.39915 622.932 8.81392 622.932 8.12358C622.932 7.43892 622.823 6.85795 622.604 6.38068C622.388 5.90341 622.066 5.54119 621.637 5.29403C621.208 5.04687 620.675 4.9233 620.039 4.9233H618.522V11.3494ZM625.763 12.5V5.95455H627.037V12.5H625.763ZM626.406 4.9446C626.185 4.9446 625.994 4.87074 625.835 4.72301C625.679 4.57244 625.601 4.39347 625.601 4.18608C625.601 3.97585 625.679 3.79687 625.835 3.64915C625.994 3.49858 626.185 3.4233 626.406 3.4233C626.628 3.4233 626.817 3.49858 626.973 3.64915C627.132 3.79687 627.212 3.97585 627.212 4.18608C627.212 4.39347 627.132 4.57244 626.973 4.72301C626.817 4.87074 626.628 4.9446 626.406 4.9446ZM633.656 7.55256L632.501 7.7571C632.453 7.60937 632.376 7.46875 632.271 7.33523C632.169 7.2017 632.029 7.09233 631.853 7.0071C631.677 6.92187 631.457 6.87926 631.193 6.87926C630.832 6.87926 630.531 6.96023 630.289 7.12216C630.048 7.28125 629.927 7.48722 629.927 7.74006C629.927 7.95881 630.008 8.13494 630.17 8.26847C630.332 8.40199 630.593 8.51136 630.954 8.59659L631.994 8.83523C632.596 8.97443 633.045 9.18892 633.341 9.47869C633.636 9.76847 633.784 10.1449 633.784 10.608C633.784 11 633.67 11.3494 633.443 11.6562C633.218 11.9602 632.904 12.1989 632.501 12.3722C632.1 12.5455 631.636 12.6321 631.108 12.6321C630.375 12.6321 629.777 12.4759 629.314 12.1634C628.85 11.848 628.566 11.4006 628.461 10.821L629.693 10.6335C629.77 10.9545 629.927 11.1974 630.166 11.3622C630.404 11.5241 630.716 11.6051 631.099 11.6051C631.517 11.6051 631.85 11.5185 632.1 11.3452C632.35 11.169 632.475 10.9545 632.475 10.7017C632.475 10.4972 632.399 10.3253 632.245 10.1861C632.095 10.0469 631.863 9.94176 631.551 9.87074L630.443 9.62784C629.832 9.48864 629.38 9.26705 629.088 8.96307C628.798 8.65909 628.653 8.27415 628.653 7.80824C628.653 7.42187 628.761 7.08381 628.977 6.79403C629.193 6.50426 629.491 6.27841 629.872 6.11648C630.252 5.9517 630.689 5.86932 631.18 5.86932C631.887 5.86932 632.444 6.02273 632.85 6.32955C633.257 6.63352 633.525 7.04119 633.656 7.55256ZM637.942 12.6321C637.308 12.6321 636.763 12.4886 636.305 12.2017C635.851 11.9119 635.501 11.5128 635.257 11.0043C635.013 10.4957 634.891 9.91335 634.891 9.2571C634.891 8.59233 635.016 8.00568 635.266 7.49716C635.516 6.9858 635.868 6.58665 636.322 6.29972C636.777 6.01278 637.313 5.86932 637.929 5.86932C638.426 5.86932 638.869 5.96165 639.259 6.14631C639.648 6.32812 639.962 6.58381 640.2 6.91335C640.442 7.2429 640.585 7.62784 640.631 8.06818H639.391C639.322 7.76136 639.166 7.49716 638.922 7.27557C638.68 7.05398 638.357 6.94318 637.95 6.94318C637.595 6.94318 637.284 7.03693 637.017 7.22443C636.753 7.40909 636.547 7.6733 636.399 8.01705C636.251 8.35795 636.178 8.76136 636.178 9.22727C636.178 9.70455 636.25 10.1165 636.395 10.4631C636.54 10.8097 636.744 11.0781 637.009 11.2685C637.276 11.4588 637.589 11.554 637.95 11.554C638.192 11.554 638.411 11.5099 638.607 11.4219C638.805 11.331 638.972 11.2017 639.105 11.0341C639.241 10.8665 639.337 10.6648 639.391 10.429H640.631C640.585 10.8523 640.447 11.2301 640.217 11.5625C639.987 11.8949 639.679 12.1562 639.293 12.3466C638.909 12.5369 638.459 12.6321 637.942 12.6321ZM643.267 8.61364V12.5H641.993V3.77273H643.25V7.01989H643.331C643.485 6.66761 643.719 6.38778 644.034 6.1804C644.35 5.97301 644.762 5.86932 645.27 5.86932C645.719 5.86932 646.111 5.96165 646.446 6.14631C646.784 6.33097 647.046 6.60653 647.23 6.97301C647.418 7.33665 647.512 7.79119 647.512 8.33665V12.5H646.238V8.49006C646.238 8.00994 646.114 7.63778 645.867 7.37358C645.62 7.10653 645.276 6.97301 644.836 6.97301C644.534 6.97301 644.265 7.03693 644.026 7.16477C643.79 7.29261 643.604 7.48011 643.468 7.72727C643.334 7.97159 643.267 8.26705 643.267 8.61364ZM651.117 12.6449C650.702 12.6449 650.327 12.5682 649.992 12.4148C649.657 12.2585 649.391 12.0327 649.195 11.7372C649.002 11.4418 648.905 11.0795 648.905 10.6506C648.905 10.2812 648.976 9.97727 649.118 9.73864C649.26 9.5 649.452 9.31108 649.694 9.17188C649.935 9.03267 650.205 8.92756 650.503 8.85653C650.801 8.78551 651.105 8.73153 651.415 8.6946C651.807 8.64915 652.125 8.61222 652.37 8.58381C652.614 8.55256 652.792 8.50284 652.902 8.43466C653.013 8.36648 653.069 8.25568 653.069 8.10227V8.07244C653.069 7.70028 652.963 7.41193 652.753 7.20739C652.546 7.00284 652.236 6.90057 651.824 6.90057C651.395 6.90057 651.057 6.99574 650.81 7.18608C650.566 7.37358 650.397 7.58239 650.303 7.8125L649.105 7.53977C649.248 7.14205 649.455 6.82102 649.728 6.5767C650.003 6.32955 650.32 6.15057 650.678 6.03977C651.036 5.92614 651.412 5.86932 651.807 5.86932C652.069 5.86932 652.346 5.90057 652.638 5.96307C652.934 6.02273 653.209 6.13352 653.465 6.29545C653.723 6.45739 653.935 6.68892 654.1 6.99006C654.265 7.28835 654.347 7.67614 654.347 8.15341V12.5H653.103V11.6051H653.051C652.969 11.7699 652.846 11.9318 652.681 12.0909C652.516 12.25 652.304 12.3821 652.046 12.4872C651.787 12.5923 651.478 12.6449 651.117 12.6449ZM651.394 11.6222C651.746 11.6222 652.047 11.5526 652.297 11.4134C652.55 11.2741 652.742 11.0923 652.873 10.8679C653.006 10.6406 653.073 10.3977 653.073 10.1392V9.29545C653.027 9.34091 652.939 9.38352 652.809 9.4233C652.681 9.46023 652.534 9.4929 652.37 9.52131C652.205 9.54687 652.044 9.57102 651.888 9.59375C651.732 9.61364 651.601 9.63068 651.496 9.64489C651.249 9.67614 651.023 9.72869 650.819 9.80256C650.617 9.87642 650.455 9.98295 650.333 10.1222C650.213 10.2585 650.154 10.4403 650.154 10.6676C650.154 10.983 650.27 11.2216 650.503 11.3835C650.736 11.5426 651.033 11.6222 651.394 11.6222ZM656.044 12.5V5.95455H657.276V6.99432H657.344C657.463 6.64205 657.673 6.36506 657.974 6.16335C658.278 5.95881 658.622 5.85653 659.006 5.85653C659.085 5.85653 659.179 5.85937 659.287 5.86506C659.398 5.87074 659.484 5.87784 659.547 5.88636V7.10511C659.496 7.09091 659.405 7.07528 659.274 7.05824C659.143 7.03835 659.013 7.02841 658.882 7.02841C658.581 7.02841 658.313 7.09233 658.077 7.22017C657.844 7.34517 657.659 7.51989 657.523 7.74432C657.386 7.96591 657.318 8.21875 657.318 8.50284V12.5H656.044ZM663.159 15.0909C662.64 15.0909 662.192 15.0227 661.817 14.8864C661.445 14.75 661.141 14.5696 660.905 14.3452C660.669 14.1207 660.493 13.875 660.377 13.608L661.472 13.1562C661.549 13.2812 661.651 13.4134 661.779 13.5526C661.909 13.6946 662.086 13.8153 662.307 13.9148C662.532 14.0142 662.82 14.0639 663.172 14.0639C663.655 14.0639 664.054 13.946 664.37 13.7102C664.685 13.4773 664.843 13.1051 664.843 12.5938V11.3068H664.762C664.685 11.446 664.574 11.6009 664.429 11.7713C664.287 11.9418 664.091 12.0895 663.841 12.2145C663.591 12.3395 663.266 12.402 662.865 12.402C662.348 12.402 661.882 12.2812 661.468 12.0398C661.056 11.7955 660.729 11.4361 660.488 10.9616C660.249 10.4844 660.13 9.89773 660.13 9.2017C660.13 8.50568 660.248 7.90909 660.483 7.41193C660.722 6.91477 661.049 6.53409 661.463 6.26989C661.878 6.00284 662.348 5.86932 662.874 5.86932C663.28 5.86932 663.608 5.9375 663.858 6.07386C664.108 6.20739 664.303 6.36364 664.442 6.54261C664.584 6.72159 664.694 6.87926 664.77 7.01562H664.864V5.95455H666.113V12.6449C666.113 13.2074 665.982 13.669 665.721 14.0298C665.459 14.3906 665.105 14.6577 664.659 14.831C664.216 15.0043 663.716 15.0909 663.159 15.0909ZM663.147 11.3452C663.513 11.3452 663.823 11.2599 664.076 11.0895C664.331 10.9162 664.525 10.669 664.655 10.348C664.789 10.0241 664.855 9.63636 664.855 9.18466C664.855 8.74432 664.79 8.35653 664.659 8.02131C664.529 7.68608 664.337 7.42472 664.084 7.23722C663.831 7.04687 663.519 6.9517 663.147 6.9517C662.763 6.9517 662.444 7.05114 662.188 7.25C661.932 7.44602 661.739 7.71307 661.608 8.05114C661.48 8.3892 661.417 8.76705 661.417 9.18466C661.417 9.61364 661.482 9.99006 661.613 10.3139C661.743 10.6378 661.936 10.8906 662.192 11.0724C662.451 11.2543 662.769 11.3452 663.147 11.3452ZM670.642 12.6321C669.998 12.6321 669.442 12.4943 668.976 12.2188C668.513 11.9403 668.155 11.5497 667.902 11.0469C667.652 10.5412 667.527 9.94886 667.527 9.26989C667.527 8.59943 667.652 8.00852 667.902 7.49716C668.155 6.9858 668.507 6.58665 668.959 6.29972C669.414 6.01278 669.945 5.86932 670.553 5.86932C670.922 5.86932 671.28 5.9304 671.627 6.05256C671.973 6.17472 672.284 6.36648 672.56 6.62784C672.836 6.8892 673.053 7.22869 673.212 7.64631C673.371 8.06108 673.451 8.56534 673.451 9.15909V9.6108H668.248V8.65625H672.202C672.202 8.32102 672.134 8.02415 671.998 7.76562C671.861 7.50426 671.669 7.2983 671.422 7.14773C671.178 6.99716 670.891 6.92188 670.561 6.92188C670.203 6.92188 669.891 7.00994 669.624 7.18608C669.36 7.35937 669.155 7.58665 669.01 7.8679C668.868 8.14631 668.797 8.44886 668.797 8.77557V9.52131C668.797 9.95881 668.874 10.331 669.027 10.6378C669.184 10.9446 669.401 11.179 669.679 11.3409C669.958 11.5 670.283 11.5795 670.655 11.5795C670.897 11.5795 671.117 11.5455 671.316 11.4773C671.515 11.4062 671.686 11.3011 671.831 11.1619C671.976 11.0227 672.087 10.8509 672.164 10.6463L673.37 10.8636C673.273 11.2187 673.1 11.5298 672.85 11.7969C672.603 12.0611 672.292 12.267 671.917 12.4148C671.544 12.5597 671.12 12.6321 670.642 12.6321ZM675.235 8.87784C675.235 7.80966 675.376 6.8267 675.657 5.92898C675.938 5.03125 676.349 4.20312 676.888 3.4446H678.056C677.846 3.72585 677.65 4.07102 677.468 4.48011C677.286 4.8892 677.127 5.33807 676.991 5.8267C676.854 6.3125 676.748 6.81676 676.671 7.33949C676.594 7.85937 676.556 8.37216 676.556 8.87784C676.556 9.55398 676.623 10.2386 676.756 10.9318C676.89 11.625 677.07 12.2685 677.298 12.8622C677.525 13.456 677.778 13.9403 678.056 14.3153H676.888C676.349 13.5568 675.938 12.7287 675.657 11.831C675.376 10.9332 675.235 9.94886 675.235 8.87784ZM682.694 3.77273V12.5H681.373V5.09375H681.321L679.233 6.45739V5.19602L681.411 3.77273H682.694ZM687.522 8.87784C687.522 9.94886 687.381 10.9332 687.1 11.831C686.819 12.7287 686.408 13.5568 685.868 14.3153H684.701C684.911 14.0341 685.107 13.6889 685.289 13.2798C685.471 12.8707 685.63 12.4233 685.766 11.9375C685.902 11.4489 686.009 10.9432 686.086 10.4205C686.162 9.89773 686.201 9.38352 686.201 8.87784C686.201 8.20455 686.134 7.52131 686 6.82812C685.867 6.13494 685.686 5.49148 685.459 4.89773C685.232 4.30398 684.979 3.8196 684.701 3.4446H685.868C686.408 4.20312 686.819 5.03125 687.1 5.92898C687.381 6.8267 687.522 7.80966 687.522 8.87784Z" fill="black"/>
</svg>
