<svg width="32" height="32" viewBox="0 0 32 32" fill="none" xmlns="http://www.w3.org/2000/svg">
<path d="M0 25.0374V27.0458C0 27.5636 0.41975 27.9833 0.9375 27.9833C1.45525 27.9833 1.875 27.5636 1.875 27.0458V25.9749H30.125V27.0458C30.125 27.5636 30.5448 27.9833 31.0625 27.9833C31.5802 27.9833 32 27.5636 32 27.0458V25.0374V21.9583H0V25.0374Z" fill="#F2413E"/>
<path d="M28.5521 14.0583H3.44788C1.54675 14.0583 0 15.6051 0 17.5063V20.0833H32V17.5063C32 15.6051 30.4533 14.0583 28.5521 14.0583Z" fill="#F2413E"/>
<path d="M12.4851 9.9082C11.6177 9.9082 10.9121 10.6138 10.9121 11.4811V12.1831H21.0871V11.4811C21.0871 10.6138 20.3815 9.9082 19.5142 9.9082H12.4851Z" fill="#F2413E"/>
<path d="M9.0376 11.4812C9.0376 9.57998 10.5843 8.03329 12.4856 8.03329H19.5148C21.416 8.03329 22.9627 9.57998 22.9627 11.4812V12.1832H27.9835V7.46448C27.9835 5.56329 26.4368 4.0166 24.5355 4.0166H7.46472C5.56353 4.0166 4.01685 5.56329 4.01685 7.46448V12.1832H9.0376V11.4812Z" fill="#F2413E"/>
</svg>
